<mxfile host="65bd71144e">
    <diagram name="Page-1" id="QHWN9d8Y227izBWKVgRu">
        <mxGraphModel dx="1452" dy="971" grid="1" gridSize="10" guides="1" tooltips="1" connect="1" arrows="1" fold="1" page="1" pageScale="1" pageWidth="1169" pageHeight="1654" math="0" shadow="0">
            <root>
                <mxCell id="0"/>
                <mxCell id="1" parent="0"/>
                <mxCell id="fKlVgrNZjiq0pqBHKwR7-226" value="" style="rounded=1;whiteSpace=wrap;html=1;fillColor=#fff2cc;strokeColor=#d6b656;" parent="1" vertex="1">
                    <mxGeometry x="1680" y="560" width="770" height="120" as="geometry"/>
                </mxCell>
                <mxCell id="fKlVgrNZjiq0pqBHKwR7-241" value="" style="rounded=0;whiteSpace=wrap;html=1;fillColor=#f5f5f5;fontColor=#333333;strokeColor=#666666;" parent="1" vertex="1">
                    <mxGeometry x="1940" y="585" width="230" height="60" as="geometry"/>
                </mxCell>
                <mxCell id="fKlVgrNZjiq0pqBHKwR7-47" value="" style="rounded=1;whiteSpace=wrap;html=1;fillColor=#d5e8d4;strokeColor=#82b366;" parent="1" vertex="1">
                    <mxGeometry x="60" y="155" width="770" height="145" as="geometry"/>
                </mxCell>
                <mxCell id="fKlVgrNZjiq0pqBHKwR7-46" value="" style="rounded=1;whiteSpace=wrap;html=1;fillColor=#dae8fc;strokeColor=#6c8ebf;" parent="1" vertex="1">
                    <mxGeometry x="60" y="40" width="770" height="110" as="geometry"/>
                </mxCell>
                <mxCell id="fKlVgrNZjiq0pqBHKwR7-1" value="10 + a * 20&amp;nbsp; /10 = b" style="text;html=1;align=center;verticalAlign=middle;whiteSpace=wrap;rounded=0;" parent="1" vertex="1">
                    <mxGeometry x="40" y="80" width="170" height="30" as="geometry"/>
                </mxCell>
                <mxCell id="fKlVgrNZjiq0pqBHKwR7-2" value="10" style="rounded=0;whiteSpace=wrap;html=1;" parent="1" vertex="1">
                    <mxGeometry x="210" y="80" width="40" height="40" as="geometry"/>
                </mxCell>
                <mxCell id="fKlVgrNZjiq0pqBHKwR7-3" value="+" style="rounded=0;whiteSpace=wrap;html=1;" parent="1" vertex="1">
                    <mxGeometry x="270" y="80" width="40" height="40" as="geometry"/>
                </mxCell>
                <mxCell id="fKlVgrNZjiq0pqBHKwR7-4" value="a" style="rounded=0;whiteSpace=wrap;html=1;" parent="1" vertex="1">
                    <mxGeometry x="340" y="80" width="40" height="40" as="geometry"/>
                </mxCell>
                <mxCell id="fKlVgrNZjiq0pqBHKwR7-5" value="*" style="rounded=0;whiteSpace=wrap;html=1;" parent="1" vertex="1">
                    <mxGeometry x="410" y="80" width="40" height="40" as="geometry"/>
                </mxCell>
                <mxCell id="fKlVgrNZjiq0pqBHKwR7-6" value="20" style="rounded=0;whiteSpace=wrap;html=1;" parent="1" vertex="1">
                    <mxGeometry x="480" y="80" width="40" height="40" as="geometry"/>
                </mxCell>
                <mxCell id="fKlVgrNZjiq0pqBHKwR7-7" value="/" style="rounded=0;whiteSpace=wrap;html=1;" parent="1" vertex="1">
                    <mxGeometry x="550" y="80" width="40" height="40" as="geometry"/>
                </mxCell>
                <mxCell id="fKlVgrNZjiq0pqBHKwR7-9" value="10" style="rounded=0;whiteSpace=wrap;html=1;" parent="1" vertex="1">
                    <mxGeometry x="620" y="80" width="40" height="40" as="geometry"/>
                </mxCell>
                <mxCell id="fKlVgrNZjiq0pqBHKwR7-10" value="*" style="rounded=0;whiteSpace=wrap;html=1;" parent="1" vertex="1">
                    <mxGeometry x="410" y="190" width="40" height="40" as="geometry"/>
                </mxCell>
                <mxCell id="fKlVgrNZjiq0pqBHKwR7-11" value="a" style="rounded=0;whiteSpace=wrap;html=1;direction=north;" parent="1" vertex="1">
                    <mxGeometry x="340" y="230" width="40" height="40" as="geometry"/>
                </mxCell>
                <mxCell id="fKlVgrNZjiq0pqBHKwR7-12" value="20" style="rounded=0;whiteSpace=wrap;html=1;" parent="1" vertex="1">
                    <mxGeometry x="480" y="230" width="40" height="40" as="geometry"/>
                </mxCell>
                <mxCell id="fKlVgrNZjiq0pqBHKwR7-13" value="10" style="rounded=0;whiteSpace=wrap;html=1;" parent="1" vertex="1">
                    <mxGeometry x="210" y="190" width="40" height="40" as="geometry"/>
                </mxCell>
                <mxCell id="fKlVgrNZjiq0pqBHKwR7-14" value="+" style="rounded=0;whiteSpace=wrap;html=1;" parent="1" vertex="1">
                    <mxGeometry x="270" y="190" width="40" height="40" as="geometry"/>
                </mxCell>
                <mxCell id="fKlVgrNZjiq0pqBHKwR7-15" value="/" style="rounded=0;whiteSpace=wrap;html=1;" parent="1" vertex="1">
                    <mxGeometry x="550" y="190" width="40" height="40" as="geometry"/>
                </mxCell>
                <mxCell id="fKlVgrNZjiq0pqBHKwR7-16" value="10" style="rounded=0;whiteSpace=wrap;html=1;" parent="1" vertex="1">
                    <mxGeometry x="620" y="190" width="40" height="40" as="geometry"/>
                </mxCell>
                <mxCell id="fKlVgrNZjiq0pqBHKwR7-44" value="=" style="rounded=0;whiteSpace=wrap;html=1;" parent="1" vertex="1">
                    <mxGeometry x="690" y="80" width="40" height="40" as="geometry"/>
                </mxCell>
                <mxCell id="fKlVgrNZjiq0pqBHKwR7-45" value="b" style="rounded=0;whiteSpace=wrap;html=1;" parent="1" vertex="1">
                    <mxGeometry x="760" y="80" width="40" height="40" as="geometry"/>
                </mxCell>
                <mxCell id="fKlVgrNZjiq0pqBHKwR7-48" value="=" style="rounded=0;whiteSpace=wrap;html=1;" parent="1" vertex="1">
                    <mxGeometry x="690" y="190" width="40" height="40" as="geometry"/>
                </mxCell>
                <mxCell id="fKlVgrNZjiq0pqBHKwR7-49" value="b" style="rounded=0;whiteSpace=wrap;html=1;" parent="1" vertex="1">
                    <mxGeometry x="760" y="190" width="40" height="40" as="geometry"/>
                </mxCell>
                <mxCell id="fKlVgrNZjiq0pqBHKwR7-50" value="" style="endArrow=none;html=1;rounded=0;entryX=0.5;entryY=1;entryDx=0;entryDy=0;exitX=0.5;exitY=1;exitDx=0;exitDy=0;" parent="1" source="fKlVgrNZjiq0pqBHKwR7-11" target="fKlVgrNZjiq0pqBHKwR7-10" edge="1">
                    <mxGeometry width="50" height="50" relative="1" as="geometry">
                        <mxPoint x="380" y="240" as="sourcePoint"/>
                        <mxPoint x="430" y="190" as="targetPoint"/>
                    </mxGeometry>
                </mxCell>
                <mxCell id="fKlVgrNZjiq0pqBHKwR7-51" value="" style="endArrow=none;html=1;rounded=0;exitX=0;exitY=0.5;exitDx=0;exitDy=0;" parent="1" source="fKlVgrNZjiq0pqBHKwR7-12" edge="1">
                    <mxGeometry width="50" height="50" relative="1" as="geometry">
                        <mxPoint x="390" y="260" as="sourcePoint"/>
                        <mxPoint x="430" y="230" as="targetPoint"/>
                    </mxGeometry>
                </mxCell>
                <mxCell id="fKlVgrNZjiq0pqBHKwR7-52" value="Step 0" style="text;html=1;align=center;verticalAlign=middle;whiteSpace=wrap;rounded=0;" parent="1" vertex="1">
                    <mxGeometry x="95" y="40" width="60" height="30" as="geometry"/>
                </mxCell>
                <mxCell id="fKlVgrNZjiq0pqBHKwR7-53" value="Step 1" style="text;html=1;align=center;verticalAlign=middle;whiteSpace=wrap;rounded=0;" parent="1" vertex="1">
                    <mxGeometry x="95" y="155" width="60" height="30" as="geometry"/>
                </mxCell>
                <mxCell id="fKlVgrNZjiq0pqBHKwR7-54" value="" style="rounded=1;whiteSpace=wrap;html=1;fillColor=#ffe6cc;strokeColor=#d79b00;" parent="1" vertex="1">
                    <mxGeometry x="60" y="310" width="770" height="170" as="geometry"/>
                </mxCell>
                <mxCell id="fKlVgrNZjiq0pqBHKwR7-55" value="*" style="rounded=0;whiteSpace=wrap;html=1;" parent="1" vertex="1">
                    <mxGeometry x="410" y="385" width="40" height="40" as="geometry"/>
                </mxCell>
                <mxCell id="fKlVgrNZjiq0pqBHKwR7-56" value="a" style="rounded=0;whiteSpace=wrap;html=1;direction=north;" parent="1" vertex="1">
                    <mxGeometry x="340" y="425" width="40" height="40" as="geometry"/>
                </mxCell>
                <mxCell id="fKlVgrNZjiq0pqBHKwR7-57" value="20" style="rounded=0;whiteSpace=wrap;html=1;" parent="1" vertex="1">
                    <mxGeometry x="480" y="425" width="40" height="40" as="geometry"/>
                </mxCell>
                <mxCell id="fKlVgrNZjiq0pqBHKwR7-58" value="10" style="rounded=0;whiteSpace=wrap;html=1;" parent="1" vertex="1">
                    <mxGeometry x="209" y="345" width="40" height="40" as="geometry"/>
                </mxCell>
                <mxCell id="fKlVgrNZjiq0pqBHKwR7-59" value="+" style="rounded=0;whiteSpace=wrap;html=1;" parent="1" vertex="1">
                    <mxGeometry x="269" y="345" width="40" height="40" as="geometry"/>
                </mxCell>
                <mxCell id="fKlVgrNZjiq0pqBHKwR7-60" value="/" style="rounded=0;whiteSpace=wrap;html=1;" parent="1" vertex="1">
                    <mxGeometry x="549" y="345" width="40" height="40" as="geometry"/>
                </mxCell>
                <mxCell id="fKlVgrNZjiq0pqBHKwR7-61" value="10" style="rounded=0;whiteSpace=wrap;html=1;" parent="1" vertex="1">
                    <mxGeometry x="620" y="385" width="40" height="40" as="geometry"/>
                </mxCell>
                <mxCell id="fKlVgrNZjiq0pqBHKwR7-62" value="=" style="rounded=0;whiteSpace=wrap;html=1;" parent="1" vertex="1">
                    <mxGeometry x="689" y="345" width="40" height="40" as="geometry"/>
                </mxCell>
                <mxCell id="fKlVgrNZjiq0pqBHKwR7-63" value="b" style="rounded=0;whiteSpace=wrap;html=1;" parent="1" vertex="1">
                    <mxGeometry x="759" y="345" width="40" height="40" as="geometry"/>
                </mxCell>
                <mxCell id="fKlVgrNZjiq0pqBHKwR7-64" value="" style="endArrow=none;html=1;rounded=0;entryX=0.5;entryY=1;entryDx=0;entryDy=0;exitX=0.5;exitY=1;exitDx=0;exitDy=0;" parent="1" source="fKlVgrNZjiq0pqBHKwR7-56" target="fKlVgrNZjiq0pqBHKwR7-55" edge="1">
                    <mxGeometry width="50" height="50" relative="1" as="geometry">
                        <mxPoint x="379" y="395" as="sourcePoint"/>
                        <mxPoint x="429" y="345" as="targetPoint"/>
                    </mxGeometry>
                </mxCell>
                <mxCell id="fKlVgrNZjiq0pqBHKwR7-65" value="" style="endArrow=none;html=1;rounded=0;exitX=0;exitY=0.5;exitDx=0;exitDy=0;entryX=0.5;entryY=1;entryDx=0;entryDy=0;" parent="1" source="fKlVgrNZjiq0pqBHKwR7-57" target="fKlVgrNZjiq0pqBHKwR7-55" edge="1">
                    <mxGeometry width="50" height="50" relative="1" as="geometry">
                        <mxPoint x="389" y="415" as="sourcePoint"/>
                        <mxPoint x="429" y="385" as="targetPoint"/>
                    </mxGeometry>
                </mxCell>
                <mxCell id="fKlVgrNZjiq0pqBHKwR7-66" value="Step 2" style="text;html=1;align=center;verticalAlign=middle;whiteSpace=wrap;rounded=0;" parent="1" vertex="1">
                    <mxGeometry x="95" y="315" width="60" height="30" as="geometry"/>
                </mxCell>
                <mxCell id="fKlVgrNZjiq0pqBHKwR7-67" value="" style="endArrow=none;html=1;rounded=0;entryX=0.5;entryY=1;entryDx=0;entryDy=0;exitX=0;exitY=0.5;exitDx=0;exitDy=0;" parent="1" source="fKlVgrNZjiq0pqBHKwR7-61" target="fKlVgrNZjiq0pqBHKwR7-60" edge="1">
                    <mxGeometry width="50" height="50" relative="1" as="geometry">
                        <mxPoint x="460" y="340" as="sourcePoint"/>
                        <mxPoint x="510" y="290" as="targetPoint"/>
                    </mxGeometry>
                </mxCell>
                <mxCell id="fKlVgrNZjiq0pqBHKwR7-68" value="" style="endArrow=none;html=1;rounded=0;entryX=1;entryY=0.5;entryDx=0;entryDy=0;exitX=0.5;exitY=1;exitDx=0;exitDy=0;" parent="1" source="fKlVgrNZjiq0pqBHKwR7-60" target="fKlVgrNZjiq0pqBHKwR7-55" edge="1">
                    <mxGeometry width="50" height="50" relative="1" as="geometry">
                        <mxPoint x="630" y="415" as="sourcePoint"/>
                        <mxPoint x="579" y="395" as="targetPoint"/>
                    </mxGeometry>
                </mxCell>
                <mxCell id="fKlVgrNZjiq0pqBHKwR7-69" value="" style="rounded=1;whiteSpace=wrap;html=1;fillColor=#fff2cc;strokeColor=#d6b656;" parent="1" vertex="1">
                    <mxGeometry x="59" y="490" width="770" height="210" as="geometry"/>
                </mxCell>
                <mxCell id="fKlVgrNZjiq0pqBHKwR7-70" value="*" style="rounded=0;whiteSpace=wrap;html=1;" parent="1" vertex="1">
                    <mxGeometry x="410" y="605" width="40" height="40" as="geometry"/>
                </mxCell>
                <mxCell id="fKlVgrNZjiq0pqBHKwR7-71" value="a" style="rounded=0;whiteSpace=wrap;html=1;direction=north;" parent="1" vertex="1">
                    <mxGeometry x="340" y="645" width="40" height="40" as="geometry"/>
                </mxCell>
                <mxCell id="fKlVgrNZjiq0pqBHKwR7-72" value="20" style="rounded=0;whiteSpace=wrap;html=1;" parent="1" vertex="1">
                    <mxGeometry x="480" y="645" width="40" height="40" as="geometry"/>
                </mxCell>
                <mxCell id="fKlVgrNZjiq0pqBHKwR7-73" value="10" style="rounded=0;whiteSpace=wrap;html=1;" parent="1" vertex="1">
                    <mxGeometry x="210" y="565" width="40" height="40" as="geometry"/>
                </mxCell>
                <mxCell id="fKlVgrNZjiq0pqBHKwR7-74" value="+" style="rounded=0;whiteSpace=wrap;html=1;" parent="1" vertex="1">
                    <mxGeometry x="268" y="525" width="40" height="40" as="geometry"/>
                </mxCell>
                <mxCell id="fKlVgrNZjiq0pqBHKwR7-75" value="/" style="rounded=0;whiteSpace=wrap;html=1;" parent="1" vertex="1">
                    <mxGeometry x="549" y="565" width="40" height="40" as="geometry"/>
                </mxCell>
                <mxCell id="fKlVgrNZjiq0pqBHKwR7-76" value="10" style="rounded=0;whiteSpace=wrap;html=1;" parent="1" vertex="1">
                    <mxGeometry x="620" y="605" width="40" height="40" as="geometry"/>
                </mxCell>
                <mxCell id="fKlVgrNZjiq0pqBHKwR7-77" value="=" style="rounded=0;whiteSpace=wrap;html=1;" parent="1" vertex="1">
                    <mxGeometry x="688" y="525" width="40" height="40" as="geometry"/>
                </mxCell>
                <mxCell id="fKlVgrNZjiq0pqBHKwR7-78" value="b" style="rounded=0;whiteSpace=wrap;html=1;" parent="1" vertex="1">
                    <mxGeometry x="758" y="525" width="40" height="40" as="geometry"/>
                </mxCell>
                <mxCell id="fKlVgrNZjiq0pqBHKwR7-79" value="" style="endArrow=none;html=1;rounded=0;entryX=0.5;entryY=1;entryDx=0;entryDy=0;exitX=0.5;exitY=1;exitDx=0;exitDy=0;" parent="1" source="fKlVgrNZjiq0pqBHKwR7-71" target="fKlVgrNZjiq0pqBHKwR7-70" edge="1">
                    <mxGeometry width="50" height="50" relative="1" as="geometry">
                        <mxPoint x="378" y="575" as="sourcePoint"/>
                        <mxPoint x="428" y="525" as="targetPoint"/>
                    </mxGeometry>
                </mxCell>
                <mxCell id="fKlVgrNZjiq0pqBHKwR7-80" value="" style="endArrow=none;html=1;rounded=0;exitX=0;exitY=0.5;exitDx=0;exitDy=0;entryX=0.5;entryY=1;entryDx=0;entryDy=0;" parent="1" source="fKlVgrNZjiq0pqBHKwR7-72" target="fKlVgrNZjiq0pqBHKwR7-70" edge="1">
                    <mxGeometry width="50" height="50" relative="1" as="geometry">
                        <mxPoint x="388" y="595" as="sourcePoint"/>
                        <mxPoint x="428" y="565" as="targetPoint"/>
                    </mxGeometry>
                </mxCell>
                <mxCell id="fKlVgrNZjiq0pqBHKwR7-81" value="Step 3" style="text;html=1;align=center;verticalAlign=middle;whiteSpace=wrap;rounded=0;" parent="1" vertex="1">
                    <mxGeometry x="94" y="495" width="60" height="30" as="geometry"/>
                </mxCell>
                <mxCell id="fKlVgrNZjiq0pqBHKwR7-82" value="" style="endArrow=none;html=1;rounded=0;entryX=0.5;entryY=1;entryDx=0;entryDy=0;exitX=0;exitY=0.5;exitDx=0;exitDy=0;" parent="1" source="fKlVgrNZjiq0pqBHKwR7-76" target="fKlVgrNZjiq0pqBHKwR7-75" edge="1">
                    <mxGeometry width="50" height="50" relative="1" as="geometry">
                        <mxPoint x="459" y="520" as="sourcePoint"/>
                        <mxPoint x="509" y="470" as="targetPoint"/>
                    </mxGeometry>
                </mxCell>
                <mxCell id="fKlVgrNZjiq0pqBHKwR7-83" value="" style="endArrow=none;html=1;rounded=0;entryX=1;entryY=0.5;entryDx=0;entryDy=0;exitX=0.5;exitY=1;exitDx=0;exitDy=0;" parent="1" source="fKlVgrNZjiq0pqBHKwR7-75" target="fKlVgrNZjiq0pqBHKwR7-70" edge="1">
                    <mxGeometry width="50" height="50" relative="1" as="geometry">
                        <mxPoint x="629" y="595" as="sourcePoint"/>
                        <mxPoint x="578" y="575" as="targetPoint"/>
                    </mxGeometry>
                </mxCell>
                <mxCell id="fKlVgrNZjiq0pqBHKwR7-84" value="" style="endArrow=none;html=1;rounded=0;exitX=1;exitY=0.5;exitDx=0;exitDy=0;entryX=0.5;entryY=1;entryDx=0;entryDy=0;" parent="1" source="fKlVgrNZjiq0pqBHKwR7-73" target="fKlVgrNZjiq0pqBHKwR7-74" edge="1">
                    <mxGeometry width="50" height="50" relative="1" as="geometry">
                        <mxPoint x="460" y="560" as="sourcePoint"/>
                        <mxPoint x="510" y="510" as="targetPoint"/>
                    </mxGeometry>
                </mxCell>
                <mxCell id="fKlVgrNZjiq0pqBHKwR7-85" value="" style="endArrow=none;html=1;rounded=0;entryX=0;entryY=0.5;entryDx=0;entryDy=0;exitX=0.5;exitY=1;exitDx=0;exitDy=0;" parent="1" source="fKlVgrNZjiq0pqBHKwR7-74" target="fKlVgrNZjiq0pqBHKwR7-75" edge="1">
                    <mxGeometry width="50" height="50" relative="1" as="geometry">
                        <mxPoint x="460" y="560" as="sourcePoint"/>
                        <mxPoint x="510" y="510" as="targetPoint"/>
                    </mxGeometry>
                </mxCell>
                <mxCell id="fKlVgrNZjiq0pqBHKwR7-86" value="" style="rounded=1;whiteSpace=wrap;html=1;fillColor=#f8cecc;strokeColor=#b85450;" parent="1" vertex="1">
                    <mxGeometry x="60" y="710" width="770" height="250" as="geometry"/>
                </mxCell>
                <mxCell id="fKlVgrNZjiq0pqBHKwR7-87" value="*" style="rounded=0;whiteSpace=wrap;html=1;" parent="1" vertex="1">
                    <mxGeometry x="409" y="865" width="40" height="40" as="geometry"/>
                </mxCell>
                <mxCell id="fKlVgrNZjiq0pqBHKwR7-88" value="a" style="rounded=0;whiteSpace=wrap;html=1;direction=north;" parent="1" vertex="1">
                    <mxGeometry x="339" y="905" width="40" height="40" as="geometry"/>
                </mxCell>
                <mxCell id="fKlVgrNZjiq0pqBHKwR7-89" value="20" style="rounded=0;whiteSpace=wrap;html=1;" parent="1" vertex="1">
                    <mxGeometry x="479" y="905" width="40" height="40" as="geometry"/>
                </mxCell>
                <mxCell id="fKlVgrNZjiq0pqBHKwR7-90" value="10" style="rounded=0;whiteSpace=wrap;html=1;" parent="1" vertex="1">
                    <mxGeometry x="209" y="825" width="40" height="40" as="geometry"/>
                </mxCell>
                <mxCell id="fKlVgrNZjiq0pqBHKwR7-91" value="+" style="rounded=0;whiteSpace=wrap;html=1;" parent="1" vertex="1">
                    <mxGeometry x="267" y="785" width="40" height="40" as="geometry"/>
                </mxCell>
                <mxCell id="fKlVgrNZjiq0pqBHKwR7-92" value="/" style="rounded=0;whiteSpace=wrap;html=1;" parent="1" vertex="1">
                    <mxGeometry x="548" y="825" width="40" height="40" as="geometry"/>
                </mxCell>
                <mxCell id="fKlVgrNZjiq0pqBHKwR7-93" value="10" style="rounded=0;whiteSpace=wrap;html=1;" parent="1" vertex="1">
                    <mxGeometry x="619" y="865" width="40" height="40" as="geometry"/>
                </mxCell>
                <mxCell id="fKlVgrNZjiq0pqBHKwR7-94" value="=" style="rounded=0;whiteSpace=wrap;html=1;" parent="1" vertex="1">
                    <mxGeometry x="689" y="745" width="40" height="40" as="geometry"/>
                </mxCell>
                <mxCell id="fKlVgrNZjiq0pqBHKwR7-95" value="b" style="rounded=0;whiteSpace=wrap;html=1;" parent="1" vertex="1">
                    <mxGeometry x="758" y="785" width="40" height="40" as="geometry"/>
                </mxCell>
                <mxCell id="fKlVgrNZjiq0pqBHKwR7-96" value="" style="endArrow=none;html=1;rounded=0;entryX=0.5;entryY=1;entryDx=0;entryDy=0;exitX=0.5;exitY=1;exitDx=0;exitDy=0;" parent="1" source="fKlVgrNZjiq0pqBHKwR7-88" target="fKlVgrNZjiq0pqBHKwR7-87" edge="1">
                    <mxGeometry width="50" height="50" relative="1" as="geometry">
                        <mxPoint x="379" y="795" as="sourcePoint"/>
                        <mxPoint x="429" y="745" as="targetPoint"/>
                    </mxGeometry>
                </mxCell>
                <mxCell id="fKlVgrNZjiq0pqBHKwR7-97" value="" style="endArrow=none;html=1;rounded=0;exitX=0;exitY=0.5;exitDx=0;exitDy=0;entryX=0.5;entryY=1;entryDx=0;entryDy=0;" parent="1" source="fKlVgrNZjiq0pqBHKwR7-89" target="fKlVgrNZjiq0pqBHKwR7-87" edge="1">
                    <mxGeometry width="50" height="50" relative="1" as="geometry">
                        <mxPoint x="389" y="815" as="sourcePoint"/>
                        <mxPoint x="429" y="785" as="targetPoint"/>
                    </mxGeometry>
                </mxCell>
                <mxCell id="fKlVgrNZjiq0pqBHKwR7-98" value="Step 4" style="text;html=1;align=center;verticalAlign=middle;whiteSpace=wrap;rounded=0;" parent="1" vertex="1">
                    <mxGeometry x="95" y="715" width="60" height="30" as="geometry"/>
                </mxCell>
                <mxCell id="fKlVgrNZjiq0pqBHKwR7-99" value="" style="endArrow=none;html=1;rounded=0;entryX=0.5;entryY=1;entryDx=0;entryDy=0;exitX=0;exitY=0.5;exitDx=0;exitDy=0;" parent="1" source="fKlVgrNZjiq0pqBHKwR7-93" target="fKlVgrNZjiq0pqBHKwR7-92" edge="1">
                    <mxGeometry width="50" height="50" relative="1" as="geometry">
                        <mxPoint x="460" y="740" as="sourcePoint"/>
                        <mxPoint x="510" y="690" as="targetPoint"/>
                    </mxGeometry>
                </mxCell>
                <mxCell id="fKlVgrNZjiq0pqBHKwR7-100" value="" style="endArrow=none;html=1;rounded=0;entryX=1;entryY=0.5;entryDx=0;entryDy=0;exitX=0.5;exitY=1;exitDx=0;exitDy=0;" parent="1" source="fKlVgrNZjiq0pqBHKwR7-92" target="fKlVgrNZjiq0pqBHKwR7-87" edge="1">
                    <mxGeometry width="50" height="50" relative="1" as="geometry">
                        <mxPoint x="630" y="815" as="sourcePoint"/>
                        <mxPoint x="579" y="795" as="targetPoint"/>
                    </mxGeometry>
                </mxCell>
                <mxCell id="fKlVgrNZjiq0pqBHKwR7-101" value="" style="endArrow=none;html=1;rounded=0;exitX=1;exitY=0.5;exitDx=0;exitDy=0;entryX=0.5;entryY=1;entryDx=0;entryDy=0;" parent="1" source="fKlVgrNZjiq0pqBHKwR7-90" target="fKlVgrNZjiq0pqBHKwR7-91" edge="1">
                    <mxGeometry width="50" height="50" relative="1" as="geometry">
                        <mxPoint x="461" y="780" as="sourcePoint"/>
                        <mxPoint x="511" y="730" as="targetPoint"/>
                    </mxGeometry>
                </mxCell>
                <mxCell id="fKlVgrNZjiq0pqBHKwR7-102" value="" style="endArrow=none;html=1;rounded=0;entryX=0;entryY=0.5;entryDx=0;entryDy=0;exitX=0.5;exitY=1;exitDx=0;exitDy=0;" parent="1" source="fKlVgrNZjiq0pqBHKwR7-91" target="fKlVgrNZjiq0pqBHKwR7-92" edge="1">
                    <mxGeometry width="50" height="50" relative="1" as="geometry">
                        <mxPoint x="461" y="780" as="sourcePoint"/>
                        <mxPoint x="511" y="730" as="targetPoint"/>
                    </mxGeometry>
                </mxCell>
                <mxCell id="fKlVgrNZjiq0pqBHKwR7-103" value="" style="endArrow=none;html=1;rounded=0;entryX=0.5;entryY=1;entryDx=0;entryDy=0;exitX=1;exitY=0.5;exitDx=0;exitDy=0;" parent="1" source="fKlVgrNZjiq0pqBHKwR7-91" target="fKlVgrNZjiq0pqBHKwR7-94" edge="1">
                    <mxGeometry width="50" height="50" relative="1" as="geometry">
                        <mxPoint x="460" y="850" as="sourcePoint"/>
                        <mxPoint x="510" y="800" as="targetPoint"/>
                    </mxGeometry>
                </mxCell>
                <mxCell id="fKlVgrNZjiq0pqBHKwR7-104" value="" style="endArrow=none;html=1;rounded=0;exitX=0.5;exitY=1;exitDx=0;exitDy=0;entryX=0;entryY=0.5;entryDx=0;entryDy=0;" parent="1" source="fKlVgrNZjiq0pqBHKwR7-94" target="fKlVgrNZjiq0pqBHKwR7-95" edge="1">
                    <mxGeometry width="50" height="50" relative="1" as="geometry">
                        <mxPoint x="460" y="850" as="sourcePoint"/>
                        <mxPoint x="510" y="800" as="targetPoint"/>
                    </mxGeometry>
                </mxCell>
                <mxCell id="fKlVgrNZjiq0pqBHKwR7-105" value="" style="rounded=1;whiteSpace=wrap;html=1;fillColor=#dae8fc;strokeColor=#6c8ebf;" parent="1" vertex="1">
                    <mxGeometry x="860" y="40" width="770" height="210" as="geometry"/>
                </mxCell>
                <mxCell id="fKlVgrNZjiq0pqBHKwR7-106" value="*" style="rounded=0;whiteSpace=wrap;html=1;" parent="1" vertex="1">
                    <mxGeometry x="1050" y="160" width="40" height="40" as="geometry"/>
                </mxCell>
                <mxCell id="fKlVgrNZjiq0pqBHKwR7-107" value="a" style="rounded=0;whiteSpace=wrap;html=1;direction=north;" parent="1" vertex="1">
                    <mxGeometry x="980" y="200" width="40" height="40" as="geometry"/>
                </mxCell>
                <mxCell id="fKlVgrNZjiq0pqBHKwR7-108" value="20" style="rounded=0;whiteSpace=wrap;html=1;" parent="1" vertex="1">
                    <mxGeometry x="1120" y="200" width="40" height="40" as="geometry"/>
                </mxCell>
                <mxCell id="fKlVgrNZjiq0pqBHKwR7-109" value="10" style="rounded=0;whiteSpace=wrap;html=1;" parent="1" vertex="1">
                    <mxGeometry x="1570" y="160" width="40" height="40" as="geometry"/>
                </mxCell>
                <mxCell id="fKlVgrNZjiq0pqBHKwR7-110" value="-" style="rounded=0;whiteSpace=wrap;html=1;" parent="1" vertex="1">
                    <mxGeometry x="1492" y="120" width="40" height="40" as="geometry"/>
                </mxCell>
                <mxCell id="fKlVgrNZjiq0pqBHKwR7-111" value="/" style="rounded=0;whiteSpace=wrap;html=1;" parent="1" vertex="1">
                    <mxGeometry x="1189" y="120" width="40" height="40" as="geometry"/>
                </mxCell>
                <mxCell id="fKlVgrNZjiq0pqBHKwR7-112" value="10" style="rounded=0;whiteSpace=wrap;html=1;" parent="1" vertex="1">
                    <mxGeometry x="1260" y="160" width="40" height="40" as="geometry"/>
                </mxCell>
                <mxCell id="fKlVgrNZjiq0pqBHKwR7-113" value="=" style="rounded=0;whiteSpace=wrap;html=1;" parent="1" vertex="1">
                    <mxGeometry x="1300" y="80" width="40" height="40" as="geometry"/>
                </mxCell>
                <mxCell id="fKlVgrNZjiq0pqBHKwR7-114" value="b" style="rounded=0;whiteSpace=wrap;html=1;" parent="1" vertex="1">
                    <mxGeometry x="1420" y="160" width="40" height="40" as="geometry"/>
                </mxCell>
                <mxCell id="fKlVgrNZjiq0pqBHKwR7-115" value="" style="endArrow=none;html=1;rounded=0;entryX=0.5;entryY=1;entryDx=0;entryDy=0;exitX=0.5;exitY=1;exitDx=0;exitDy=0;" parent="1" source="fKlVgrNZjiq0pqBHKwR7-107" target="fKlVgrNZjiq0pqBHKwR7-106" edge="1">
                    <mxGeometry width="50" height="50" relative="1" as="geometry">
                        <mxPoint x="1020" y="90" as="sourcePoint"/>
                        <mxPoint x="1070" y="40" as="targetPoint"/>
                    </mxGeometry>
                </mxCell>
                <mxCell id="fKlVgrNZjiq0pqBHKwR7-116" value="" style="endArrow=none;html=1;rounded=0;exitX=0;exitY=0.5;exitDx=0;exitDy=0;entryX=0.5;entryY=1;entryDx=0;entryDy=0;" parent="1" source="fKlVgrNZjiq0pqBHKwR7-108" target="fKlVgrNZjiq0pqBHKwR7-106" edge="1">
                    <mxGeometry width="50" height="50" relative="1" as="geometry">
                        <mxPoint x="1030" y="110" as="sourcePoint"/>
                        <mxPoint x="1070" y="80" as="targetPoint"/>
                    </mxGeometry>
                </mxCell>
                <mxCell id="fKlVgrNZjiq0pqBHKwR7-117" value="Step 5" style="text;html=1;align=center;verticalAlign=middle;whiteSpace=wrap;rounded=0;" parent="1" vertex="1">
                    <mxGeometry x="875" y="45" width="60" height="30" as="geometry"/>
                </mxCell>
                <mxCell id="fKlVgrNZjiq0pqBHKwR7-118" value="" style="endArrow=none;html=1;rounded=0;entryX=0.5;entryY=1;entryDx=0;entryDy=0;exitX=0;exitY=0.5;exitDx=0;exitDy=0;" parent="1" source="fKlVgrNZjiq0pqBHKwR7-112" target="fKlVgrNZjiq0pqBHKwR7-111" edge="1">
                    <mxGeometry width="50" height="50" relative="1" as="geometry">
                        <mxPoint x="1101" y="35" as="sourcePoint"/>
                        <mxPoint x="1151" y="-15" as="targetPoint"/>
                    </mxGeometry>
                </mxCell>
                <mxCell id="fKlVgrNZjiq0pqBHKwR7-119" value="" style="endArrow=none;html=1;rounded=0;entryX=1;entryY=0.5;entryDx=0;entryDy=0;exitX=0.5;exitY=1;exitDx=0;exitDy=0;" parent="1" source="fKlVgrNZjiq0pqBHKwR7-111" target="fKlVgrNZjiq0pqBHKwR7-106" edge="1">
                    <mxGeometry width="50" height="50" relative="1" as="geometry">
                        <mxPoint x="1271" y="110" as="sourcePoint"/>
                        <mxPoint x="1220" y="90" as="targetPoint"/>
                    </mxGeometry>
                </mxCell>
                <mxCell id="fKlVgrNZjiq0pqBHKwR7-124" value="" style="endArrow=none;html=1;rounded=0;entryX=0.5;entryY=1;entryDx=0;entryDy=0;exitX=0;exitY=0.5;exitDx=0;exitDy=0;" parent="1" source="fKlVgrNZjiq0pqBHKwR7-110" target="fKlVgrNZjiq0pqBHKwR7-113" edge="1">
                    <mxGeometry width="50" height="50" relative="1" as="geometry">
                        <mxPoint x="1420" y="240" as="sourcePoint"/>
                        <mxPoint x="1470" y="190" as="targetPoint"/>
                    </mxGeometry>
                </mxCell>
                <mxCell id="fKlVgrNZjiq0pqBHKwR7-125" value="" style="endArrow=none;html=1;rounded=0;entryX=0.5;entryY=1;entryDx=0;entryDy=0;exitX=0;exitY=0.5;exitDx=0;exitDy=0;" parent="1" source="fKlVgrNZjiq0pqBHKwR7-109" target="fKlVgrNZjiq0pqBHKwR7-110" edge="1">
                    <mxGeometry width="50" height="50" relative="1" as="geometry">
                        <mxPoint x="1420" y="240" as="sourcePoint"/>
                        <mxPoint x="1470" y="190" as="targetPoint"/>
                    </mxGeometry>
                </mxCell>
                <mxCell id="fKlVgrNZjiq0pqBHKwR7-126" value="" style="endArrow=none;html=1;rounded=0;entryX=0.5;entryY=1;entryDx=0;entryDy=0;exitX=1;exitY=0.5;exitDx=0;exitDy=0;" parent="1" source="fKlVgrNZjiq0pqBHKwR7-114" target="fKlVgrNZjiq0pqBHKwR7-110" edge="1">
                    <mxGeometry width="50" height="50" relative="1" as="geometry">
                        <mxPoint x="1420" y="240" as="sourcePoint"/>
                        <mxPoint x="1470" y="190" as="targetPoint"/>
                    </mxGeometry>
                </mxCell>
                <mxCell id="fKlVgrNZjiq0pqBHKwR7-127" value="" style="endArrow=none;html=1;rounded=0;exitX=1;exitY=0.5;exitDx=0;exitDy=0;" parent="1" source="fKlVgrNZjiq0pqBHKwR7-111" edge="1">
                    <mxGeometry width="50" height="50" relative="1" as="geometry">
                        <mxPoint x="1420" y="240" as="sourcePoint"/>
                        <mxPoint x="1320" y="120" as="targetPoint"/>
                    </mxGeometry>
                </mxCell>
                <mxCell id="fKlVgrNZjiq0pqBHKwR7-128" value="" style="rounded=1;whiteSpace=wrap;html=1;fillColor=#d5e8d4;strokeColor=#82b366;" parent="1" vertex="1">
                    <mxGeometry x="860" y="260" width="770" height="230" as="geometry"/>
                </mxCell>
                <mxCell id="fKlVgrNZjiq0pqBHKwR7-129" value="*" style="rounded=0;whiteSpace=wrap;html=1;" parent="1" vertex="1">
                    <mxGeometry x="1050" y="310" width="40" height="40" as="geometry"/>
                </mxCell>
                <mxCell id="fKlVgrNZjiq0pqBHKwR7-130" value="a" style="rounded=0;whiteSpace=wrap;html=1;direction=north;" parent="1" vertex="1">
                    <mxGeometry x="980" y="350" width="40" height="40" as="geometry"/>
                </mxCell>
                <mxCell id="fKlVgrNZjiq0pqBHKwR7-131" value="20" style="rounded=0;whiteSpace=wrap;html=1;" parent="1" vertex="1">
                    <mxGeometry x="1120" y="350" width="40" height="40" as="geometry"/>
                </mxCell>
                <mxCell id="fKlVgrNZjiq0pqBHKwR7-132" value="10" style="rounded=0;whiteSpace=wrap;html=1;" parent="1" vertex="1">
                    <mxGeometry x="1440" y="430" width="40" height="40" as="geometry"/>
                </mxCell>
                <mxCell id="fKlVgrNZjiq0pqBHKwR7-133" value="-" style="rounded=0;whiteSpace=wrap;html=1;" parent="1" vertex="1">
                    <mxGeometry x="1362" y="390" width="40" height="40" as="geometry"/>
                </mxCell>
                <mxCell id="fKlVgrNZjiq0pqBHKwR7-134" value="*" style="rounded=0;whiteSpace=wrap;html=1;" parent="1" vertex="1">
                    <mxGeometry x="1480" y="310" width="40" height="40" as="geometry"/>
                </mxCell>
                <mxCell id="fKlVgrNZjiq0pqBHKwR7-135" value="10" style="rounded=0;whiteSpace=wrap;html=1;" parent="1" vertex="1">
                    <mxGeometry x="1551" y="350" width="40" height="40" as="geometry"/>
                </mxCell>
                <mxCell id="fKlVgrNZjiq0pqBHKwR7-136" value="=" style="rounded=0;whiteSpace=wrap;html=1;" parent="1" vertex="1">
                    <mxGeometry x="1180" y="275" width="40" height="40" as="geometry"/>
                </mxCell>
                <mxCell id="fKlVgrNZjiq0pqBHKwR7-137" value="b" style="rounded=0;whiteSpace=wrap;html=1;" parent="1" vertex="1">
                    <mxGeometry x="1290" y="430" width="40" height="40" as="geometry"/>
                </mxCell>
                <mxCell id="fKlVgrNZjiq0pqBHKwR7-138" value="" style="endArrow=none;html=1;rounded=0;entryX=0.5;entryY=1;entryDx=0;entryDy=0;exitX=0.5;exitY=1;exitDx=0;exitDy=0;" parent="1" source="fKlVgrNZjiq0pqBHKwR7-130" target="fKlVgrNZjiq0pqBHKwR7-129" edge="1">
                    <mxGeometry width="50" height="50" relative="1" as="geometry">
                        <mxPoint x="1020" y="280" as="sourcePoint"/>
                        <mxPoint x="1070" y="230" as="targetPoint"/>
                    </mxGeometry>
                </mxCell>
                <mxCell id="fKlVgrNZjiq0pqBHKwR7-139" value="" style="endArrow=none;html=1;rounded=0;exitX=0;exitY=0.5;exitDx=0;exitDy=0;entryX=0.5;entryY=1;entryDx=0;entryDy=0;" parent="1" source="fKlVgrNZjiq0pqBHKwR7-131" target="fKlVgrNZjiq0pqBHKwR7-129" edge="1">
                    <mxGeometry width="50" height="50" relative="1" as="geometry">
                        <mxPoint x="1030" y="300" as="sourcePoint"/>
                        <mxPoint x="1070" y="270" as="targetPoint"/>
                    </mxGeometry>
                </mxCell>
                <mxCell id="fKlVgrNZjiq0pqBHKwR7-140" value="Step 6" style="text;html=1;align=center;verticalAlign=middle;whiteSpace=wrap;rounded=0;" parent="1" vertex="1">
                    <mxGeometry x="875" y="260" width="60" height="30" as="geometry"/>
                </mxCell>
                <mxCell id="fKlVgrNZjiq0pqBHKwR7-141" value="" style="endArrow=none;html=1;rounded=0;entryX=0.5;entryY=1;entryDx=0;entryDy=0;exitX=0;exitY=0.5;exitDx=0;exitDy=0;" parent="1" source="fKlVgrNZjiq0pqBHKwR7-135" target="fKlVgrNZjiq0pqBHKwR7-134" edge="1">
                    <mxGeometry width="50" height="50" relative="1" as="geometry">
                        <mxPoint x="1101" y="225" as="sourcePoint"/>
                        <mxPoint x="1151" y="175" as="targetPoint"/>
                    </mxGeometry>
                </mxCell>
                <mxCell id="fKlVgrNZjiq0pqBHKwR7-144" value="" style="endArrow=none;html=1;rounded=0;entryX=0.5;entryY=1;entryDx=0;entryDy=0;exitX=0;exitY=0.5;exitDx=0;exitDy=0;" parent="1" source="fKlVgrNZjiq0pqBHKwR7-132" target="fKlVgrNZjiq0pqBHKwR7-133" edge="1">
                    <mxGeometry width="50" height="50" relative="1" as="geometry">
                        <mxPoint x="1420" y="430" as="sourcePoint"/>
                        <mxPoint x="1470" y="380" as="targetPoint"/>
                    </mxGeometry>
                </mxCell>
                <mxCell id="fKlVgrNZjiq0pqBHKwR7-145" value="" style="endArrow=none;html=1;rounded=0;entryX=0.5;entryY=1;entryDx=0;entryDy=0;exitX=1;exitY=0.5;exitDx=0;exitDy=0;" parent="1" source="fKlVgrNZjiq0pqBHKwR7-137" target="fKlVgrNZjiq0pqBHKwR7-133" edge="1">
                    <mxGeometry width="50" height="50" relative="1" as="geometry">
                        <mxPoint x="1420" y="430" as="sourcePoint"/>
                        <mxPoint x="1470" y="380" as="targetPoint"/>
                    </mxGeometry>
                </mxCell>
                <mxCell id="fKlVgrNZjiq0pqBHKwR7-149" value="" style="endArrow=none;html=1;rounded=0;exitX=1;exitY=0.5;exitDx=0;exitDy=0;entryX=0.5;entryY=1;entryDx=0;entryDy=0;" parent="1" source="fKlVgrNZjiq0pqBHKwR7-129" target="fKlVgrNZjiq0pqBHKwR7-136" edge="1">
                    <mxGeometry width="50" height="50" relative="1" as="geometry">
                        <mxPoint x="1230" y="320" as="sourcePoint"/>
                        <mxPoint x="1280" y="270" as="targetPoint"/>
                    </mxGeometry>
                </mxCell>
                <mxCell id="fKlVgrNZjiq0pqBHKwR7-150" value="" style="endArrow=none;html=1;rounded=0;exitX=0.5;exitY=1;exitDx=0;exitDy=0;entryX=0;entryY=0.5;entryDx=0;entryDy=0;" parent="1" source="fKlVgrNZjiq0pqBHKwR7-136" target="fKlVgrNZjiq0pqBHKwR7-134" edge="1">
                    <mxGeometry width="50" height="50" relative="1" as="geometry">
                        <mxPoint x="1230" y="320" as="sourcePoint"/>
                        <mxPoint x="1280" y="270" as="targetPoint"/>
                    </mxGeometry>
                </mxCell>
                <mxCell id="fKlVgrNZjiq0pqBHKwR7-151" value="" style="endArrow=none;html=1;rounded=0;exitX=0.5;exitY=0;exitDx=0;exitDy=0;" parent="1" source="fKlVgrNZjiq0pqBHKwR7-133" edge="1">
                    <mxGeometry width="50" height="50" relative="1" as="geometry">
                        <mxPoint x="1170" y="340" as="sourcePoint"/>
                        <mxPoint x="1500" y="350" as="targetPoint"/>
                    </mxGeometry>
                </mxCell>
                <mxCell id="fKlVgrNZjiq0pqBHKwR7-152" value="" style="rounded=1;whiteSpace=wrap;html=1;fillColor=#ffe6cc;strokeColor=#d79b00;" parent="1" vertex="1">
                    <mxGeometry x="860" y="500" width="770" height="235" as="geometry"/>
                </mxCell>
                <mxCell id="fKlVgrNZjiq0pqBHKwR7-153" value="/" style="rounded=0;whiteSpace=wrap;html=1;" parent="1" vertex="1">
                    <mxGeometry x="1481" y="550" width="40" height="40" as="geometry"/>
                </mxCell>
                <mxCell id="fKlVgrNZjiq0pqBHKwR7-154" value="a" style="rounded=0;whiteSpace=wrap;html=1;direction=north;" parent="1" vertex="1">
                    <mxGeometry x="980" y="560" width="40" height="40" as="geometry"/>
                </mxCell>
                <mxCell id="fKlVgrNZjiq0pqBHKwR7-155" value="20" style="rounded=0;whiteSpace=wrap;html=1;" parent="1" vertex="1">
                    <mxGeometry x="1551" y="590" width="40" height="40" as="geometry"/>
                </mxCell>
                <mxCell id="fKlVgrNZjiq0pqBHKwR7-156" value="10" style="rounded=0;whiteSpace=wrap;html=1;" parent="1" vertex="1">
                    <mxGeometry x="1370" y="675" width="40" height="40" as="geometry"/>
                </mxCell>
                <mxCell id="fKlVgrNZjiq0pqBHKwR7-157" value="-" style="rounded=0;whiteSpace=wrap;html=1;" parent="1" vertex="1">
                    <mxGeometry x="1292" y="635" width="40" height="40" as="geometry"/>
                </mxCell>
                <mxCell id="fKlVgrNZjiq0pqBHKwR7-158" value="*" style="rounded=0;whiteSpace=wrap;html=1;" parent="1" vertex="1">
                    <mxGeometry x="1369" y="595" width="40" height="40" as="geometry"/>
                </mxCell>
                <mxCell id="fKlVgrNZjiq0pqBHKwR7-159" value="10" style="rounded=0;whiteSpace=wrap;html=1;" parent="1" vertex="1">
                    <mxGeometry x="1440" y="635" width="40" height="40" as="geometry"/>
                </mxCell>
                <mxCell id="fKlVgrNZjiq0pqBHKwR7-160" value="=" style="rounded=0;whiteSpace=wrap;html=1;" parent="1" vertex="1">
                    <mxGeometry x="1180" y="520" width="40" height="40" as="geometry"/>
                </mxCell>
                <mxCell id="fKlVgrNZjiq0pqBHKwR7-161" value="b" style="rounded=0;whiteSpace=wrap;html=1;" parent="1" vertex="1">
                    <mxGeometry x="1220" y="675" width="40" height="40" as="geometry"/>
                </mxCell>
                <mxCell id="fKlVgrNZjiq0pqBHKwR7-163" value="" style="endArrow=none;html=1;rounded=0;exitX=0;exitY=0.5;exitDx=0;exitDy=0;entryX=0.5;entryY=1;entryDx=0;entryDy=0;" parent="1" source="fKlVgrNZjiq0pqBHKwR7-155" target="fKlVgrNZjiq0pqBHKwR7-153" edge="1">
                    <mxGeometry width="50" height="50" relative="1" as="geometry">
                        <mxPoint x="1030" y="545" as="sourcePoint"/>
                        <mxPoint x="1070" y="515" as="targetPoint"/>
                    </mxGeometry>
                </mxCell>
                <mxCell id="fKlVgrNZjiq0pqBHKwR7-164" value="Step 7" style="text;html=1;align=center;verticalAlign=middle;whiteSpace=wrap;rounded=0;" parent="1" vertex="1">
                    <mxGeometry x="875" y="500" width="60" height="30" as="geometry"/>
                </mxCell>
                <mxCell id="fKlVgrNZjiq0pqBHKwR7-165" value="" style="endArrow=none;html=1;rounded=0;entryX=0.5;entryY=1;entryDx=0;entryDy=0;exitX=0;exitY=0.5;exitDx=0;exitDy=0;" parent="1" source="fKlVgrNZjiq0pqBHKwR7-159" target="fKlVgrNZjiq0pqBHKwR7-158" edge="1">
                    <mxGeometry width="50" height="50" relative="1" as="geometry">
                        <mxPoint x="1101" y="470" as="sourcePoint"/>
                        <mxPoint x="1151" y="420" as="targetPoint"/>
                    </mxGeometry>
                </mxCell>
                <mxCell id="fKlVgrNZjiq0pqBHKwR7-166" value="" style="endArrow=none;html=1;rounded=0;entryX=0.5;entryY=1;entryDx=0;entryDy=0;exitX=0;exitY=0.5;exitDx=0;exitDy=0;" parent="1" source="fKlVgrNZjiq0pqBHKwR7-156" target="fKlVgrNZjiq0pqBHKwR7-157" edge="1">
                    <mxGeometry width="50" height="50" relative="1" as="geometry">
                        <mxPoint x="1420" y="675" as="sourcePoint"/>
                        <mxPoint x="1470" y="625" as="targetPoint"/>
                    </mxGeometry>
                </mxCell>
                <mxCell id="fKlVgrNZjiq0pqBHKwR7-167" value="" style="endArrow=none;html=1;rounded=0;entryX=0.5;entryY=1;entryDx=0;entryDy=0;exitX=1;exitY=0.5;exitDx=0;exitDy=0;" parent="1" source="fKlVgrNZjiq0pqBHKwR7-161" target="fKlVgrNZjiq0pqBHKwR7-157" edge="1">
                    <mxGeometry width="50" height="50" relative="1" as="geometry">
                        <mxPoint x="1420" y="675" as="sourcePoint"/>
                        <mxPoint x="1470" y="625" as="targetPoint"/>
                    </mxGeometry>
                </mxCell>
                <mxCell id="fKlVgrNZjiq0pqBHKwR7-171" value="" style="endArrow=none;html=1;rounded=0;entryX=0.5;entryY=1;entryDx=0;entryDy=0;exitX=1;exitY=0.5;exitDx=0;exitDy=0;" parent="1" source="fKlVgrNZjiq0pqBHKwR7-157" target="fKlVgrNZjiq0pqBHKwR7-158" edge="1">
                    <mxGeometry width="50" height="50" relative="1" as="geometry">
                        <mxPoint x="1180" y="520" as="sourcePoint"/>
                        <mxPoint x="1230" y="470" as="targetPoint"/>
                    </mxGeometry>
                </mxCell>
                <mxCell id="fKlVgrNZjiq0pqBHKwR7-172" value="" style="endArrow=none;html=1;rounded=0;entryX=0.5;entryY=1;entryDx=0;entryDy=0;exitX=1;exitY=0.5;exitDx=0;exitDy=0;" parent="1" source="fKlVgrNZjiq0pqBHKwR7-158" target="fKlVgrNZjiq0pqBHKwR7-153" edge="1">
                    <mxGeometry width="50" height="50" relative="1" as="geometry">
                        <mxPoint x="1180" y="520" as="sourcePoint"/>
                        <mxPoint x="1230" y="470" as="targetPoint"/>
                    </mxGeometry>
                </mxCell>
                <mxCell id="fKlVgrNZjiq0pqBHKwR7-173" value="" style="endArrow=none;html=1;rounded=0;exitX=0.5;exitY=1;exitDx=0;exitDy=0;entryX=0;entryY=0.5;entryDx=0;entryDy=0;" parent="1" source="fKlVgrNZjiq0pqBHKwR7-160" target="fKlVgrNZjiq0pqBHKwR7-153" edge="1">
                    <mxGeometry width="50" height="50" relative="1" as="geometry">
                        <mxPoint x="1180" y="480" as="sourcePoint"/>
                        <mxPoint x="1230" y="430" as="targetPoint"/>
                    </mxGeometry>
                </mxCell>
                <mxCell id="fKlVgrNZjiq0pqBHKwR7-174" value="" style="endArrow=none;html=1;rounded=0;exitX=0.5;exitY=1;exitDx=0;exitDy=0;entryX=0.5;entryY=1;entryDx=0;entryDy=0;" parent="1" source="fKlVgrNZjiq0pqBHKwR7-154" target="fKlVgrNZjiq0pqBHKwR7-160" edge="1">
                    <mxGeometry width="50" height="50" relative="1" as="geometry">
                        <mxPoint x="1180" y="480" as="sourcePoint"/>
                        <mxPoint x="1230" y="430" as="targetPoint"/>
                    </mxGeometry>
                </mxCell>
                <mxCell id="fKlVgrNZjiq0pqBHKwR7-175" value="" style="rounded=1;whiteSpace=wrap;html=1;fillColor=#dae8fc;strokeColor=#6c8ebf;" parent="1" vertex="1">
                    <mxGeometry x="1680" y="45" width="770" height="205" as="geometry"/>
                </mxCell>
                <mxCell id="fKlVgrNZjiq0pqBHKwR7-176" value="/" style="rounded=0;whiteSpace=wrap;html=1;" parent="1" vertex="1">
                    <mxGeometry x="2306" y="75" width="40" height="40" as="geometry"/>
                </mxCell>
                <mxCell id="fKlVgrNZjiq0pqBHKwR7-177" value="a" style="rounded=0;whiteSpace=wrap;html=1;direction=north;" parent="1" vertex="1">
                    <mxGeometry x="1800" y="75" width="40" height="40" as="geometry"/>
                </mxCell>
                <mxCell id="fKlVgrNZjiq0pqBHKwR7-178" value="20" style="rounded=0;whiteSpace=wrap;html=1;" parent="1" vertex="1">
                    <mxGeometry x="2376" y="115" width="40" height="40" as="geometry"/>
                </mxCell>
                <mxCell id="fKlVgrNZjiq0pqBHKwR7-179" value="10" style="rounded=0;whiteSpace=wrap;html=1;" parent="1" vertex="1">
                    <mxGeometry x="2195" y="200" width="40" height="40" as="geometry"/>
                </mxCell>
                <mxCell id="fKlVgrNZjiq0pqBHKwR7-180" value="-" style="rounded=0;whiteSpace=wrap;html=1;" parent="1" vertex="1">
                    <mxGeometry x="2117" y="160" width="40" height="40" as="geometry"/>
                </mxCell>
                <mxCell id="fKlVgrNZjiq0pqBHKwR7-181" value="*" style="rounded=0;whiteSpace=wrap;html=1;" parent="1" vertex="1">
                    <mxGeometry x="2194" y="120" width="40" height="40" as="geometry"/>
                </mxCell>
                <mxCell id="fKlVgrNZjiq0pqBHKwR7-182" value="10" style="rounded=0;whiteSpace=wrap;html=1;" parent="1" vertex="1">
                    <mxGeometry x="2265" y="160" width="40" height="40" as="geometry"/>
                </mxCell>
                <mxCell id="fKlVgrNZjiq0pqBHKwR7-183" value="=" style="rounded=0;whiteSpace=wrap;html=1;" parent="1" vertex="1">
                    <mxGeometry x="1865" y="75" width="40" height="40" as="geometry"/>
                </mxCell>
                <mxCell id="fKlVgrNZjiq0pqBHKwR7-184" value="b" style="rounded=0;whiteSpace=wrap;html=1;" parent="1" vertex="1">
                    <mxGeometry x="2045" y="200" width="40" height="40" as="geometry"/>
                </mxCell>
                <mxCell id="fKlVgrNZjiq0pqBHKwR7-185" value="" style="endArrow=none;html=1;rounded=0;exitX=0;exitY=0.5;exitDx=0;exitDy=0;entryX=0.5;entryY=1;entryDx=0;entryDy=0;" parent="1" source="fKlVgrNZjiq0pqBHKwR7-178" target="fKlVgrNZjiq0pqBHKwR7-176" edge="1">
                    <mxGeometry width="50" height="50" relative="1" as="geometry">
                        <mxPoint x="1850" y="90" as="sourcePoint"/>
                        <mxPoint x="1890" y="60" as="targetPoint"/>
                    </mxGeometry>
                </mxCell>
                <mxCell id="fKlVgrNZjiq0pqBHKwR7-186" value="Step 8" style="text;html=1;align=center;verticalAlign=middle;whiteSpace=wrap;rounded=0;" parent="1" vertex="1">
                    <mxGeometry x="1695" y="45" width="60" height="30" as="geometry"/>
                </mxCell>
                <mxCell id="fKlVgrNZjiq0pqBHKwR7-187" value="" style="endArrow=none;html=1;rounded=0;entryX=0.5;entryY=1;entryDx=0;entryDy=0;exitX=0;exitY=0.5;exitDx=0;exitDy=0;" parent="1" source="fKlVgrNZjiq0pqBHKwR7-182" target="fKlVgrNZjiq0pqBHKwR7-181" edge="1">
                    <mxGeometry width="50" height="50" relative="1" as="geometry">
                        <mxPoint x="1921" y="15" as="sourcePoint"/>
                        <mxPoint x="1971" y="-35" as="targetPoint"/>
                    </mxGeometry>
                </mxCell>
                <mxCell id="fKlVgrNZjiq0pqBHKwR7-188" value="" style="endArrow=none;html=1;rounded=0;entryX=0.5;entryY=1;entryDx=0;entryDy=0;exitX=0;exitY=0.5;exitDx=0;exitDy=0;" parent="1" source="fKlVgrNZjiq0pqBHKwR7-179" target="fKlVgrNZjiq0pqBHKwR7-180" edge="1">
                    <mxGeometry width="50" height="50" relative="1" as="geometry">
                        <mxPoint x="2240" y="220" as="sourcePoint"/>
                        <mxPoint x="2290" y="170" as="targetPoint"/>
                    </mxGeometry>
                </mxCell>
                <mxCell id="fKlVgrNZjiq0pqBHKwR7-189" value="" style="endArrow=none;html=1;rounded=0;entryX=0.5;entryY=1;entryDx=0;entryDy=0;exitX=1;exitY=0.5;exitDx=0;exitDy=0;" parent="1" source="fKlVgrNZjiq0pqBHKwR7-184" target="fKlVgrNZjiq0pqBHKwR7-180" edge="1">
                    <mxGeometry width="50" height="50" relative="1" as="geometry">
                        <mxPoint x="2240" y="220" as="sourcePoint"/>
                        <mxPoint x="2290" y="170" as="targetPoint"/>
                    </mxGeometry>
                </mxCell>
                <mxCell id="fKlVgrNZjiq0pqBHKwR7-190" value="" style="endArrow=none;html=1;rounded=0;entryX=0.5;entryY=1;entryDx=0;entryDy=0;exitX=1;exitY=0.5;exitDx=0;exitDy=0;" parent="1" source="fKlVgrNZjiq0pqBHKwR7-180" target="fKlVgrNZjiq0pqBHKwR7-181" edge="1">
                    <mxGeometry width="50" height="50" relative="1" as="geometry">
                        <mxPoint x="2000" y="65" as="sourcePoint"/>
                        <mxPoint x="2050" y="15" as="targetPoint"/>
                    </mxGeometry>
                </mxCell>
                <mxCell id="fKlVgrNZjiq0pqBHKwR7-191" value="" style="endArrow=none;html=1;rounded=0;entryX=0.5;entryY=1;entryDx=0;entryDy=0;exitX=1;exitY=0.5;exitDx=0;exitDy=0;" parent="1" source="fKlVgrNZjiq0pqBHKwR7-181" target="fKlVgrNZjiq0pqBHKwR7-176" edge="1">
                    <mxGeometry width="50" height="50" relative="1" as="geometry">
                        <mxPoint x="2000" y="65" as="sourcePoint"/>
                        <mxPoint x="2050" y="15" as="targetPoint"/>
                    </mxGeometry>
                </mxCell>
                <mxCell id="fKlVgrNZjiq0pqBHKwR7-194" value="" style="rounded=1;whiteSpace=wrap;html=1;fillColor=#d5e8d4;strokeColor=#82b366;" parent="1" vertex="1">
                    <mxGeometry x="1680" y="260" width="770" height="160" as="geometry"/>
                </mxCell>
                <mxCell id="fKlVgrNZjiq0pqBHKwR7-195" value="/" style="rounded=0;whiteSpace=wrap;html=1;" parent="1" vertex="1">
                    <mxGeometry x="2317" y="290" width="40" height="40" as="geometry"/>
                </mxCell>
                <mxCell id="fKlVgrNZjiq0pqBHKwR7-196" value="a" style="rounded=0;whiteSpace=wrap;html=1;direction=north;" parent="1" vertex="1">
                    <mxGeometry x="1800" y="290" width="40" height="40" as="geometry"/>
                </mxCell>
                <mxCell id="fKlVgrNZjiq0pqBHKwR7-197" value="20" style="rounded=0;whiteSpace=wrap;html=1;" parent="1" vertex="1">
                    <mxGeometry x="2376" y="290" width="40" height="40" as="geometry"/>
                </mxCell>
                <mxCell id="fKlVgrNZjiq0pqBHKwR7-198" value="10" style="rounded=0;whiteSpace=wrap;html=1;" parent="1" vertex="1">
                    <mxGeometry x="2125" y="370" width="40" height="40" as="geometry"/>
                </mxCell>
                <mxCell id="fKlVgrNZjiq0pqBHKwR7-199" value="-" style="rounded=0;whiteSpace=wrap;html=1;" parent="1" vertex="1">
                    <mxGeometry x="2047" y="330" width="40" height="40" as="geometry"/>
                </mxCell>
                <mxCell id="fKlVgrNZjiq0pqBHKwR7-200" value="*" style="rounded=0;whiteSpace=wrap;html=1;" parent="1" vertex="1">
                    <mxGeometry x="2124" y="290" width="40" height="40" as="geometry"/>
                </mxCell>
                <mxCell id="fKlVgrNZjiq0pqBHKwR7-201" value="10" style="rounded=0;whiteSpace=wrap;html=1;" parent="1" vertex="1">
                    <mxGeometry x="2195" y="330" width="40" height="40" as="geometry"/>
                </mxCell>
                <mxCell id="fKlVgrNZjiq0pqBHKwR7-202" value="=" style="rounded=0;whiteSpace=wrap;html=1;" parent="1" vertex="1">
                    <mxGeometry x="1865" y="290" width="40" height="40" as="geometry"/>
                </mxCell>
                <mxCell id="fKlVgrNZjiq0pqBHKwR7-203" value="b" style="rounded=0;whiteSpace=wrap;html=1;" parent="1" vertex="1">
                    <mxGeometry x="1975" y="370" width="40" height="40" as="geometry"/>
                </mxCell>
                <mxCell id="fKlVgrNZjiq0pqBHKwR7-205" value="Step 9" style="text;html=1;align=center;verticalAlign=middle;whiteSpace=wrap;rounded=0;" parent="1" vertex="1">
                    <mxGeometry x="1695" y="260" width="60" height="30" as="geometry"/>
                </mxCell>
                <mxCell id="fKlVgrNZjiq0pqBHKwR7-206" value="" style="endArrow=none;html=1;rounded=0;entryX=0.5;entryY=1;entryDx=0;entryDy=0;exitX=0;exitY=0.5;exitDx=0;exitDy=0;" parent="1" source="fKlVgrNZjiq0pqBHKwR7-201" target="fKlVgrNZjiq0pqBHKwR7-200" edge="1">
                    <mxGeometry width="50" height="50" relative="1" as="geometry">
                        <mxPoint x="1921" y="230" as="sourcePoint"/>
                        <mxPoint x="1971" y="180" as="targetPoint"/>
                    </mxGeometry>
                </mxCell>
                <mxCell id="fKlVgrNZjiq0pqBHKwR7-207" value="" style="endArrow=none;html=1;rounded=0;entryX=0.5;entryY=1;entryDx=0;entryDy=0;exitX=0;exitY=0.5;exitDx=0;exitDy=0;" parent="1" source="fKlVgrNZjiq0pqBHKwR7-198" target="fKlVgrNZjiq0pqBHKwR7-199" edge="1">
                    <mxGeometry width="50" height="50" relative="1" as="geometry">
                        <mxPoint x="2240" y="435" as="sourcePoint"/>
                        <mxPoint x="2290" y="385" as="targetPoint"/>
                    </mxGeometry>
                </mxCell>
                <mxCell id="fKlVgrNZjiq0pqBHKwR7-208" value="" style="endArrow=none;html=1;rounded=0;entryX=0.5;entryY=1;entryDx=0;entryDy=0;exitX=1;exitY=0.5;exitDx=0;exitDy=0;" parent="1" source="fKlVgrNZjiq0pqBHKwR7-203" target="fKlVgrNZjiq0pqBHKwR7-199" edge="1">
                    <mxGeometry width="50" height="50" relative="1" as="geometry">
                        <mxPoint x="2240" y="435" as="sourcePoint"/>
                        <mxPoint x="2290" y="385" as="targetPoint"/>
                    </mxGeometry>
                </mxCell>
                <mxCell id="fKlVgrNZjiq0pqBHKwR7-209" value="" style="endArrow=none;html=1;rounded=0;entryX=0.5;entryY=1;entryDx=0;entryDy=0;exitX=1;exitY=0.5;exitDx=0;exitDy=0;" parent="1" source="fKlVgrNZjiq0pqBHKwR7-199" target="fKlVgrNZjiq0pqBHKwR7-200" edge="1">
                    <mxGeometry width="50" height="50" relative="1" as="geometry">
                        <mxPoint x="2000" y="280" as="sourcePoint"/>
                        <mxPoint x="2050" y="230" as="targetPoint"/>
                    </mxGeometry>
                </mxCell>
                <mxCell id="fKlVgrNZjiq0pqBHKwR7-211" value="" style="rounded=1;whiteSpace=wrap;html=1;fillColor=#ffe6cc;strokeColor=#d79b00;" parent="1" vertex="1">
                    <mxGeometry x="1680" y="430" width="770" height="120" as="geometry"/>
                </mxCell>
                <mxCell id="fKlVgrNZjiq0pqBHKwR7-212" value="/" style="rounded=0;whiteSpace=wrap;html=1;" parent="1" vertex="1">
                    <mxGeometry x="2317" y="460" width="40" height="40" as="geometry"/>
                </mxCell>
                <mxCell id="fKlVgrNZjiq0pqBHKwR7-213" value="a" style="rounded=0;whiteSpace=wrap;html=1;direction=north;" parent="1" vertex="1">
                    <mxGeometry x="1800" y="460" width="40" height="40" as="geometry"/>
                </mxCell>
                <mxCell id="fKlVgrNZjiq0pqBHKwR7-214" value="20" style="rounded=0;whiteSpace=wrap;html=1;" parent="1" vertex="1">
                    <mxGeometry x="2376" y="460" width="40" height="40" as="geometry"/>
                </mxCell>
                <mxCell id="fKlVgrNZjiq0pqBHKwR7-215" value="10" style="rounded=0;whiteSpace=wrap;html=1;" parent="1" vertex="1">
                    <mxGeometry x="2125" y="500" width="40" height="40" as="geometry"/>
                </mxCell>
                <mxCell id="fKlVgrNZjiq0pqBHKwR7-216" value="-" style="rounded=0;whiteSpace=wrap;html=1;" parent="1" vertex="1">
                    <mxGeometry x="2047" y="460" width="40" height="40" as="geometry"/>
                </mxCell>
                <mxCell id="fKlVgrNZjiq0pqBHKwR7-217" value="*" style="rounded=0;whiteSpace=wrap;html=1;" parent="1" vertex="1">
                    <mxGeometry x="2195" y="460" width="40" height="40" as="geometry"/>
                </mxCell>
                <mxCell id="fKlVgrNZjiq0pqBHKwR7-218" value="10" style="rounded=0;whiteSpace=wrap;html=1;" parent="1" vertex="1">
                    <mxGeometry x="2255" y="460" width="40" height="40" as="geometry"/>
                </mxCell>
                <mxCell id="fKlVgrNZjiq0pqBHKwR7-219" value="=" style="rounded=0;whiteSpace=wrap;html=1;" parent="1" vertex="1">
                    <mxGeometry x="1865" y="460" width="40" height="40" as="geometry"/>
                </mxCell>
                <mxCell id="fKlVgrNZjiq0pqBHKwR7-220" value="b" style="rounded=0;whiteSpace=wrap;html=1;" parent="1" vertex="1">
                    <mxGeometry x="1975" y="500" width="40" height="40" as="geometry"/>
                </mxCell>
                <mxCell id="fKlVgrNZjiq0pqBHKwR7-221" value="Step 9" style="text;html=1;align=center;verticalAlign=middle;whiteSpace=wrap;rounded=0;" parent="1" vertex="1">
                    <mxGeometry x="1695" y="430" width="60" height="30" as="geometry"/>
                </mxCell>
                <mxCell id="fKlVgrNZjiq0pqBHKwR7-223" value="" style="endArrow=none;html=1;rounded=0;entryX=0.5;entryY=1;entryDx=0;entryDy=0;exitX=0;exitY=0.5;exitDx=0;exitDy=0;" parent="1" source="fKlVgrNZjiq0pqBHKwR7-215" target="fKlVgrNZjiq0pqBHKwR7-216" edge="1">
                    <mxGeometry width="50" height="50" relative="1" as="geometry">
                        <mxPoint x="2240" y="605" as="sourcePoint"/>
                        <mxPoint x="2290" y="555" as="targetPoint"/>
                    </mxGeometry>
                </mxCell>
                <mxCell id="fKlVgrNZjiq0pqBHKwR7-224" value="" style="endArrow=none;html=1;rounded=0;entryX=0.5;entryY=1;entryDx=0;entryDy=0;exitX=1;exitY=0.5;exitDx=0;exitDy=0;" parent="1" source="fKlVgrNZjiq0pqBHKwR7-220" target="fKlVgrNZjiq0pqBHKwR7-216" edge="1">
                    <mxGeometry width="50" height="50" relative="1" as="geometry">
                        <mxPoint x="2240" y="605" as="sourcePoint"/>
                        <mxPoint x="2290" y="555" as="targetPoint"/>
                    </mxGeometry>
                </mxCell>
                <mxCell id="fKlVgrNZjiq0pqBHKwR7-227" value="/" style="rounded=0;whiteSpace=wrap;html=1;" parent="1" vertex="1">
                    <mxGeometry x="2317" y="595" width="40" height="40" as="geometry"/>
                </mxCell>
                <mxCell id="fKlVgrNZjiq0pqBHKwR7-228" value="a" style="rounded=0;whiteSpace=wrap;html=1;direction=north;" parent="1" vertex="1">
                    <mxGeometry x="1802" y="595" width="40" height="40" as="geometry"/>
                </mxCell>
                <mxCell id="fKlVgrNZjiq0pqBHKwR7-229" value="20" style="rounded=0;whiteSpace=wrap;html=1;" parent="1" vertex="1">
                    <mxGeometry x="2378" y="595" width="40" height="40" as="geometry"/>
                </mxCell>
                <mxCell id="fKlVgrNZjiq0pqBHKwR7-230" value="10" style="rounded=0;whiteSpace=wrap;html=1;" parent="1" vertex="1">
                    <mxGeometry x="2109" y="595" width="40" height="40" as="geometry"/>
                </mxCell>
                <mxCell id="fKlVgrNZjiq0pqBHKwR7-231" value="-" style="rounded=0;whiteSpace=wrap;html=1;" parent="1" vertex="1">
                    <mxGeometry x="2034" y="595" width="40" height="40" as="geometry"/>
                </mxCell>
                <mxCell id="fKlVgrNZjiq0pqBHKwR7-232" value="*" style="rounded=0;whiteSpace=wrap;html=1;" parent="1" vertex="1">
                    <mxGeometry x="2195" y="595" width="40" height="40" as="geometry"/>
                </mxCell>
                <mxCell id="fKlVgrNZjiq0pqBHKwR7-233" value="10" style="rounded=0;whiteSpace=wrap;html=1;" parent="1" vertex="1">
                    <mxGeometry x="2255" y="595" width="40" height="40" as="geometry"/>
                </mxCell>
                <mxCell id="fKlVgrNZjiq0pqBHKwR7-234" value="=" style="rounded=0;whiteSpace=wrap;html=1;" parent="1" vertex="1">
                    <mxGeometry x="1867" y="595" width="40" height="40" as="geometry"/>
                </mxCell>
                <mxCell id="fKlVgrNZjiq0pqBHKwR7-235" value="b" style="rounded=0;whiteSpace=wrap;html=1;" parent="1" vertex="1">
                    <mxGeometry x="1960" y="595" width="40" height="40" as="geometry"/>
                </mxCell>
                <mxCell id="fKlVgrNZjiq0pqBHKwR7-236" value="Step 10" style="text;html=1;align=center;verticalAlign=middle;whiteSpace=wrap;rounded=0;" parent="1" vertex="1">
                    <mxGeometry x="1697" y="565" width="60" height="30" as="geometry"/>
                </mxCell>
                <mxCell id="fKlVgrNZjiq0pqBHKwR7-242" value="a = (b-10)*10/20" style="text;html=1;align=center;verticalAlign=middle;whiteSpace=wrap;rounded=0;" parent="1" vertex="1">
                    <mxGeometry x="1680" y="605" width="110" height="30" as="geometry"/>
                </mxCell>
            </root>
        </mxGraphModel>
    </diagram>
    <diagram id="85mWzCHSXOSfNd4-LKXd" name="Page-2">
        <mxGraphModel dx="1452" dy="971" grid="1" gridSize="10" guides="1" tooltips="1" connect="1" arrows="1" fold="1" page="1" pageScale="1" pageWidth="1600" pageHeight="900" math="0" shadow="0">
            <root>
                <mxCell id="0"/>
                <mxCell id="1" parent="0"/>
                <mxCell id="RvcMw5SJJLIQrIcZ6TGj-1" value="" style="rounded=1;whiteSpace=wrap;html=1;fillColor=#dae8fc;strokeColor=#6c8ebf;" parent="1" vertex="1">
                    <mxGeometry x="10" y="10" width="630" height="100" as="geometry"/>
                </mxCell>
                <mxCell id="RvcMw5SJJLIQrIcZ6TGj-2" value="cos a * b = cos(a) * b" style="text;html=1;strokeColor=none;fillColor=none;align=center;verticalAlign=middle;whiteSpace=wrap;rounded=0;" parent="1" vertex="1">
                    <mxGeometry x="10" y="50" width="120" height="20" as="geometry"/>
                </mxCell>
                <mxCell id="RvcMw5SJJLIQrIcZ6TGj-3" value="f" style="rounded=0;whiteSpace=wrap;html=1;" parent="1" vertex="1">
                    <mxGeometry x="130" y="40" width="40" height="40" as="geometry"/>
                </mxCell>
                <mxCell id="RvcMw5SJJLIQrIcZ6TGj-4" value="a" style="rounded=0;whiteSpace=wrap;html=1;" parent="1" vertex="1">
                    <mxGeometry x="180" y="40" width="40" height="40" as="geometry"/>
                </mxCell>
                <mxCell id="RvcMw5SJJLIQrIcZ6TGj-5" value="*" style="rounded=0;whiteSpace=wrap;html=1;" parent="1" vertex="1">
                    <mxGeometry x="230" y="40" width="40" height="40" as="geometry"/>
                </mxCell>
                <mxCell id="RvcMw5SJJLIQrIcZ6TGj-6" value="b" style="rounded=0;whiteSpace=wrap;html=1;" parent="1" vertex="1">
                    <mxGeometry x="280" y="40" width="40" height="40" as="geometry"/>
                </mxCell>
                <mxCell id="RvcMw5SJJLIQrIcZ6TGj-7" value="=" style="rounded=0;whiteSpace=wrap;html=1;" parent="1" vertex="1">
                    <mxGeometry x="330" y="40" width="40" height="40" as="geometry"/>
                </mxCell>
                <mxCell id="RvcMw5SJJLIQrIcZ6TGj-8" value="g" style="rounded=0;whiteSpace=wrap;html=1;" parent="1" vertex="1">
                    <mxGeometry x="380" y="40" width="40" height="40" as="geometry"/>
                </mxCell>
                <mxCell id="KCTM9Wp7UzQOaeIFfcYl-3" value="" style="rounded=0;whiteSpace=wrap;html=1;fillColor=#f5f5f5;fontColor=#333333;strokeColor=#666666;" parent="1" vertex="1">
                    <mxGeometry x="430" y="30" width="160" height="60" as="geometry"/>
                </mxCell>
                <mxCell id="KCTM9Wp7UzQOaeIFfcYl-4" value="a" style="rounded=0;whiteSpace=wrap;html=1;" parent="1" vertex="1">
                    <mxGeometry x="440" y="40" width="40" height="40" as="geometry"/>
                </mxCell>
                <mxCell id="KCTM9Wp7UzQOaeIFfcYl-7" value="" style="rounded=1;whiteSpace=wrap;html=1;fillColor=#d5e8d4;strokeColor=#82b366;" parent="1" vertex="1">
                    <mxGeometry x="10" y="110" width="630" height="140" as="geometry"/>
                </mxCell>
                <mxCell id="KCTM9Wp7UzQOaeIFfcYl-8" value="f" style="rounded=0;whiteSpace=wrap;html=1;" parent="1" vertex="1">
                    <mxGeometry x="130" y="130" width="40" height="40" as="geometry"/>
                </mxCell>
                <mxCell id="KCTM9Wp7UzQOaeIFfcYl-9" value="a" style="rounded=0;whiteSpace=wrap;html=1;" parent="1" vertex="1">
                    <mxGeometry x="160" y="160" width="40" height="40" as="geometry"/>
                </mxCell>
                <mxCell id="KCTM9Wp7UzQOaeIFfcYl-10" value="*" style="rounded=0;whiteSpace=wrap;html=1;" parent="1" vertex="1">
                    <mxGeometry x="230" y="130" width="40" height="40" as="geometry"/>
                </mxCell>
                <mxCell id="KCTM9Wp7UzQOaeIFfcYl-11" value="b" style="rounded=0;whiteSpace=wrap;html=1;" parent="1" vertex="1">
                    <mxGeometry x="280" y="130" width="40" height="40" as="geometry"/>
                </mxCell>
                <mxCell id="KCTM9Wp7UzQOaeIFfcYl-12" value="=" style="rounded=0;whiteSpace=wrap;html=1;" parent="1" vertex="1">
                    <mxGeometry x="330" y="130" width="40" height="40" as="geometry"/>
                </mxCell>
                <mxCell id="KCTM9Wp7UzQOaeIFfcYl-13" value="g" style="rounded=0;whiteSpace=wrap;html=1;" parent="1" vertex="1">
                    <mxGeometry x="380" y="130" width="40" height="40" as="geometry"/>
                </mxCell>
                <mxCell id="KCTM9Wp7UzQOaeIFfcYl-19" value="*" style="rounded=0;whiteSpace=wrap;html=1;" parent="1" vertex="1">
                    <mxGeometry x="490" y="40" width="40" height="40" as="geometry"/>
                </mxCell>
                <mxCell id="KCTM9Wp7UzQOaeIFfcYl-20" value="b" style="rounded=0;whiteSpace=wrap;html=1;" parent="1" vertex="1">
                    <mxGeometry x="540" y="40" width="40" height="40" as="geometry"/>
                </mxCell>
                <mxCell id="KCTM9Wp7UzQOaeIFfcYl-22" value="a" style="rounded=0;whiteSpace=wrap;html=1;" parent="1" vertex="1">
                    <mxGeometry x="360" y="200" width="40" height="40" as="geometry"/>
                </mxCell>
                <mxCell id="KCTM9Wp7UzQOaeIFfcYl-23" value="*" style="rounded=0;whiteSpace=wrap;html=1;" parent="1" vertex="1">
                    <mxGeometry x="410" y="160" width="40" height="40" as="geometry"/>
                </mxCell>
                <mxCell id="KCTM9Wp7UzQOaeIFfcYl-24" value="b" style="rounded=0;whiteSpace=wrap;html=1;" parent="1" vertex="1">
                    <mxGeometry x="460" y="200" width="40" height="40" as="geometry"/>
                </mxCell>
                <mxCell id="KCTM9Wp7UzQOaeIFfcYl-25" value="" style="rounded=1;whiteSpace=wrap;html=1;fillColor=#ffe6cc;strokeColor=#d79b00;" parent="1" vertex="1">
                    <mxGeometry x="10" y="250" width="630" height="130" as="geometry"/>
                </mxCell>
                <mxCell id="KCTM9Wp7UzQOaeIFfcYl-26" value="f" style="rounded=0;whiteSpace=wrap;html=1;" parent="1" vertex="1">
                    <mxGeometry x="130" y="300" width="40" height="40" as="geometry"/>
                </mxCell>
                <mxCell id="KCTM9Wp7UzQOaeIFfcYl-27" value="a" style="rounded=0;whiteSpace=wrap;html=1;" parent="1" vertex="1">
                    <mxGeometry x="160" y="330" width="40" height="40" as="geometry"/>
                </mxCell>
                <mxCell id="KCTM9Wp7UzQOaeIFfcYl-28" value="*" style="rounded=0;whiteSpace=wrap;html=1;" parent="1" vertex="1">
                    <mxGeometry x="230" y="260" width="40" height="40" as="geometry"/>
                </mxCell>
                <mxCell id="KCTM9Wp7UzQOaeIFfcYl-29" value="b" style="rounded=0;whiteSpace=wrap;html=1;" parent="1" vertex="1">
                    <mxGeometry x="280" y="300" width="40" height="40" as="geometry"/>
                </mxCell>
                <mxCell id="KCTM9Wp7UzQOaeIFfcYl-30" value="=" style="rounded=0;whiteSpace=wrap;html=1;" parent="1" vertex="1">
                    <mxGeometry x="330" y="260" width="40" height="40" as="geometry"/>
                </mxCell>
                <mxCell id="KCTM9Wp7UzQOaeIFfcYl-31" value="g" style="rounded=0;whiteSpace=wrap;html=1;" parent="1" vertex="1">
                    <mxGeometry x="380" y="260" width="40" height="40" as="geometry"/>
                </mxCell>
                <mxCell id="KCTM9Wp7UzQOaeIFfcYl-36" value="" style="endArrow=none;html=1;entryX=0.5;entryY=1;entryDx=0;entryDy=0;exitX=1;exitY=0.5;exitDx=0;exitDy=0;" parent="1" source="KCTM9Wp7UzQOaeIFfcYl-26" target="KCTM9Wp7UzQOaeIFfcYl-28" edge="1">
                    <mxGeometry width="50" height="50" relative="1" as="geometry">
                        <mxPoint x="420" y="290" as="sourcePoint"/>
                        <mxPoint x="470" y="240" as="targetPoint"/>
                    </mxGeometry>
                </mxCell>
                <mxCell id="KCTM9Wp7UzQOaeIFfcYl-38" value="" style="endArrow=none;html=1;entryX=0.5;entryY=1;entryDx=0;entryDy=0;exitX=0;exitY=0.5;exitDx=0;exitDy=0;" parent="1" source="KCTM9Wp7UzQOaeIFfcYl-29" target="KCTM9Wp7UzQOaeIFfcYl-28" edge="1">
                    <mxGeometry width="50" height="50" relative="1" as="geometry">
                        <mxPoint x="225" y="410" as="sourcePoint"/>
                        <mxPoint x="275" y="360" as="targetPoint"/>
                    </mxGeometry>
                </mxCell>
                <mxCell id="KCTM9Wp7UzQOaeIFfcYl-39" value="" style="rounded=1;whiteSpace=wrap;html=1;fillColor=#fff2cc;strokeColor=#d6b656;" parent="1" vertex="1">
                    <mxGeometry x="10" y="380" width="630" height="170" as="geometry"/>
                </mxCell>
                <mxCell id="KCTM9Wp7UzQOaeIFfcYl-40" value="f" style="rounded=0;whiteSpace=wrap;html=1;" parent="1" vertex="1">
                    <mxGeometry x="130" y="470" width="40" height="40" as="geometry"/>
                </mxCell>
                <mxCell id="KCTM9Wp7UzQOaeIFfcYl-41" value="a" style="rounded=0;whiteSpace=wrap;html=1;" parent="1" vertex="1">
                    <mxGeometry x="160" y="500" width="40" height="40" as="geometry"/>
                </mxCell>
                <mxCell id="KCTM9Wp7UzQOaeIFfcYl-42" value="*" style="rounded=0;whiteSpace=wrap;html=1;" parent="1" vertex="1">
                    <mxGeometry x="230" y="430" width="40" height="40" as="geometry"/>
                </mxCell>
                <mxCell id="KCTM9Wp7UzQOaeIFfcYl-43" value="b" style="rounded=0;whiteSpace=wrap;html=1;" parent="1" vertex="1">
                    <mxGeometry x="280" y="470" width="40" height="40" as="geometry"/>
                </mxCell>
                <mxCell id="KCTM9Wp7UzQOaeIFfcYl-44" value="=" style="rounded=0;whiteSpace=wrap;html=1;" parent="1" vertex="1">
                    <mxGeometry x="330" y="390" width="40" height="40" as="geometry"/>
                </mxCell>
                <mxCell id="KCTM9Wp7UzQOaeIFfcYl-45" value="g" style="rounded=0;whiteSpace=wrap;html=1;" parent="1" vertex="1">
                    <mxGeometry x="380" y="430" width="40" height="40" as="geometry"/>
                </mxCell>
                <mxCell id="KCTM9Wp7UzQOaeIFfcYl-50" value="" style="endArrow=none;html=1;entryX=0.5;entryY=1;entryDx=0;entryDy=0;exitX=1;exitY=0.5;exitDx=0;exitDy=0;" parent="1" source="KCTM9Wp7UzQOaeIFfcYl-40" target="KCTM9Wp7UzQOaeIFfcYl-42" edge="1">
                    <mxGeometry width="50" height="50" relative="1" as="geometry">
                        <mxPoint x="420" y="420" as="sourcePoint"/>
                        <mxPoint x="470" y="370" as="targetPoint"/>
                    </mxGeometry>
                </mxCell>
                <mxCell id="KCTM9Wp7UzQOaeIFfcYl-51" value="" style="endArrow=none;html=1;entryX=0.5;entryY=1;entryDx=0;entryDy=0;exitX=0;exitY=0.5;exitDx=0;exitDy=0;" parent="1" source="KCTM9Wp7UzQOaeIFfcYl-43" target="KCTM9Wp7UzQOaeIFfcYl-42" edge="1">
                    <mxGeometry width="50" height="50" relative="1" as="geometry">
                        <mxPoint x="225" y="540" as="sourcePoint"/>
                        <mxPoint x="275" y="490" as="targetPoint"/>
                    </mxGeometry>
                </mxCell>
                <mxCell id="KCTM9Wp7UzQOaeIFfcYl-52" value="" style="endArrow=none;html=1;entryX=0.5;entryY=1;entryDx=0;entryDy=0;exitX=1;exitY=0.5;exitDx=0;exitDy=0;" parent="1" source="KCTM9Wp7UzQOaeIFfcYl-42" target="KCTM9Wp7UzQOaeIFfcYl-44" edge="1">
                    <mxGeometry width="50" height="50" relative="1" as="geometry">
                        <mxPoint x="270" y="460" as="sourcePoint"/>
                        <mxPoint x="320" y="410" as="targetPoint"/>
                    </mxGeometry>
                </mxCell>
                <mxCell id="KCTM9Wp7UzQOaeIFfcYl-54" value="" style="endArrow=none;html=1;entryX=0.5;entryY=1;entryDx=0;entryDy=0;exitX=0;exitY=0.5;exitDx=0;exitDy=0;" parent="1" source="KCTM9Wp7UzQOaeIFfcYl-45" target="KCTM9Wp7UzQOaeIFfcYl-44" edge="1">
                    <mxGeometry width="50" height="50" relative="1" as="geometry">
                        <mxPoint x="330" y="540" as="sourcePoint"/>
                        <mxPoint x="380" y="490" as="targetPoint"/>
                    </mxGeometry>
                </mxCell>
                <mxCell id="KCTM9Wp7UzQOaeIFfcYl-56" value="" style="endArrow=none;html=1;entryX=0.5;entryY=1;entryDx=0;entryDy=0;exitX=1;exitY=0.5;exitDx=0;exitDy=0;" parent="1" source="KCTM9Wp7UzQOaeIFfcYl-22" target="KCTM9Wp7UzQOaeIFfcYl-23" edge="1">
                    <mxGeometry width="50" height="50" relative="1" as="geometry">
                        <mxPoint x="400" y="320" as="sourcePoint"/>
                        <mxPoint x="450" y="270" as="targetPoint"/>
                    </mxGeometry>
                </mxCell>
                <mxCell id="KCTM9Wp7UzQOaeIFfcYl-57" value="" style="endArrow=none;html=1;entryX=0.5;entryY=1;entryDx=0;entryDy=0;exitX=0;exitY=0.5;exitDx=0;exitDy=0;" parent="1" source="KCTM9Wp7UzQOaeIFfcYl-24" target="KCTM9Wp7UzQOaeIFfcYl-23" edge="1">
                    <mxGeometry width="50" height="50" relative="1" as="geometry">
                        <mxPoint x="400" y="320" as="sourcePoint"/>
                        <mxPoint x="450" y="270" as="targetPoint"/>
                    </mxGeometry>
                </mxCell>
                <mxCell id="KCTM9Wp7UzQOaeIFfcYl-58" value="a" style="rounded=0;whiteSpace=wrap;html=1;" parent="1" vertex="1">
                    <mxGeometry x="360" y="330" width="40" height="40" as="geometry"/>
                </mxCell>
                <mxCell id="KCTM9Wp7UzQOaeIFfcYl-59" value="*" style="rounded=0;whiteSpace=wrap;html=1;" parent="1" vertex="1">
                    <mxGeometry x="410" y="290" width="40" height="40" as="geometry"/>
                </mxCell>
                <mxCell id="KCTM9Wp7UzQOaeIFfcYl-60" value="b" style="rounded=0;whiteSpace=wrap;html=1;" parent="1" vertex="1">
                    <mxGeometry x="460" y="330" width="40" height="40" as="geometry"/>
                </mxCell>
                <mxCell id="KCTM9Wp7UzQOaeIFfcYl-61" value="" style="endArrow=none;html=1;entryX=0.5;entryY=1;entryDx=0;entryDy=0;exitX=1;exitY=0.5;exitDx=0;exitDy=0;" parent="1" source="KCTM9Wp7UzQOaeIFfcYl-58" target="KCTM9Wp7UzQOaeIFfcYl-59" edge="1">
                    <mxGeometry width="50" height="50" relative="1" as="geometry">
                        <mxPoint x="410" y="230" as="sourcePoint"/>
                        <mxPoint x="440" y="210" as="targetPoint"/>
                    </mxGeometry>
                </mxCell>
                <mxCell id="KCTM9Wp7UzQOaeIFfcYl-62" value="" style="endArrow=none;html=1;entryX=0.5;entryY=1;entryDx=0;entryDy=0;exitX=0;exitY=0.5;exitDx=0;exitDy=0;" parent="1" source="KCTM9Wp7UzQOaeIFfcYl-60" target="KCTM9Wp7UzQOaeIFfcYl-59" edge="1">
                    <mxGeometry width="50" height="50" relative="1" as="geometry">
                        <mxPoint x="470" y="230" as="sourcePoint"/>
                        <mxPoint x="440" y="210" as="targetPoint"/>
                        <Array as="points"/>
                    </mxGeometry>
                </mxCell>
                <mxCell id="KCTM9Wp7UzQOaeIFfcYl-63" value="a" style="rounded=0;whiteSpace=wrap;html=1;" parent="1" vertex="1">
                    <mxGeometry x="360" y="500" width="40" height="40" as="geometry"/>
                </mxCell>
                <mxCell id="KCTM9Wp7UzQOaeIFfcYl-64" value="*" style="rounded=0;whiteSpace=wrap;html=1;" parent="1" vertex="1">
                    <mxGeometry x="410" y="460" width="40" height="40" as="geometry"/>
                </mxCell>
                <mxCell id="KCTM9Wp7UzQOaeIFfcYl-65" value="b" style="rounded=0;whiteSpace=wrap;html=1;" parent="1" vertex="1">
                    <mxGeometry x="460" y="500" width="40" height="40" as="geometry"/>
                </mxCell>
                <mxCell id="KCTM9Wp7UzQOaeIFfcYl-66" value="" style="endArrow=none;html=1;entryX=0.5;entryY=1;entryDx=0;entryDy=0;exitX=1;exitY=0.5;exitDx=0;exitDy=0;" parent="1" source="KCTM9Wp7UzQOaeIFfcYl-63" target="KCTM9Wp7UzQOaeIFfcYl-64" edge="1">
                    <mxGeometry width="50" height="50" relative="1" as="geometry">
                        <mxPoint x="400" y="620" as="sourcePoint"/>
                        <mxPoint x="450" y="570" as="targetPoint"/>
                    </mxGeometry>
                </mxCell>
                <mxCell id="KCTM9Wp7UzQOaeIFfcYl-67" value="" style="endArrow=none;html=1;entryX=0.5;entryY=1;entryDx=0;entryDy=0;exitX=0;exitY=0.5;exitDx=0;exitDy=0;" parent="1" source="KCTM9Wp7UzQOaeIFfcYl-65" target="KCTM9Wp7UzQOaeIFfcYl-64" edge="1">
                    <mxGeometry width="50" height="50" relative="1" as="geometry">
                        <mxPoint x="400" y="620" as="sourcePoint"/>
                        <mxPoint x="450" y="570" as="targetPoint"/>
                    </mxGeometry>
                </mxCell>
            </root>
        </mxGraphModel>
    </diagram>
    <diagram id="MerfpDHpnAkzhOOeTump" name="Simplify-Basic">
        <mxGraphModel dx="784" dy="652" grid="1" gridSize="10" guides="1" tooltips="1" connect="1" arrows="1" fold="1" page="1" pageScale="1" pageWidth="1600" pageHeight="900" math="0" shadow="0">
            <root>
                <mxCell id="0"/>
                <mxCell id="1" parent="0"/>
                <mxCell id="NSWRQbyBQvF78Sn2wkFV-24" value="" style="rounded=0;whiteSpace=wrap;html=1;strokeColor=#6c8ebf;fontSize=20;fillColor=#dae8fc;" parent="1" vertex="1">
                    <mxGeometry x="1280" y="600" width="320" height="240" as="geometry"/>
                </mxCell>
                <mxCell id="xoJhrin5r6PY0Dps0k6W-20" value="" style="rounded=0;whiteSpace=wrap;html=1;fillColor=#dae8fc;strokeColor=#6c8ebf;" parent="1" vertex="1">
                    <mxGeometry y="640" width="200" height="200" as="geometry"/>
                </mxCell>
                <mxCell id="xoJhrin5r6PY0Dps0k6W-10" value="" style="rounded=0;whiteSpace=wrap;html=1;fillColor=#dae8fc;strokeColor=#6c8ebf;" parent="1" vertex="1">
                    <mxGeometry y="40" width="200" height="160" as="geometry"/>
                </mxCell>
                <mxCell id="xoJhrin5r6PY0Dps0k6W-2" value="+" style="rounded=0;whiteSpace=wrap;html=1;strokeColor=#000000;fillColor=#CCFFCC;" parent="1" vertex="1">
                    <mxGeometry x="80" y="40" width="40" height="40" as="geometry"/>
                </mxCell>
                <mxCell id="xoJhrin5r6PY0Dps0k6W-3" value="2" style="rounded=0;whiteSpace=wrap;html=1;" parent="1" vertex="1">
                    <mxGeometry y="80" width="40" height="40" as="geometry"/>
                </mxCell>
                <mxCell id="xoJhrin5r6PY0Dps0k6W-4" value="4" style="rounded=0;whiteSpace=wrap;html=1;" parent="1" vertex="1">
                    <mxGeometry x="160" y="80" width="40" height="40" as="geometry"/>
                </mxCell>
                <mxCell id="xoJhrin5r6PY0Dps0k6W-5" value="" style="endArrow=none;html=1;entryX=0.5;entryY=1;entryDx=0;entryDy=0;exitX=1;exitY=0.5;exitDx=0;exitDy=0;" parent="1" source="xoJhrin5r6PY0Dps0k6W-3" target="xoJhrin5r6PY0Dps0k6W-2" edge="1">
                    <mxGeometry width="50" height="50" relative="1" as="geometry">
                        <mxPoint x="350" y="120" as="sourcePoint"/>
                        <mxPoint x="400" y="70" as="targetPoint"/>
                    </mxGeometry>
                </mxCell>
                <mxCell id="xoJhrin5r6PY0Dps0k6W-6" value="" style="endArrow=none;html=1;exitX=0.5;exitY=1;exitDx=0;exitDy=0;entryX=0;entryY=0.5;entryDx=0;entryDy=0;" parent="1" source="xoJhrin5r6PY0Dps0k6W-2" target="xoJhrin5r6PY0Dps0k6W-4" edge="1">
                    <mxGeometry width="50" height="50" relative="1" as="geometry">
                        <mxPoint x="320" y="130" as="sourcePoint"/>
                        <mxPoint x="370" y="80" as="targetPoint"/>
                    </mxGeometry>
                </mxCell>
                <mxCell id="xoJhrin5r6PY0Dps0k6W-7" value="6" style="rounded=0;whiteSpace=wrap;html=1;" parent="1" vertex="1">
                    <mxGeometry x="80" y="160" width="40" height="40" as="geometry"/>
                </mxCell>
                <mxCell id="xoJhrin5r6PY0Dps0k6W-8" value="+" style="rounded=0;whiteSpace=wrap;html=1;strokeColor=#000000;fillColor=#CCFFCC;" parent="1" vertex="1">
                    <mxGeometry x="80" y="640" width="40" height="40" as="geometry"/>
                </mxCell>
                <mxCell id="xoJhrin5r6PY0Dps0k6W-9" value="a" style="rounded=0;whiteSpace=wrap;html=1;" parent="1" vertex="1">
                    <mxGeometry y="680" width="40" height="40" as="geometry"/>
                </mxCell>
                <mxCell id="xoJhrin5r6PY0Dps0k6W-11" value="a" style="rounded=0;whiteSpace=wrap;html=1;" parent="1" vertex="1">
                    <mxGeometry x="160" y="680" width="40" height="40" as="geometry"/>
                </mxCell>
                <mxCell id="xoJhrin5r6PY0Dps0k6W-12" value="*" style="rounded=0;whiteSpace=wrap;html=1;fillColor=#CCFFFF;" parent="1" vertex="1">
                    <mxGeometry x="80" y="760" width="40" height="40" as="geometry"/>
                </mxCell>
                <mxCell id="xoJhrin5r6PY0Dps0k6W-13" value="a" style="rounded=0;whiteSpace=wrap;html=1;" parent="1" vertex="1">
                    <mxGeometry x="160" y="800" width="40" height="40" as="geometry"/>
                </mxCell>
                <mxCell id="xoJhrin5r6PY0Dps0k6W-14" value="2" style="rounded=0;whiteSpace=wrap;html=1;" parent="1" vertex="1">
                    <mxGeometry y="800" width="40" height="40" as="geometry"/>
                </mxCell>
                <mxCell id="xoJhrin5r6PY0Dps0k6W-15" value="" style="endArrow=none;html=1;entryX=0.5;entryY=1;entryDx=0;entryDy=0;exitX=1;exitY=0.5;exitDx=0;exitDy=0;" parent="1" source="xoJhrin5r6PY0Dps0k6W-9" target="xoJhrin5r6PY0Dps0k6W-8" edge="1">
                    <mxGeometry width="50" height="50" relative="1" as="geometry">
                        <mxPoint x="80" y="730" as="sourcePoint"/>
                        <mxPoint x="130" y="680" as="targetPoint"/>
                    </mxGeometry>
                </mxCell>
                <mxCell id="xoJhrin5r6PY0Dps0k6W-17" value="" style="endArrow=none;html=1;entryX=0.5;entryY=1;entryDx=0;entryDy=0;exitX=0;exitY=0.5;exitDx=0;exitDy=0;" parent="1" source="xoJhrin5r6PY0Dps0k6W-11" target="xoJhrin5r6PY0Dps0k6W-8" edge="1">
                    <mxGeometry width="50" height="50" relative="1" as="geometry">
                        <mxPoint x="80" y="730" as="sourcePoint"/>
                        <mxPoint x="130" y="680" as="targetPoint"/>
                    </mxGeometry>
                </mxCell>
                <mxCell id="xoJhrin5r6PY0Dps0k6W-18" value="" style="endArrow=none;html=1;exitX=1;exitY=0.5;exitDx=0;exitDy=0;entryX=0.5;entryY=1;entryDx=0;entryDy=0;" parent="1" source="xoJhrin5r6PY0Dps0k6W-14" target="xoJhrin5r6PY0Dps0k6W-12" edge="1">
                    <mxGeometry width="50" height="50" relative="1" as="geometry">
                        <mxPoint x="80" y="730" as="sourcePoint"/>
                        <mxPoint x="130" y="680" as="targetPoint"/>
                    </mxGeometry>
                </mxCell>
                <mxCell id="xoJhrin5r6PY0Dps0k6W-19" value="" style="endArrow=none;html=1;exitX=0.5;exitY=1;exitDx=0;exitDy=0;entryX=0;entryY=0.5;entryDx=0;entryDy=0;" parent="1" source="xoJhrin5r6PY0Dps0k6W-12" target="xoJhrin5r6PY0Dps0k6W-13" edge="1">
                    <mxGeometry width="50" height="50" relative="1" as="geometry">
                        <mxPoint x="80" y="730" as="sourcePoint"/>
                        <mxPoint x="130" y="680" as="targetPoint"/>
                    </mxGeometry>
                </mxCell>
                <mxCell id="xoJhrin5r6PY0Dps0k6W-21" value="" style="rounded=0;whiteSpace=wrap;html=1;fillColor=#dae8fc;strokeColor=#6c8ebf;" parent="1" vertex="1">
                    <mxGeometry x="480" y="640" width="200" height="200" as="geometry"/>
                </mxCell>
                <mxCell id="xoJhrin5r6PY0Dps0k6W-22" value="*" style="rounded=0;whiteSpace=wrap;html=1;fillColor=#CCFFFF;" parent="1" vertex="1">
                    <mxGeometry x="560" y="640" width="40" height="40" as="geometry"/>
                </mxCell>
                <mxCell id="xoJhrin5r6PY0Dps0k6W-23" value="a" style="rounded=0;whiteSpace=wrap;html=1;" parent="1" vertex="1">
                    <mxGeometry x="480" y="680" width="40" height="40" as="geometry"/>
                </mxCell>
                <mxCell id="xoJhrin5r6PY0Dps0k6W-24" value="a" style="rounded=0;whiteSpace=wrap;html=1;" parent="1" vertex="1">
                    <mxGeometry x="640" y="680" width="40" height="40" as="geometry"/>
                </mxCell>
                <mxCell id="xoJhrin5r6PY0Dps0k6W-25" value="^" style="rounded=0;whiteSpace=wrap;html=1;fillColor=#FFCCFF;" parent="1" vertex="1">
                    <mxGeometry x="560" y="760" width="40" height="40" as="geometry"/>
                </mxCell>
                <mxCell id="xoJhrin5r6PY0Dps0k6W-26" value="2" style="rounded=0;whiteSpace=wrap;html=1;" parent="1" vertex="1">
                    <mxGeometry x="640" y="800" width="40" height="40" as="geometry"/>
                </mxCell>
                <mxCell id="xoJhrin5r6PY0Dps0k6W-27" value="a" style="rounded=0;whiteSpace=wrap;html=1;" parent="1" vertex="1">
                    <mxGeometry x="480" y="800" width="40" height="40" as="geometry"/>
                </mxCell>
                <mxCell id="xoJhrin5r6PY0Dps0k6W-28" value="" style="endArrow=none;html=1;entryX=0.5;entryY=1;entryDx=0;entryDy=0;exitX=1;exitY=0.5;exitDx=0;exitDy=0;" parent="1" source="xoJhrin5r6PY0Dps0k6W-23" target="xoJhrin5r6PY0Dps0k6W-22" edge="1">
                    <mxGeometry width="50" height="50" relative="1" as="geometry">
                        <mxPoint x="560" y="730" as="sourcePoint"/>
                        <mxPoint x="610" y="680" as="targetPoint"/>
                    </mxGeometry>
                </mxCell>
                <mxCell id="xoJhrin5r6PY0Dps0k6W-29" value="" style="endArrow=none;html=1;entryX=0.5;entryY=1;entryDx=0;entryDy=0;exitX=0;exitY=0.5;exitDx=0;exitDy=0;" parent="1" source="xoJhrin5r6PY0Dps0k6W-24" target="xoJhrin5r6PY0Dps0k6W-22" edge="1">
                    <mxGeometry width="50" height="50" relative="1" as="geometry">
                        <mxPoint x="560" y="730" as="sourcePoint"/>
                        <mxPoint x="610" y="680" as="targetPoint"/>
                    </mxGeometry>
                </mxCell>
                <mxCell id="xoJhrin5r6PY0Dps0k6W-30" value="" style="endArrow=none;html=1;exitX=1;exitY=0.5;exitDx=0;exitDy=0;entryX=0.5;entryY=1;entryDx=0;entryDy=0;" parent="1" source="xoJhrin5r6PY0Dps0k6W-27" target="xoJhrin5r6PY0Dps0k6W-25" edge="1">
                    <mxGeometry width="50" height="50" relative="1" as="geometry">
                        <mxPoint x="560" y="730" as="sourcePoint"/>
                        <mxPoint x="610" y="680" as="targetPoint"/>
                    </mxGeometry>
                </mxCell>
                <mxCell id="xoJhrin5r6PY0Dps0k6W-31" value="" style="endArrow=none;html=1;exitX=0.5;exitY=1;exitDx=0;exitDy=0;entryX=0;entryY=0.5;entryDx=0;entryDy=0;" parent="1" source="xoJhrin5r6PY0Dps0k6W-25" target="xoJhrin5r6PY0Dps0k6W-26" edge="1">
                    <mxGeometry width="50" height="50" relative="1" as="geometry">
                        <mxPoint x="560" y="730" as="sourcePoint"/>
                        <mxPoint x="610" y="680" as="targetPoint"/>
                    </mxGeometry>
                </mxCell>
                <mxCell id="xoJhrin5r6PY0Dps0k6W-32" value="" style="rounded=0;whiteSpace=wrap;html=1;fillColor=#dae8fc;strokeColor=#6c8ebf;" parent="1" vertex="1">
                    <mxGeometry y="240" width="200" height="160" as="geometry"/>
                </mxCell>
                <mxCell id="xoJhrin5r6PY0Dps0k6W-34" value="2" style="rounded=0;whiteSpace=wrap;html=1;" parent="1" vertex="1">
                    <mxGeometry y="280" width="40" height="40" as="geometry"/>
                </mxCell>
                <mxCell id="xoJhrin5r6PY0Dps0k6W-35" value="4" style="rounded=0;whiteSpace=wrap;html=1;" parent="1" vertex="1">
                    <mxGeometry x="160" y="280" width="40" height="40" as="geometry"/>
                </mxCell>
                <mxCell id="xoJhrin5r6PY0Dps0k6W-36" value="" style="endArrow=none;html=1;entryX=0.5;entryY=1;entryDx=0;entryDy=0;exitX=1;exitY=0.5;exitDx=0;exitDy=0;" parent="1" source="xoJhrin5r6PY0Dps0k6W-34" edge="1">
                    <mxGeometry width="50" height="50" relative="1" as="geometry">
                        <mxPoint x="350" y="320" as="sourcePoint"/>
                        <mxPoint x="100" y="280" as="targetPoint"/>
                    </mxGeometry>
                </mxCell>
                <mxCell id="xoJhrin5r6PY0Dps0k6W-37" value="" style="endArrow=none;html=1;exitX=0.5;exitY=1;exitDx=0;exitDy=0;entryX=0;entryY=0.5;entryDx=0;entryDy=0;" parent="1" target="xoJhrin5r6PY0Dps0k6W-35" edge="1">
                    <mxGeometry width="50" height="50" relative="1" as="geometry">
                        <mxPoint x="100" y="280" as="sourcePoint"/>
                        <mxPoint x="370" y="280" as="targetPoint"/>
                    </mxGeometry>
                </mxCell>
                <mxCell id="xoJhrin5r6PY0Dps0k6W-38" value="8" style="rounded=0;whiteSpace=wrap;html=1;" parent="1" vertex="1">
                    <mxGeometry x="80" y="360" width="40" height="40" as="geometry"/>
                </mxCell>
                <mxCell id="xoJhrin5r6PY0Dps0k6W-39" value="*" style="rounded=0;whiteSpace=wrap;html=1;fillColor=#CCFFFF;" parent="1" vertex="1">
                    <mxGeometry x="80" y="240" width="40" height="40" as="geometry"/>
                </mxCell>
                <mxCell id="xoJhrin5r6PY0Dps0k6W-40" value="" style="rounded=0;whiteSpace=wrap;html=1;fillColor=#dae8fc;strokeColor=#6c8ebf;" parent="1" vertex="1">
                    <mxGeometry y="440" width="200" height="160" as="geometry"/>
                </mxCell>
                <mxCell id="xoJhrin5r6PY0Dps0k6W-41" value="2" style="rounded=0;whiteSpace=wrap;html=1;" parent="1" vertex="1">
                    <mxGeometry y="480" width="40" height="40" as="geometry"/>
                </mxCell>
                <mxCell id="xoJhrin5r6PY0Dps0k6W-42" value="4" style="rounded=0;whiteSpace=wrap;html=1;" parent="1" vertex="1">
                    <mxGeometry x="160" y="480" width="40" height="40" as="geometry"/>
                </mxCell>
                <mxCell id="xoJhrin5r6PY0Dps0k6W-43" value="" style="endArrow=none;html=1;entryX=0.5;entryY=1;entryDx=0;entryDy=0;exitX=1;exitY=0.5;exitDx=0;exitDy=0;" parent="1" source="xoJhrin5r6PY0Dps0k6W-41" edge="1">
                    <mxGeometry width="50" height="50" relative="1" as="geometry">
                        <mxPoint x="350" y="520" as="sourcePoint"/>
                        <mxPoint x="100" y="480" as="targetPoint"/>
                    </mxGeometry>
                </mxCell>
                <mxCell id="xoJhrin5r6PY0Dps0k6W-44" value="" style="endArrow=none;html=1;exitX=0.5;exitY=1;exitDx=0;exitDy=0;entryX=0;entryY=0.5;entryDx=0;entryDy=0;" parent="1" target="xoJhrin5r6PY0Dps0k6W-42" edge="1">
                    <mxGeometry width="50" height="50" relative="1" as="geometry">
                        <mxPoint x="100" y="480" as="sourcePoint"/>
                        <mxPoint x="370" y="480" as="targetPoint"/>
                    </mxGeometry>
                </mxCell>
                <mxCell id="xoJhrin5r6PY0Dps0k6W-45" value="16" style="rounded=0;whiteSpace=wrap;html=1;" parent="1" vertex="1">
                    <mxGeometry x="80" y="560" width="40" height="40" as="geometry"/>
                </mxCell>
                <mxCell id="xoJhrin5r6PY0Dps0k6W-47" value="^" style="rounded=0;whiteSpace=wrap;html=1;fillColor=#FFCCFF;" parent="1" vertex="1">
                    <mxGeometry x="80" y="440" width="40" height="40" as="geometry"/>
                </mxCell>
                <mxCell id="xoJhrin5r6PY0Dps0k6W-48" value="" style="rounded=0;whiteSpace=wrap;html=1;fillColor=#dae8fc;strokeColor=#6c8ebf;" parent="1" vertex="1">
                    <mxGeometry x="240" y="40" width="200" height="160" as="geometry"/>
                </mxCell>
                <mxCell id="xoJhrin5r6PY0Dps0k6W-49" value="-" style="rounded=0;whiteSpace=wrap;html=1;strokeColor=#000000;fillColor=#CCFFCC;" parent="1" vertex="1">
                    <mxGeometry x="320" y="40" width="40" height="40" as="geometry"/>
                </mxCell>
                <mxCell id="xoJhrin5r6PY0Dps0k6W-50" value="2" style="rounded=0;whiteSpace=wrap;html=1;" parent="1" vertex="1">
                    <mxGeometry x="240" y="80" width="40" height="40" as="geometry"/>
                </mxCell>
                <mxCell id="xoJhrin5r6PY0Dps0k6W-51" value="4" style="rounded=0;whiteSpace=wrap;html=1;" parent="1" vertex="1">
                    <mxGeometry x="400" y="80" width="40" height="40" as="geometry"/>
                </mxCell>
                <mxCell id="xoJhrin5r6PY0Dps0k6W-52" value="" style="endArrow=none;html=1;entryX=0.5;entryY=1;entryDx=0;entryDy=0;exitX=1;exitY=0.5;exitDx=0;exitDy=0;" parent="1" source="xoJhrin5r6PY0Dps0k6W-50" target="xoJhrin5r6PY0Dps0k6W-49" edge="1">
                    <mxGeometry width="50" height="50" relative="1" as="geometry">
                        <mxPoint x="590" y="120" as="sourcePoint"/>
                        <mxPoint x="640" y="70" as="targetPoint"/>
                    </mxGeometry>
                </mxCell>
                <mxCell id="xoJhrin5r6PY0Dps0k6W-53" value="" style="endArrow=none;html=1;exitX=0.5;exitY=1;exitDx=0;exitDy=0;entryX=0;entryY=0.5;entryDx=0;entryDy=0;" parent="1" source="xoJhrin5r6PY0Dps0k6W-49" target="xoJhrin5r6PY0Dps0k6W-51" edge="1">
                    <mxGeometry width="50" height="50" relative="1" as="geometry">
                        <mxPoint x="560" y="130" as="sourcePoint"/>
                        <mxPoint x="610" y="80" as="targetPoint"/>
                    </mxGeometry>
                </mxCell>
                <mxCell id="xoJhrin5r6PY0Dps0k6W-54" value="-2" style="rounded=0;whiteSpace=wrap;html=1;" parent="1" vertex="1">
                    <mxGeometry x="320" y="160" width="40" height="40" as="geometry"/>
                </mxCell>
                <mxCell id="xoJhrin5r6PY0Dps0k6W-121" value="" style="rounded=0;whiteSpace=wrap;html=1;fillColor=#dae8fc;strokeColor=#6c8ebf;" parent="1" vertex="1">
                    <mxGeometry x="240" y="240" width="200" height="160" as="geometry"/>
                </mxCell>
                <mxCell id="xoJhrin5r6PY0Dps0k6W-122" value="2" style="rounded=0;whiteSpace=wrap;html=1;" parent="1" vertex="1">
                    <mxGeometry x="240" y="280" width="40" height="40" as="geometry"/>
                </mxCell>
                <mxCell id="xoJhrin5r6PY0Dps0k6W-123" value="1" style="rounded=0;whiteSpace=wrap;html=1;" parent="1" vertex="1">
                    <mxGeometry x="400" y="280" width="40" height="40" as="geometry"/>
                </mxCell>
                <mxCell id="xoJhrin5r6PY0Dps0k6W-124" value="" style="endArrow=none;html=1;entryX=0.5;entryY=1;entryDx=0;entryDy=0;exitX=1;exitY=0.5;exitDx=0;exitDy=0;" parent="1" source="xoJhrin5r6PY0Dps0k6W-122" edge="1">
                    <mxGeometry width="50" height="50" relative="1" as="geometry">
                        <mxPoint x="590" y="320" as="sourcePoint"/>
                        <mxPoint x="340" y="280" as="targetPoint"/>
                    </mxGeometry>
                </mxCell>
                <mxCell id="xoJhrin5r6PY0Dps0k6W-125" value="" style="endArrow=none;html=1;exitX=0.5;exitY=1;exitDx=0;exitDy=0;entryX=0;entryY=0.5;entryDx=0;entryDy=0;" parent="1" target="xoJhrin5r6PY0Dps0k6W-123" edge="1">
                    <mxGeometry width="50" height="50" relative="1" as="geometry">
                        <mxPoint x="340" y="280" as="sourcePoint"/>
                        <mxPoint x="610" y="280" as="targetPoint"/>
                    </mxGeometry>
                </mxCell>
                <mxCell id="xoJhrin5r6PY0Dps0k6W-126" value="2" style="rounded=0;whiteSpace=wrap;html=1;" parent="1" vertex="1">
                    <mxGeometry x="320" y="360" width="40" height="40" as="geometry"/>
                </mxCell>
                <mxCell id="xoJhrin5r6PY0Dps0k6W-127" value="*" style="rounded=0;whiteSpace=wrap;html=1;fillColor=#CCFFFF;" parent="1" vertex="1">
                    <mxGeometry x="320" y="240" width="40" height="40" as="geometry"/>
                </mxCell>
                <mxCell id="xoJhrin5r6PY0Dps0k6W-128" value="" style="rounded=0;whiteSpace=wrap;html=1;fillColor=#dae8fc;strokeColor=#6c8ebf;" parent="1" vertex="1">
                    <mxGeometry x="480" y="240" width="200" height="160" as="geometry"/>
                </mxCell>
                <mxCell id="xoJhrin5r6PY0Dps0k6W-129" value="a" style="rounded=0;whiteSpace=wrap;html=1;" parent="1" vertex="1">
                    <mxGeometry x="480" y="280" width="40" height="40" as="geometry"/>
                </mxCell>
                <mxCell id="xoJhrin5r6PY0Dps0k6W-130" value="1" style="rounded=0;whiteSpace=wrap;html=1;" parent="1" vertex="1">
                    <mxGeometry x="640" y="280" width="40" height="40" as="geometry"/>
                </mxCell>
                <mxCell id="xoJhrin5r6PY0Dps0k6W-131" value="" style="endArrow=none;html=1;entryX=0.5;entryY=1;entryDx=0;entryDy=0;exitX=1;exitY=0.5;exitDx=0;exitDy=0;" parent="1" source="xoJhrin5r6PY0Dps0k6W-129" edge="1">
                    <mxGeometry width="50" height="50" relative="1" as="geometry">
                        <mxPoint x="830" y="320" as="sourcePoint"/>
                        <mxPoint x="580" y="280" as="targetPoint"/>
                    </mxGeometry>
                </mxCell>
                <mxCell id="xoJhrin5r6PY0Dps0k6W-132" value="" style="endArrow=none;html=1;exitX=0.5;exitY=1;exitDx=0;exitDy=0;entryX=0;entryY=0.5;entryDx=0;entryDy=0;" parent="1" target="xoJhrin5r6PY0Dps0k6W-130" edge="1">
                    <mxGeometry width="50" height="50" relative="1" as="geometry">
                        <mxPoint x="580" y="280" as="sourcePoint"/>
                        <mxPoint x="850" y="280" as="targetPoint"/>
                    </mxGeometry>
                </mxCell>
                <mxCell id="xoJhrin5r6PY0Dps0k6W-133" value="a" style="rounded=0;whiteSpace=wrap;html=1;" parent="1" vertex="1">
                    <mxGeometry x="560" y="360" width="40" height="40" as="geometry"/>
                </mxCell>
                <mxCell id="xoJhrin5r6PY0Dps0k6W-134" value="*" style="rounded=0;whiteSpace=wrap;html=1;fillColor=#CCFFFF;" parent="1" vertex="1">
                    <mxGeometry x="560" y="240" width="40" height="40" as="geometry"/>
                </mxCell>
                <mxCell id="xoJhrin5r6PY0Dps0k6W-136" value="" style="rounded=0;whiteSpace=wrap;html=1;fillColor=#dae8fc;strokeColor=#6c8ebf;" parent="1" vertex="1">
                    <mxGeometry x="720" y="640" width="200" height="200" as="geometry"/>
                </mxCell>
                <mxCell id="xoJhrin5r6PY0Dps0k6W-137" value="*" style="rounded=0;whiteSpace=wrap;html=1;fillColor=#CCFFFF;" parent="1" vertex="1">
                    <mxGeometry x="800" y="640" width="40" height="40" as="geometry"/>
                </mxCell>
                <mxCell id="xoJhrin5r6PY0Dps0k6W-138" value="a" style="rounded=0;whiteSpace=wrap;html=1;" parent="1" vertex="1">
                    <mxGeometry x="720" y="680" width="40" height="40" as="geometry"/>
                </mxCell>
                <mxCell id="xoJhrin5r6PY0Dps0k6W-139" value="1" style="rounded=0;whiteSpace=wrap;html=1;" parent="1" vertex="1">
                    <mxGeometry x="880" y="680" width="40" height="40" as="geometry"/>
                </mxCell>
                <mxCell id="xoJhrin5r6PY0Dps0k6W-143" value="" style="endArrow=none;html=1;entryX=0.5;entryY=1;entryDx=0;entryDy=0;exitX=1;exitY=0.5;exitDx=0;exitDy=0;" parent="1" source="xoJhrin5r6PY0Dps0k6W-138" target="xoJhrin5r6PY0Dps0k6W-137" edge="1">
                    <mxGeometry width="50" height="50" relative="1" as="geometry">
                        <mxPoint x="800" y="730" as="sourcePoint"/>
                        <mxPoint x="850" y="680" as="targetPoint"/>
                    </mxGeometry>
                </mxCell>
                <mxCell id="xoJhrin5r6PY0Dps0k6W-144" value="" style="endArrow=none;html=1;entryX=0.5;entryY=1;entryDx=0;entryDy=0;exitX=0;exitY=0.5;exitDx=0;exitDy=0;" parent="1" source="xoJhrin5r6PY0Dps0k6W-139" target="xoJhrin5r6PY0Dps0k6W-137" edge="1">
                    <mxGeometry width="50" height="50" relative="1" as="geometry">
                        <mxPoint x="800" y="730" as="sourcePoint"/>
                        <mxPoint x="850" y="680" as="targetPoint"/>
                    </mxGeometry>
                </mxCell>
                <mxCell id="xoJhrin5r6PY0Dps0k6W-147" value="" style="rounded=0;whiteSpace=wrap;html=1;fillColor=#dae8fc;strokeColor=#6c8ebf;" parent="1" vertex="1">
                    <mxGeometry x="240" y="640" width="200" height="200" as="geometry"/>
                </mxCell>
                <mxCell id="xoJhrin5r6PY0Dps0k6W-148" value="-" style="rounded=0;whiteSpace=wrap;html=1;strokeColor=#000000;fillColor=#CCFFCC;" parent="1" vertex="1">
                    <mxGeometry x="320" y="640" width="40" height="40" as="geometry"/>
                </mxCell>
                <mxCell id="xoJhrin5r6PY0Dps0k6W-149" value="a" style="rounded=0;whiteSpace=wrap;html=1;" parent="1" vertex="1">
                    <mxGeometry x="240" y="680" width="40" height="40" as="geometry"/>
                </mxCell>
                <mxCell id="xoJhrin5r6PY0Dps0k6W-150" value="a" style="rounded=0;whiteSpace=wrap;html=1;" parent="1" vertex="1">
                    <mxGeometry x="400" y="680" width="40" height="40" as="geometry"/>
                </mxCell>
                <mxCell id="xoJhrin5r6PY0Dps0k6W-153" value="0" style="rounded=0;whiteSpace=wrap;html=1;" parent="1" vertex="1">
                    <mxGeometry x="320" y="770" width="40" height="40" as="geometry"/>
                </mxCell>
                <mxCell id="xoJhrin5r6PY0Dps0k6W-154" value="" style="endArrow=none;html=1;entryX=0.5;entryY=1;entryDx=0;entryDy=0;exitX=1;exitY=0.5;exitDx=0;exitDy=0;" parent="1" source="xoJhrin5r6PY0Dps0k6W-149" target="xoJhrin5r6PY0Dps0k6W-148" edge="1">
                    <mxGeometry width="50" height="50" relative="1" as="geometry">
                        <mxPoint x="320" y="730" as="sourcePoint"/>
                        <mxPoint x="370" y="680" as="targetPoint"/>
                    </mxGeometry>
                </mxCell>
                <mxCell id="xoJhrin5r6PY0Dps0k6W-155" value="" style="endArrow=none;html=1;entryX=0.5;entryY=1;entryDx=0;entryDy=0;exitX=0;exitY=0.5;exitDx=0;exitDy=0;" parent="1" source="xoJhrin5r6PY0Dps0k6W-150" target="xoJhrin5r6PY0Dps0k6W-148" edge="1">
                    <mxGeometry width="50" height="50" relative="1" as="geometry">
                        <mxPoint x="320" y="730" as="sourcePoint"/>
                        <mxPoint x="370" y="680" as="targetPoint"/>
                    </mxGeometry>
                </mxCell>
                <mxCell id="xoJhrin5r6PY0Dps0k6W-158" value="a" style="rounded=0;whiteSpace=wrap;html=1;" parent="1" vertex="1">
                    <mxGeometry x="800" y="760" width="40" height="40" as="geometry"/>
                </mxCell>
                <mxCell id="1CsMjKwwldHacUDzMXNH-1" value="" style="rounded=0;whiteSpace=wrap;html=1;fillColor=#dae8fc;strokeColor=#6c8ebf;" parent="1" vertex="1">
                    <mxGeometry x="480" y="40" width="200" height="160" as="geometry"/>
                </mxCell>
                <mxCell id="1CsMjKwwldHacUDzMXNH-2" value="2" style="rounded=0;whiteSpace=wrap;html=1;" parent="1" vertex="1">
                    <mxGeometry x="480" y="80" width="40" height="40" as="geometry"/>
                </mxCell>
                <mxCell id="1CsMjKwwldHacUDzMXNH-3" value="1" style="rounded=0;whiteSpace=wrap;html=1;" parent="1" vertex="1">
                    <mxGeometry x="640" y="80" width="40" height="40" as="geometry"/>
                </mxCell>
                <mxCell id="1CsMjKwwldHacUDzMXNH-4" value="" style="endArrow=none;html=1;entryX=0.5;entryY=1;entryDx=0;entryDy=0;exitX=1;exitY=0.5;exitDx=0;exitDy=0;" parent="1" source="1CsMjKwwldHacUDzMXNH-2" edge="1">
                    <mxGeometry width="50" height="50" relative="1" as="geometry">
                        <mxPoint x="830" y="120" as="sourcePoint"/>
                        <mxPoint x="580" y="80" as="targetPoint"/>
                    </mxGeometry>
                </mxCell>
                <mxCell id="1CsMjKwwldHacUDzMXNH-5" value="" style="endArrow=none;html=1;exitX=0.5;exitY=1;exitDx=0;exitDy=0;entryX=0;entryY=0.5;entryDx=0;entryDy=0;" parent="1" target="1CsMjKwwldHacUDzMXNH-3" edge="1">
                    <mxGeometry width="50" height="50" relative="1" as="geometry">
                        <mxPoint x="580" y="80" as="sourcePoint"/>
                        <mxPoint x="850" y="80" as="targetPoint"/>
                    </mxGeometry>
                </mxCell>
                <mxCell id="1CsMjKwwldHacUDzMXNH-6" value="2" style="rounded=0;whiteSpace=wrap;html=1;" parent="1" vertex="1">
                    <mxGeometry x="560" y="160" width="40" height="40" as="geometry"/>
                </mxCell>
                <mxCell id="1CsMjKwwldHacUDzMXNH-7" value="/" style="rounded=0;whiteSpace=wrap;html=1;fillColor=#CCFFFF;" parent="1" vertex="1">
                    <mxGeometry x="560" y="40" width="40" height="40" as="geometry"/>
                </mxCell>
                <mxCell id="1CsMjKwwldHacUDzMXNH-8" value="" style="rounded=0;whiteSpace=wrap;html=1;fillColor=#dae8fc;strokeColor=#6c8ebf;" parent="1" vertex="1">
                    <mxGeometry x="720" y="40" width="200" height="160" as="geometry"/>
                </mxCell>
                <mxCell id="1CsMjKwwldHacUDzMXNH-9" value="2" style="rounded=0;whiteSpace=wrap;html=1;" parent="1" vertex="1">
                    <mxGeometry x="720" y="80" width="40" height="40" as="geometry"/>
                </mxCell>
                <mxCell id="1CsMjKwwldHacUDzMXNH-10" value="2" style="rounded=0;whiteSpace=wrap;html=1;" parent="1" vertex="1">
                    <mxGeometry x="880" y="80" width="40" height="40" as="geometry"/>
                </mxCell>
                <mxCell id="1CsMjKwwldHacUDzMXNH-11" value="" style="endArrow=none;html=1;entryX=0.5;entryY=1;entryDx=0;entryDy=0;exitX=1;exitY=0.5;exitDx=0;exitDy=0;" parent="1" source="1CsMjKwwldHacUDzMXNH-9" edge="1">
                    <mxGeometry width="50" height="50" relative="1" as="geometry">
                        <mxPoint x="1070" y="120" as="sourcePoint"/>
                        <mxPoint x="820" y="80" as="targetPoint"/>
                    </mxGeometry>
                </mxCell>
                <mxCell id="1CsMjKwwldHacUDzMXNH-12" value="" style="endArrow=none;html=1;exitX=0.5;exitY=1;exitDx=0;exitDy=0;entryX=0;entryY=0.5;entryDx=0;entryDy=0;" parent="1" target="1CsMjKwwldHacUDzMXNH-10" edge="1">
                    <mxGeometry width="50" height="50" relative="1" as="geometry">
                        <mxPoint x="820" y="80" as="sourcePoint"/>
                        <mxPoint x="1090" y="80" as="targetPoint"/>
                    </mxGeometry>
                </mxCell>
                <mxCell id="1CsMjKwwldHacUDzMXNH-13" value="1" style="rounded=0;whiteSpace=wrap;html=1;" parent="1" vertex="1">
                    <mxGeometry x="800" y="160" width="40" height="40" as="geometry"/>
                </mxCell>
                <mxCell id="1CsMjKwwldHacUDzMXNH-14" value="/" style="rounded=0;whiteSpace=wrap;html=1;fillColor=#CCFFFF;" parent="1" vertex="1">
                    <mxGeometry x="800" y="40" width="40" height="40" as="geometry"/>
                </mxCell>
                <mxCell id="1CsMjKwwldHacUDzMXNH-15" value="" style="rounded=0;whiteSpace=wrap;html=1;fillColor=#dae8fc;strokeColor=#6c8ebf;" parent="1" vertex="1">
                    <mxGeometry x="240" y="440" width="200" height="160" as="geometry"/>
                </mxCell>
                <mxCell id="1CsMjKwwldHacUDzMXNH-16" value="2" style="rounded=0;whiteSpace=wrap;html=1;" parent="1" vertex="1">
                    <mxGeometry x="240" y="480" width="40" height="40" as="geometry"/>
                </mxCell>
                <mxCell id="1CsMjKwwldHacUDzMXNH-17" value="1" style="rounded=0;whiteSpace=wrap;html=1;" parent="1" vertex="1">
                    <mxGeometry x="400" y="480" width="40" height="40" as="geometry"/>
                </mxCell>
                <mxCell id="1CsMjKwwldHacUDzMXNH-18" value="" style="endArrow=none;html=1;entryX=0.5;entryY=1;entryDx=0;entryDy=0;exitX=1;exitY=0.5;exitDx=0;exitDy=0;" parent="1" source="1CsMjKwwldHacUDzMXNH-16" edge="1">
                    <mxGeometry width="50" height="50" relative="1" as="geometry">
                        <mxPoint x="590" y="520" as="sourcePoint"/>
                        <mxPoint x="340" y="480" as="targetPoint"/>
                    </mxGeometry>
                </mxCell>
                <mxCell id="1CsMjKwwldHacUDzMXNH-19" value="" style="endArrow=none;html=1;exitX=0.5;exitY=1;exitDx=0;exitDy=0;entryX=0;entryY=0.5;entryDx=0;entryDy=0;" parent="1" target="1CsMjKwwldHacUDzMXNH-17" edge="1">
                    <mxGeometry width="50" height="50" relative="1" as="geometry">
                        <mxPoint x="340" y="480" as="sourcePoint"/>
                        <mxPoint x="610" y="480" as="targetPoint"/>
                    </mxGeometry>
                </mxCell>
                <mxCell id="1CsMjKwwldHacUDzMXNH-20" value="2" style="rounded=0;whiteSpace=wrap;html=1;" parent="1" vertex="1">
                    <mxGeometry x="320" y="560" width="40" height="40" as="geometry"/>
                </mxCell>
                <mxCell id="1CsMjKwwldHacUDzMXNH-21" value="^" style="rounded=0;whiteSpace=wrap;html=1;fillColor=#FFCCFF;" parent="1" vertex="1">
                    <mxGeometry x="320" y="440" width="40" height="40" as="geometry"/>
                </mxCell>
                <mxCell id="1CsMjKwwldHacUDzMXNH-22" value="" style="rounded=0;whiteSpace=wrap;html=1;fillColor=#dae8fc;strokeColor=#6c8ebf;" parent="1" vertex="1">
                    <mxGeometry x="480" y="440" width="200" height="160" as="geometry"/>
                </mxCell>
                <mxCell id="1CsMjKwwldHacUDzMXNH-23" value="2" style="rounded=0;whiteSpace=wrap;html=1;" parent="1" vertex="1">
                    <mxGeometry x="480" y="480" width="40" height="40" as="geometry"/>
                </mxCell>
                <mxCell id="1CsMjKwwldHacUDzMXNH-24" value="1" style="rounded=0;whiteSpace=wrap;html=1;" parent="1" vertex="1">
                    <mxGeometry x="640" y="480" width="40" height="40" as="geometry"/>
                </mxCell>
                <mxCell id="1CsMjKwwldHacUDzMXNH-25" value="" style="endArrow=none;html=1;entryX=0.5;entryY=1;entryDx=0;entryDy=0;exitX=1;exitY=0.5;exitDx=0;exitDy=0;" parent="1" source="1CsMjKwwldHacUDzMXNH-23" target="1CsMjKwwldHacUDzMXNH-28" edge="1">
                    <mxGeometry width="50" height="50" relative="1" as="geometry">
                        <mxPoint x="830" y="525" as="sourcePoint"/>
                        <mxPoint x="580" y="485" as="targetPoint"/>
                    </mxGeometry>
                </mxCell>
                <mxCell id="1CsMjKwwldHacUDzMXNH-26" value="" style="endArrow=none;html=1;exitX=0.5;exitY=1;exitDx=0;exitDy=0;entryX=0;entryY=0.5;entryDx=0;entryDy=0;" parent="1" source="1CsMjKwwldHacUDzMXNH-28" target="1CsMjKwwldHacUDzMXNH-24" edge="1">
                    <mxGeometry width="50" height="50" relative="1" as="geometry">
                        <mxPoint x="580" y="485" as="sourcePoint"/>
                        <mxPoint x="850" y="485" as="targetPoint"/>
                    </mxGeometry>
                </mxCell>
                <mxCell id="1CsMjKwwldHacUDzMXNH-27" value="2" style="rounded=0;whiteSpace=wrap;html=1;" parent="1" vertex="1">
                    <mxGeometry x="560" y="560" width="40" height="40" as="geometry"/>
                </mxCell>
                <mxCell id="1CsMjKwwldHacUDzMXNH-28" value="^" style="rounded=0;whiteSpace=wrap;html=1;fillColor=#FFCCFF;" parent="1" vertex="1">
                    <mxGeometry x="560" y="440" width="40" height="40" as="geometry"/>
                </mxCell>
                <mxCell id="1CsMjKwwldHacUDzMXNH-29" value="" style="rounded=0;whiteSpace=wrap;html=1;fillColor=#dae8fc;strokeColor=#6c8ebf;" parent="1" vertex="1">
                    <mxGeometry x="720" y="240" width="200" height="160" as="geometry"/>
                </mxCell>
                <mxCell id="1CsMjKwwldHacUDzMXNH-30" value="a" style="rounded=0;whiteSpace=wrap;html=1;" parent="1" vertex="1">
                    <mxGeometry x="720" y="280" width="40" height="40" as="geometry"/>
                </mxCell>
                <mxCell id="1CsMjKwwldHacUDzMXNH-31" value="0" style="rounded=0;whiteSpace=wrap;html=1;" parent="1" vertex="1">
                    <mxGeometry x="880" y="280" width="40" height="40" as="geometry"/>
                </mxCell>
                <mxCell id="1CsMjKwwldHacUDzMXNH-32" value="" style="endArrow=none;html=1;entryX=0.5;entryY=1;entryDx=0;entryDy=0;exitX=1;exitY=0.5;exitDx=0;exitDy=0;" parent="1" source="1CsMjKwwldHacUDzMXNH-30" edge="1">
                    <mxGeometry width="50" height="50" relative="1" as="geometry">
                        <mxPoint x="1070" y="320" as="sourcePoint"/>
                        <mxPoint x="820" y="280" as="targetPoint"/>
                    </mxGeometry>
                </mxCell>
                <mxCell id="1CsMjKwwldHacUDzMXNH-33" value="" style="endArrow=none;html=1;exitX=0.5;exitY=1;exitDx=0;exitDy=0;entryX=0;entryY=0.5;entryDx=0;entryDy=0;" parent="1" target="1CsMjKwwldHacUDzMXNH-31" edge="1">
                    <mxGeometry width="50" height="50" relative="1" as="geometry">
                        <mxPoint x="820" y="280" as="sourcePoint"/>
                        <mxPoint x="1090" y="280" as="targetPoint"/>
                    </mxGeometry>
                </mxCell>
                <mxCell id="1CsMjKwwldHacUDzMXNH-34" value="0" style="rounded=0;whiteSpace=wrap;html=1;" parent="1" vertex="1">
                    <mxGeometry x="800" y="360" width="40" height="40" as="geometry"/>
                </mxCell>
                <mxCell id="1CsMjKwwldHacUDzMXNH-35" value="*" style="rounded=0;whiteSpace=wrap;html=1;fillColor=#CCFFFF;" parent="1" vertex="1">
                    <mxGeometry x="800" y="240" width="40" height="40" as="geometry"/>
                </mxCell>
                <mxCell id="1CsMjKwwldHacUDzMXNH-83" value="" style="rounded=0;whiteSpace=wrap;html=1;fillColor=#dae8fc;strokeColor=#6c8ebf;" parent="1" vertex="1">
                    <mxGeometry x="960" y="40" width="200" height="200" as="geometry"/>
                </mxCell>
                <mxCell id="1CsMjKwwldHacUDzMXNH-84" value="2" style="rounded=0;whiteSpace=wrap;html=1;" parent="1" vertex="1">
                    <mxGeometry x="960" y="80" width="40" height="40" as="geometry"/>
                </mxCell>
                <mxCell id="1CsMjKwwldHacUDzMXNH-85" value="0" style="rounded=0;whiteSpace=wrap;html=1;" parent="1" vertex="1">
                    <mxGeometry x="1120" y="80" width="40" height="40" as="geometry"/>
                </mxCell>
                <mxCell id="1CsMjKwwldHacUDzMXNH-86" value="" style="endArrow=none;html=1;entryX=0.5;entryY=1;entryDx=0;entryDy=0;exitX=1;exitY=0.5;exitDx=0;exitDy=0;" parent="1" source="1CsMjKwwldHacUDzMXNH-84" edge="1">
                    <mxGeometry width="50" height="50" relative="1" as="geometry">
                        <mxPoint x="1310" y="120" as="sourcePoint"/>
                        <mxPoint x="1060" y="80" as="targetPoint"/>
                    </mxGeometry>
                </mxCell>
                <mxCell id="1CsMjKwwldHacUDzMXNH-87" value="" style="endArrow=none;html=1;exitX=0.5;exitY=1;exitDx=0;exitDy=0;entryX=0;entryY=0.5;entryDx=0;entryDy=0;" parent="1" target="1CsMjKwwldHacUDzMXNH-85" edge="1">
                    <mxGeometry width="50" height="50" relative="1" as="geometry">
                        <mxPoint x="1060" y="80" as="sourcePoint"/>
                        <mxPoint x="1330" y="80" as="targetPoint"/>
                    </mxGeometry>
                </mxCell>
                <mxCell id="1CsMjKwwldHacUDzMXNH-89" value="/" style="rounded=0;whiteSpace=wrap;html=1;fillColor=#CCFFFF;" parent="1" vertex="1">
                    <mxGeometry x="1040" y="40" width="40" height="40" as="geometry"/>
                </mxCell>
                <mxCell id="1CsMjKwwldHacUDzMXNH-90" value="2" style="rounded=0;whiteSpace=wrap;html=1;" parent="1" vertex="1">
                    <mxGeometry x="960" y="200" width="40" height="40" as="geometry"/>
                </mxCell>
                <mxCell id="1CsMjKwwldHacUDzMXNH-91" value="0" style="rounded=0;whiteSpace=wrap;html=1;" parent="1" vertex="1">
                    <mxGeometry x="1120" y="200" width="40" height="40" as="geometry"/>
                </mxCell>
                <mxCell id="1CsMjKwwldHacUDzMXNH-92" value="" style="endArrow=none;html=1;entryX=0.5;entryY=1;entryDx=0;entryDy=0;exitX=1;exitY=0.5;exitDx=0;exitDy=0;" parent="1" source="1CsMjKwwldHacUDzMXNH-90" edge="1">
                    <mxGeometry width="50" height="50" relative="1" as="geometry">
                        <mxPoint x="1310" y="240" as="sourcePoint"/>
                        <mxPoint x="1060" y="200" as="targetPoint"/>
                    </mxGeometry>
                </mxCell>
                <mxCell id="1CsMjKwwldHacUDzMXNH-93" value="" style="endArrow=none;html=1;exitX=0.5;exitY=1;exitDx=0;exitDy=0;entryX=0;entryY=0.5;entryDx=0;entryDy=0;" parent="1" target="1CsMjKwwldHacUDzMXNH-91" edge="1">
                    <mxGeometry width="50" height="50" relative="1" as="geometry">
                        <mxPoint x="1060" y="200" as="sourcePoint"/>
                        <mxPoint x="1330" y="200" as="targetPoint"/>
                    </mxGeometry>
                </mxCell>
                <mxCell id="1CsMjKwwldHacUDzMXNH-94" value="/" style="rounded=0;whiteSpace=wrap;html=1;fillColor=#CCFFFF;" parent="1" vertex="1">
                    <mxGeometry x="1040" y="160" width="40" height="40" as="geometry"/>
                </mxCell>
                <mxCell id="1CsMjKwwldHacUDzMXNH-182" value="" style="rounded=0;whiteSpace=wrap;html=1;fillColor=#dae8fc;strokeColor=#6c8ebf;" parent="1" vertex="1">
                    <mxGeometry x="720" y="440" width="200" height="160" as="geometry"/>
                </mxCell>
                <mxCell id="1CsMjKwwldHacUDzMXNH-183" value="1" style="rounded=0;whiteSpace=wrap;html=1;" parent="1" vertex="1">
                    <mxGeometry x="720" y="480" width="40" height="40" as="geometry"/>
                </mxCell>
                <mxCell id="1CsMjKwwldHacUDzMXNH-184" value="10" style="rounded=0;whiteSpace=wrap;html=1;" parent="1" vertex="1">
                    <mxGeometry x="880" y="480" width="40" height="40" as="geometry"/>
                </mxCell>
                <mxCell id="1CsMjKwwldHacUDzMXNH-185" value="" style="endArrow=none;html=1;entryX=0.5;entryY=1;entryDx=0;entryDy=0;exitX=1;exitY=0.5;exitDx=0;exitDy=0;" parent="1" source="1CsMjKwwldHacUDzMXNH-183" target="1CsMjKwwldHacUDzMXNH-188" edge="1">
                    <mxGeometry width="50" height="50" relative="1" as="geometry">
                        <mxPoint x="1070" y="525" as="sourcePoint"/>
                        <mxPoint x="820" y="485" as="targetPoint"/>
                    </mxGeometry>
                </mxCell>
                <mxCell id="1CsMjKwwldHacUDzMXNH-186" value="" style="endArrow=none;html=1;exitX=0.5;exitY=1;exitDx=0;exitDy=0;entryX=0;entryY=0.5;entryDx=0;entryDy=0;" parent="1" source="1CsMjKwwldHacUDzMXNH-188" target="1CsMjKwwldHacUDzMXNH-184" edge="1">
                    <mxGeometry width="50" height="50" relative="1" as="geometry">
                        <mxPoint x="820" y="485" as="sourcePoint"/>
                        <mxPoint x="1090" y="485" as="targetPoint"/>
                    </mxGeometry>
                </mxCell>
                <mxCell id="1CsMjKwwldHacUDzMXNH-187" value="1" style="rounded=0;whiteSpace=wrap;html=1;" parent="1" vertex="1">
                    <mxGeometry x="800" y="560" width="40" height="40" as="geometry"/>
                </mxCell>
                <mxCell id="1CsMjKwwldHacUDzMXNH-188" value="^" style="rounded=0;whiteSpace=wrap;html=1;fillColor=#FFCCFF;" parent="1" vertex="1">
                    <mxGeometry x="800" y="440" width="40" height="40" as="geometry"/>
                </mxCell>
                <mxCell id="1CsMjKwwldHacUDzMXNH-189" value="" style="rounded=0;whiteSpace=wrap;html=1;fillColor=#dae8fc;strokeColor=#6c8ebf;" parent="1" vertex="1">
                    <mxGeometry x="960" y="440" width="200" height="160" as="geometry"/>
                </mxCell>
                <mxCell id="1CsMjKwwldHacUDzMXNH-190" value="0" style="rounded=0;whiteSpace=wrap;html=1;" parent="1" vertex="1">
                    <mxGeometry x="960" y="480" width="40" height="40" as="geometry"/>
                </mxCell>
                <mxCell id="1CsMjKwwldHacUDzMXNH-191" value="10" style="rounded=0;whiteSpace=wrap;html=1;" parent="1" vertex="1">
                    <mxGeometry x="1120" y="480" width="40" height="40" as="geometry"/>
                </mxCell>
                <mxCell id="1CsMjKwwldHacUDzMXNH-192" value="" style="endArrow=none;html=1;entryX=0.5;entryY=1;entryDx=0;entryDy=0;exitX=1;exitY=0.5;exitDx=0;exitDy=0;" parent="1" source="1CsMjKwwldHacUDzMXNH-190" target="1CsMjKwwldHacUDzMXNH-195" edge="1">
                    <mxGeometry width="50" height="50" relative="1" as="geometry">
                        <mxPoint x="1310" y="525" as="sourcePoint"/>
                        <mxPoint x="1060" y="485" as="targetPoint"/>
                    </mxGeometry>
                </mxCell>
                <mxCell id="1CsMjKwwldHacUDzMXNH-193" value="" style="endArrow=none;html=1;exitX=0.5;exitY=1;exitDx=0;exitDy=0;entryX=0;entryY=0.5;entryDx=0;entryDy=0;" parent="1" source="1CsMjKwwldHacUDzMXNH-195" target="1CsMjKwwldHacUDzMXNH-191" edge="1">
                    <mxGeometry width="50" height="50" relative="1" as="geometry">
                        <mxPoint x="1060" y="485" as="sourcePoint"/>
                        <mxPoint x="1330" y="485" as="targetPoint"/>
                    </mxGeometry>
                </mxCell>
                <mxCell id="1CsMjKwwldHacUDzMXNH-194" value="0" style="rounded=0;whiteSpace=wrap;html=1;" parent="1" vertex="1">
                    <mxGeometry x="1040" y="560" width="40" height="40" as="geometry"/>
                </mxCell>
                <mxCell id="1CsMjKwwldHacUDzMXNH-195" value="^" style="rounded=0;whiteSpace=wrap;html=1;fillColor=#FFCCFF;" parent="1" vertex="1">
                    <mxGeometry x="1040" y="440" width="40" height="40" as="geometry"/>
                </mxCell>
                <mxCell id="NSWRQbyBQvF78Sn2wkFV-2" value="*" style="rounded=0;whiteSpace=wrap;html=1;fillColor=#CCFFFF;" parent="1" vertex="1">
                    <mxGeometry x="1480" y="600" width="40" height="40" as="geometry"/>
                </mxCell>
                <mxCell id="NSWRQbyBQvF78Sn2wkFV-3" value="a" style="rounded=0;whiteSpace=wrap;html=1;" parent="1" vertex="1">
                    <mxGeometry x="1440" y="680" width="40" height="40" as="geometry"/>
                </mxCell>
                <mxCell id="NSWRQbyBQvF78Sn2wkFV-4" value="2" style="rounded=0;whiteSpace=wrap;html=1;" parent="1" vertex="1">
                    <mxGeometry x="1560" y="640" width="40" height="40" as="geometry"/>
                </mxCell>
                <mxCell id="NSWRQbyBQvF78Sn2wkFV-6" value="" style="endArrow=none;html=1;entryX=0.5;entryY=1;entryDx=0;entryDy=0;exitX=0;exitY=0.5;exitDx=0;exitDy=0;" parent="1" source="NSWRQbyBQvF78Sn2wkFV-4" target="NSWRQbyBQvF78Sn2wkFV-2" edge="1">
                    <mxGeometry width="50" height="50" relative="1" as="geometry">
                        <mxPoint x="1500" y="700" as="sourcePoint"/>
                        <mxPoint x="1550" y="650" as="targetPoint"/>
                    </mxGeometry>
                </mxCell>
                <mxCell id="NSWRQbyBQvF78Sn2wkFV-8" value="*" style="rounded=0;whiteSpace=wrap;html=1;fillColor=#CCFFFF;" parent="1" vertex="1">
                    <mxGeometry x="1360" y="640" width="40" height="40" as="geometry"/>
                </mxCell>
                <mxCell id="NSWRQbyBQvF78Sn2wkFV-9" value="2" style="rounded=0;whiteSpace=wrap;html=1;" parent="1" vertex="1">
                    <mxGeometry x="1280" y="680" width="40" height="40" as="geometry"/>
                </mxCell>
                <mxCell id="NSWRQbyBQvF78Sn2wkFV-10" value="" style="endArrow=none;html=1;fontSize=40;entryX=0.5;entryY=1;entryDx=0;entryDy=0;exitX=1;exitY=0.5;exitDx=0;exitDy=0;" parent="1" source="NSWRQbyBQvF78Sn2wkFV-9" target="NSWRQbyBQvF78Sn2wkFV-8" edge="1">
                    <mxGeometry width="50" height="50" relative="1" as="geometry">
                        <mxPoint x="1370" y="750" as="sourcePoint"/>
                        <mxPoint x="1420" y="700" as="targetPoint"/>
                    </mxGeometry>
                </mxCell>
                <mxCell id="NSWRQbyBQvF78Sn2wkFV-11" value="" style="endArrow=none;html=1;fontSize=40;entryX=0.5;entryY=1;entryDx=0;entryDy=0;exitX=0;exitY=0.5;exitDx=0;exitDy=0;" parent="1" source="NSWRQbyBQvF78Sn2wkFV-3" target="NSWRQbyBQvF78Sn2wkFV-8" edge="1">
                    <mxGeometry width="50" height="50" relative="1" as="geometry">
                        <mxPoint x="1380" y="610" as="sourcePoint"/>
                        <mxPoint x="1430" y="560" as="targetPoint"/>
                    </mxGeometry>
                </mxCell>
                <mxCell id="NSWRQbyBQvF78Sn2wkFV-12" value="" style="endArrow=none;html=1;fontSize=40;entryX=0.5;entryY=1;entryDx=0;entryDy=0;exitX=1;exitY=0.5;exitDx=0;exitDy=0;" parent="1" source="NSWRQbyBQvF78Sn2wkFV-8" target="NSWRQbyBQvF78Sn2wkFV-2" edge="1">
                    <mxGeometry width="50" height="50" relative="1" as="geometry">
                        <mxPoint x="1380" y="610" as="sourcePoint"/>
                        <mxPoint x="1430" y="560" as="targetPoint"/>
                    </mxGeometry>
                </mxCell>
                <mxCell id="NSWRQbyBQvF78Sn2wkFV-13" value="&lt;font style=&quot;font-size: 20px;&quot;&gt;Commutative&lt;/font&gt;" style="text;html=1;strokeColor=none;fillColor=none;align=center;verticalAlign=middle;whiteSpace=wrap;rounded=0;fontSize=40;" parent="1" vertex="1">
                    <mxGeometry x="1280" y="600" width="170" height="30" as="geometry"/>
                </mxCell>
                <mxCell id="NSWRQbyBQvF78Sn2wkFV-14" value="*" style="rounded=0;whiteSpace=wrap;html=1;fillColor=#CCFFFF;" parent="1" vertex="1">
                    <mxGeometry x="1480" y="760" width="40" height="40" as="geometry"/>
                </mxCell>
                <mxCell id="NSWRQbyBQvF78Sn2wkFV-15" value="a" style="rounded=0;whiteSpace=wrap;html=1;" parent="1" vertex="1">
                    <mxGeometry x="1400" y="800" width="40" height="40" as="geometry"/>
                </mxCell>
                <mxCell id="NSWRQbyBQvF78Sn2wkFV-16" value="4" style="rounded=0;whiteSpace=wrap;html=1;" parent="1" vertex="1">
                    <mxGeometry x="1560" y="800" width="40" height="40" as="geometry"/>
                </mxCell>
                <mxCell id="NSWRQbyBQvF78Sn2wkFV-17" value="" style="endArrow=none;html=1;entryX=0.5;entryY=1;entryDx=0;entryDy=0;exitX=0;exitY=0.5;exitDx=0;exitDy=0;" parent="1" source="NSWRQbyBQvF78Sn2wkFV-16" target="NSWRQbyBQvF78Sn2wkFV-14" edge="1">
                    <mxGeometry width="50" height="50" relative="1" as="geometry">
                        <mxPoint x="1500" y="860" as="sourcePoint"/>
                        <mxPoint x="1550" y="810" as="targetPoint"/>
                    </mxGeometry>
                </mxCell>
                <mxCell id="NSWRQbyBQvF78Sn2wkFV-23" value="" style="endArrow=none;html=1;fontSize=20;entryX=0.5;entryY=1;entryDx=0;entryDy=0;exitX=1;exitY=0.5;exitDx=0;exitDy=0;" parent="1" source="NSWRQbyBQvF78Sn2wkFV-15" target="NSWRQbyBQvF78Sn2wkFV-14" edge="1">
                    <mxGeometry width="50" height="50" relative="1" as="geometry">
                        <mxPoint x="1330" y="720" as="sourcePoint"/>
                        <mxPoint x="1380" y="670" as="targetPoint"/>
                    </mxGeometry>
                </mxCell>
                <mxCell id="NSWRQbyBQvF78Sn2wkFV-25" value="" style="rounded=0;whiteSpace=wrap;html=1;strokeColor=#6c8ebf;fontSize=20;fillColor=#dae8fc;" parent="1" vertex="1">
                    <mxGeometry x="1200" y="40" width="400" height="400" as="geometry"/>
                </mxCell>
                <mxCell id="NSWRQbyBQvF78Sn2wkFV-26" value="+" style="rounded=0;whiteSpace=wrap;html=1;fillColor=#CCFFCC;" parent="1" vertex="1">
                    <mxGeometry x="1400" y="40" width="40" height="40" as="geometry"/>
                </mxCell>
                <mxCell id="NSWRQbyBQvF78Sn2wkFV-27" value="a" style="rounded=0;whiteSpace=wrap;html=1;" parent="1" vertex="1">
                    <mxGeometry x="1360" y="120" width="40" height="40" as="geometry"/>
                </mxCell>
                <mxCell id="NSWRQbyBQvF78Sn2wkFV-28" value="1" style="rounded=0;whiteSpace=wrap;html=1;" parent="1" vertex="1">
                    <mxGeometry x="1480" y="80" width="40" height="40" as="geometry"/>
                </mxCell>
                <mxCell id="NSWRQbyBQvF78Sn2wkFV-29" value="" style="endArrow=none;html=1;entryX=0.5;entryY=1;entryDx=0;entryDy=0;exitX=0;exitY=0.5;exitDx=0;exitDy=0;" parent="1" source="NSWRQbyBQvF78Sn2wkFV-28" target="NSWRQbyBQvF78Sn2wkFV-26" edge="1">
                    <mxGeometry width="50" height="50" relative="1" as="geometry">
                        <mxPoint x="1420" y="140" as="sourcePoint"/>
                        <mxPoint x="1470" y="90" as="targetPoint"/>
                    </mxGeometry>
                </mxCell>
                <mxCell id="NSWRQbyBQvF78Sn2wkFV-30" value="+" style="rounded=0;whiteSpace=wrap;html=1;fillColor=#CCFFCC;" parent="1" vertex="1">
                    <mxGeometry x="1280" y="80" width="40" height="40" as="geometry"/>
                </mxCell>
                <mxCell id="NSWRQbyBQvF78Sn2wkFV-31" value="2" style="rounded=0;whiteSpace=wrap;html=1;" parent="1" vertex="1">
                    <mxGeometry x="1200" y="120" width="40" height="40" as="geometry"/>
                </mxCell>
                <mxCell id="NSWRQbyBQvF78Sn2wkFV-32" value="" style="endArrow=none;html=1;fontSize=40;entryX=0.5;entryY=1;entryDx=0;entryDy=0;exitX=1;exitY=0.5;exitDx=0;exitDy=0;" parent="1" target="NSWRQbyBQvF78Sn2wkFV-30" edge="1">
                    <mxGeometry width="50" height="50" relative="1" as="geometry">
                        <mxPoint x="1240" y="140" as="sourcePoint"/>
                        <mxPoint x="1340" y="140" as="targetPoint"/>
                    </mxGeometry>
                </mxCell>
                <mxCell id="NSWRQbyBQvF78Sn2wkFV-33" value="" style="endArrow=none;html=1;fontSize=40;entryX=0.5;entryY=1;entryDx=0;entryDy=0;exitX=0;exitY=0.5;exitDx=0;exitDy=0;" parent="1" source="NSWRQbyBQvF78Sn2wkFV-27" target="NSWRQbyBQvF78Sn2wkFV-30" edge="1">
                    <mxGeometry width="50" height="50" relative="1" as="geometry">
                        <mxPoint x="1300" y="50" as="sourcePoint"/>
                        <mxPoint x="1350" as="targetPoint"/>
                    </mxGeometry>
                </mxCell>
                <mxCell id="NSWRQbyBQvF78Sn2wkFV-34" value="" style="endArrow=none;html=1;fontSize=40;entryX=0.5;entryY=1;entryDx=0;entryDy=0;exitX=1;exitY=0.5;exitDx=0;exitDy=0;" parent="1" source="NSWRQbyBQvF78Sn2wkFV-30" target="NSWRQbyBQvF78Sn2wkFV-26" edge="1">
                    <mxGeometry width="50" height="50" relative="1" as="geometry">
                        <mxPoint x="1300" y="50" as="sourcePoint"/>
                        <mxPoint x="1350" as="targetPoint"/>
                    </mxGeometry>
                </mxCell>
                <mxCell id="NSWRQbyBQvF78Sn2wkFV-35" value="&lt;font style=&quot;font-size: 20px;&quot;&gt;Commutative&lt;/font&gt;" style="text;html=1;strokeColor=none;fillColor=none;align=center;verticalAlign=middle;whiteSpace=wrap;rounded=0;fontSize=40;" parent="1" vertex="1">
                    <mxGeometry x="1200" y="40" width="170" height="30" as="geometry"/>
                </mxCell>
                <mxCell id="NSWRQbyBQvF78Sn2wkFV-36" value="+" style="rounded=0;whiteSpace=wrap;html=1;fillColor=#CCFFCC;" parent="1" vertex="1">
                    <mxGeometry x="1400" y="340" width="40" height="40" as="geometry"/>
                </mxCell>
                <mxCell id="NSWRQbyBQvF78Sn2wkFV-37" value="a" style="rounded=0;whiteSpace=wrap;html=1;" parent="1" vertex="1">
                    <mxGeometry x="1320" y="380" width="40" height="40" as="geometry"/>
                </mxCell>
                <mxCell id="NSWRQbyBQvF78Sn2wkFV-38" value="3" style="rounded=0;whiteSpace=wrap;html=1;" parent="1" vertex="1">
                    <mxGeometry x="1480" y="380" width="40" height="40" as="geometry"/>
                </mxCell>
                <mxCell id="NSWRQbyBQvF78Sn2wkFV-39" value="" style="endArrow=none;html=1;entryX=0.5;entryY=1;entryDx=0;entryDy=0;exitX=0;exitY=0.5;exitDx=0;exitDy=0;" parent="1" source="NSWRQbyBQvF78Sn2wkFV-38" target="NSWRQbyBQvF78Sn2wkFV-36" edge="1">
                    <mxGeometry width="50" height="50" relative="1" as="geometry">
                        <mxPoint x="1420" y="420" as="sourcePoint"/>
                        <mxPoint x="1470" y="370" as="targetPoint"/>
                    </mxGeometry>
                </mxCell>
                <mxCell id="NSWRQbyBQvF78Sn2wkFV-40" value="" style="endArrow=none;html=1;fontSize=20;entryX=0.5;entryY=1;entryDx=0;entryDy=0;exitX=1;exitY=0.5;exitDx=0;exitDy=0;" parent="1" source="NSWRQbyBQvF78Sn2wkFV-37" target="NSWRQbyBQvF78Sn2wkFV-36" edge="1">
                    <mxGeometry width="50" height="50" relative="1" as="geometry">
                        <mxPoint x="1250" y="280" as="sourcePoint"/>
                        <mxPoint x="1300" y="230" as="targetPoint"/>
                    </mxGeometry>
                </mxCell>
                <mxCell id="NSWRQbyBQvF78Sn2wkFV-42" value="+" style="rounded=0;whiteSpace=wrap;html=1;fillColor=#CCFFCC;" parent="1" vertex="1">
                    <mxGeometry x="1400" y="200" width="40" height="40" as="geometry"/>
                </mxCell>
                <mxCell id="NSWRQbyBQvF78Sn2wkFV-43" value="1" style="rounded=0;whiteSpace=wrap;html=1;" parent="1" vertex="1">
                    <mxGeometry x="1560" y="280" width="40" height="40" as="geometry"/>
                </mxCell>
                <mxCell id="NSWRQbyBQvF78Sn2wkFV-44" value="a" style="rounded=0;whiteSpace=wrap;html=1;" parent="1" vertex="1">
                    <mxGeometry x="1280" y="240" width="40" height="40" as="geometry"/>
                </mxCell>
                <mxCell id="NSWRQbyBQvF78Sn2wkFV-45" value="" style="endArrow=none;html=1;entryX=0.5;entryY=1;entryDx=0;entryDy=0;exitX=1;exitY=0.5;exitDx=0;exitDy=0;" parent="1" source="NSWRQbyBQvF78Sn2wkFV-44" target="NSWRQbyBQvF78Sn2wkFV-42" edge="1">
                    <mxGeometry width="50" height="50" relative="1" as="geometry">
                        <mxPoint x="1420" y="260" as="sourcePoint"/>
                        <mxPoint x="1470" y="210" as="targetPoint"/>
                    </mxGeometry>
                </mxCell>
                <mxCell id="NSWRQbyBQvF78Sn2wkFV-46" value="+" style="rounded=0;whiteSpace=wrap;html=1;fillColor=#CCFFCC;" parent="1" vertex="1">
                    <mxGeometry x="1480" y="240" width="40" height="40" as="geometry"/>
                </mxCell>
                <mxCell id="NSWRQbyBQvF78Sn2wkFV-47" value="2" style="rounded=0;whiteSpace=wrap;html=1;" parent="1" vertex="1">
                    <mxGeometry x="1400" y="280" width="40" height="40" as="geometry"/>
                </mxCell>
                <mxCell id="NSWRQbyBQvF78Sn2wkFV-48" value="" style="endArrow=none;html=1;fontSize=40;entryX=0.5;entryY=1;entryDx=0;entryDy=0;exitX=1;exitY=0.5;exitDx=0;exitDy=0;" parent="1" source="NSWRQbyBQvF78Sn2wkFV-47" target="NSWRQbyBQvF78Sn2wkFV-46" edge="1">
                    <mxGeometry width="50" height="50" relative="1" as="geometry">
                        <mxPoint x="1490" y="310" as="sourcePoint"/>
                        <mxPoint x="1540" y="260" as="targetPoint"/>
                    </mxGeometry>
                </mxCell>
                <mxCell id="NSWRQbyBQvF78Sn2wkFV-49" value="" style="endArrow=none;html=1;fontSize=40;exitX=0;exitY=0.5;exitDx=0;exitDy=0;entryX=0.5;entryY=1;entryDx=0;entryDy=0;" parent="1" source="NSWRQbyBQvF78Sn2wkFV-43" target="NSWRQbyBQvF78Sn2wkFV-46" edge="1">
                    <mxGeometry width="50" height="50" relative="1" as="geometry">
                        <mxPoint x="1500" y="170" as="sourcePoint"/>
                        <mxPoint x="1550" y="120" as="targetPoint"/>
                    </mxGeometry>
                </mxCell>
                <mxCell id="NSWRQbyBQvF78Sn2wkFV-52" value="" style="endArrow=none;html=1;fontSize=20;entryX=0.5;entryY=1;entryDx=0;entryDy=0;exitX=0;exitY=0.5;exitDx=0;exitDy=0;" parent="1" source="NSWRQbyBQvF78Sn2wkFV-46" target="NSWRQbyBQvF78Sn2wkFV-42" edge="1">
                    <mxGeometry width="50" height="50" relative="1" as="geometry">
                        <mxPoint x="1380" y="230" as="sourcePoint"/>
                        <mxPoint x="1430" y="180" as="targetPoint"/>
                    </mxGeometry>
                </mxCell>
            </root>
        </mxGraphModel>
    </diagram>
    <diagram id="eP_WFWEhfmhEmDNXy_K8" name="Simplify-Advanced">
        <mxGraphModel dx="1820" dy="1942" grid="1" gridSize="10" guides="1" tooltips="1" connect="1" arrows="1" fold="1" page="1" pageScale="1" pageWidth="1600" pageHeight="900" math="0" shadow="0">
            <root>
                <mxCell id="0"/>
                <mxCell id="1" parent="0"/>
                <mxCell id="qLU_nFHRs87C7MvxwgH0-1" value="" style="rounded=0;whiteSpace=wrap;html=1;strokeColor=#d6b656;fontSize=40;fillColor=#fff2cc;" vertex="1" parent="1">
                    <mxGeometry x="2240" y="40" width="920" height="680" as="geometry"/>
                </mxCell>
                <mxCell id="qLU_nFHRs87C7MvxwgH0-2" value="" style="rounded=0;whiteSpace=wrap;html=1;strokeColor=#d6b656;fontSize=40;fillColor=#fff2cc;" vertex="1" parent="1">
                    <mxGeometry x="1640" y="40" width="560" height="680" as="geometry"/>
                </mxCell>
                <mxCell id="qLU_nFHRs87C7MvxwgH0-3" value="2" style="rounded=0;whiteSpace=wrap;html=1;" vertex="1" parent="1">
                    <mxGeometry x="2360" y="80" width="40" height="40" as="geometry"/>
                </mxCell>
                <mxCell id="qLU_nFHRs87C7MvxwgH0-4" value="4" style="rounded=0;whiteSpace=wrap;html=1;" vertex="1" parent="1">
                    <mxGeometry x="2520" y="80" width="40" height="40" as="geometry"/>
                </mxCell>
                <mxCell id="qLU_nFHRs87C7MvxwgH0-5" value="" style="endArrow=none;html=1;entryX=0.5;entryY=1;entryDx=0;entryDy=0;exitX=1;exitY=0.5;exitDx=0;exitDy=0;" edge="1" parent="1" source="qLU_nFHRs87C7MvxwgH0-3">
                    <mxGeometry width="50" height="50" relative="1" as="geometry">
                        <mxPoint x="2710" y="120" as="sourcePoint"/>
                        <mxPoint x="2460" y="80" as="targetPoint"/>
                    </mxGeometry>
                </mxCell>
                <mxCell id="qLU_nFHRs87C7MvxwgH0-6" value="" style="endArrow=none;html=1;exitX=0.5;exitY=1;exitDx=0;exitDy=0;entryX=0;entryY=0.5;entryDx=0;entryDy=0;" edge="1" parent="1" target="qLU_nFHRs87C7MvxwgH0-4">
                    <mxGeometry width="50" height="50" relative="1" as="geometry">
                        <mxPoint x="2460" y="80" as="sourcePoint"/>
                        <mxPoint x="2730" y="80" as="targetPoint"/>
                    </mxGeometry>
                </mxCell>
                <mxCell id="qLU_nFHRs87C7MvxwgH0-7" value="/" style="rounded=0;whiteSpace=wrap;html=1;fillColor=#CCFFFF;" vertex="1" parent="1">
                    <mxGeometry x="2440" y="40" width="40" height="40" as="geometry"/>
                </mxCell>
                <mxCell id="qLU_nFHRs87C7MvxwgH0-8" value="/" style="rounded=0;whiteSpace=wrap;html=1;fillColor=#CCFFFF;" vertex="1" parent="1">
                    <mxGeometry x="2440" y="160" width="40" height="40" as="geometry"/>
                </mxCell>
                <mxCell id="qLU_nFHRs87C7MvxwgH0-9" value="*" style="rounded=0;whiteSpace=wrap;html=1;fillColor=#CCFFFF;" vertex="1" parent="1">
                    <mxGeometry x="2320" y="200" width="40" height="40" as="geometry"/>
                </mxCell>
                <mxCell id="qLU_nFHRs87C7MvxwgH0-10" value="*" style="rounded=0;whiteSpace=wrap;html=1;fillColor=#CCFFFF;" vertex="1" parent="1">
                    <mxGeometry x="2560" y="200" width="40" height="40" as="geometry"/>
                </mxCell>
                <mxCell id="qLU_nFHRs87C7MvxwgH0-11" value="2" style="rounded=0;whiteSpace=wrap;html=1;" vertex="1" parent="1">
                    <mxGeometry x="2240" y="240" width="40" height="40" as="geometry"/>
                </mxCell>
                <mxCell id="qLU_nFHRs87C7MvxwgH0-12" value="1" style="rounded=0;whiteSpace=wrap;html=1;strokeColor=#FF0080;" vertex="1" parent="1">
                    <mxGeometry x="2400" y="240" width="40" height="40" as="geometry"/>
                </mxCell>
                <mxCell id="qLU_nFHRs87C7MvxwgH0-13" value="2" style="rounded=0;whiteSpace=wrap;html=1;" vertex="1" parent="1">
                    <mxGeometry x="2480" y="240" width="40" height="40" as="geometry"/>
                </mxCell>
                <mxCell id="qLU_nFHRs87C7MvxwgH0-14" value="2" style="rounded=0;whiteSpace=wrap;html=1;strokeColor=#0000FF;" vertex="1" parent="1">
                    <mxGeometry x="2640" y="240" width="40" height="40" as="geometry"/>
                </mxCell>
                <mxCell id="qLU_nFHRs87C7MvxwgH0-15" value="" style="endArrow=none;html=1;entryX=0;entryY=0.5;entryDx=0;entryDy=0;exitX=0.5;exitY=1;exitDx=0;exitDy=0;" edge="1" parent="1" source="qLU_nFHRs87C7MvxwgH0-9" target="qLU_nFHRs87C7MvxwgH0-12">
                    <mxGeometry width="50" height="50" relative="1" as="geometry">
                        <mxPoint x="2290" y="400" as="sourcePoint"/>
                        <mxPoint x="2340" y="350" as="targetPoint"/>
                    </mxGeometry>
                </mxCell>
                <mxCell id="qLU_nFHRs87C7MvxwgH0-16" value="" style="endArrow=none;html=1;entryX=1;entryY=0.5;entryDx=0;entryDy=0;exitX=0.5;exitY=1;exitDx=0;exitDy=0;" edge="1" parent="1" source="qLU_nFHRs87C7MvxwgH0-9" target="qLU_nFHRs87C7MvxwgH0-11">
                    <mxGeometry width="50" height="50" relative="1" as="geometry">
                        <mxPoint x="2310" y="360" as="sourcePoint"/>
                        <mxPoint x="2360" y="310" as="targetPoint"/>
                    </mxGeometry>
                </mxCell>
                <mxCell id="qLU_nFHRs87C7MvxwgH0-17" value="" style="endArrow=none;html=1;entryX=0.5;entryY=1;entryDx=0;entryDy=0;exitX=1;exitY=0.5;exitDx=0;exitDy=0;" edge="1" parent="1" source="qLU_nFHRs87C7MvxwgH0-9" target="qLU_nFHRs87C7MvxwgH0-8">
                    <mxGeometry width="50" height="50" relative="1" as="geometry">
                        <mxPoint x="2370" y="230" as="sourcePoint"/>
                        <mxPoint x="2420" y="180" as="targetPoint"/>
                    </mxGeometry>
                </mxCell>
                <mxCell id="qLU_nFHRs87C7MvxwgH0-18" value="" style="endArrow=none;html=1;entryX=0.5;entryY=1;entryDx=0;entryDy=0;exitX=0;exitY=0.5;exitDx=0;exitDy=0;" edge="1" parent="1" source="qLU_nFHRs87C7MvxwgH0-10" target="qLU_nFHRs87C7MvxwgH0-8">
                    <mxGeometry width="50" height="50" relative="1" as="geometry">
                        <mxPoint x="2470" y="260" as="sourcePoint"/>
                        <mxPoint x="2520" y="210" as="targetPoint"/>
                    </mxGeometry>
                </mxCell>
                <mxCell id="qLU_nFHRs87C7MvxwgH0-19" value="" style="endArrow=none;html=1;entryX=0.5;entryY=1;entryDx=0;entryDy=0;exitX=1;exitY=0.5;exitDx=0;exitDy=0;" edge="1" parent="1" source="qLU_nFHRs87C7MvxwgH0-13" target="qLU_nFHRs87C7MvxwgH0-10">
                    <mxGeometry width="50" height="50" relative="1" as="geometry">
                        <mxPoint x="2470" y="260" as="sourcePoint"/>
                        <mxPoint x="2520" y="210" as="targetPoint"/>
                    </mxGeometry>
                </mxCell>
                <mxCell id="qLU_nFHRs87C7MvxwgH0-20" value="" style="endArrow=none;html=1;entryX=0.5;entryY=1;entryDx=0;entryDy=0;exitX=0;exitY=0.5;exitDx=0;exitDy=0;" edge="1" parent="1" source="qLU_nFHRs87C7MvxwgH0-14" target="qLU_nFHRs87C7MvxwgH0-10">
                    <mxGeometry width="50" height="50" relative="1" as="geometry">
                        <mxPoint x="2470" y="260" as="sourcePoint"/>
                        <mxPoint x="2520" y="210" as="targetPoint"/>
                    </mxGeometry>
                </mxCell>
                <mxCell id="qLU_nFHRs87C7MvxwgH0-21" value="*" style="rounded=0;whiteSpace=wrap;html=1;fillColor=#CCFFFF;" vertex="1" parent="1">
                    <mxGeometry x="2440" y="320" width="40" height="40" as="geometry"/>
                </mxCell>
                <mxCell id="qLU_nFHRs87C7MvxwgH0-22" value="/" style="rounded=0;whiteSpace=wrap;html=1;fillColor=#CCFFFF;" vertex="1" parent="1">
                    <mxGeometry x="2320" y="360" width="40" height="40" as="geometry"/>
                </mxCell>
                <mxCell id="qLU_nFHRs87C7MvxwgH0-23" value="/" style="rounded=0;whiteSpace=wrap;html=1;fillColor=#CCFFFF;" vertex="1" parent="1">
                    <mxGeometry x="2560" y="360" width="40" height="40" as="geometry"/>
                </mxCell>
                <mxCell id="qLU_nFHRs87C7MvxwgH0-24" value="2" style="rounded=0;whiteSpace=wrap;html=1;" vertex="1" parent="1">
                    <mxGeometry x="2240" y="400" width="40" height="40" as="geometry"/>
                </mxCell>
                <mxCell id="qLU_nFHRs87C7MvxwgH0-25" value="2" style="rounded=0;whiteSpace=wrap;html=1;" vertex="1" parent="1">
                    <mxGeometry x="2480" y="400" width="40" height="40" as="geometry"/>
                </mxCell>
                <mxCell id="qLU_nFHRs87C7MvxwgH0-26" value="" style="endArrow=none;html=1;entryX=0;entryY=0.5;entryDx=0;entryDy=0;exitX=0.5;exitY=1;exitDx=0;exitDy=0;" edge="1" parent="1" source="qLU_nFHRs87C7MvxwgH0-22">
                    <mxGeometry width="50" height="50" relative="1" as="geometry">
                        <mxPoint x="2290" y="560" as="sourcePoint"/>
                        <mxPoint x="2400" y="420" as="targetPoint"/>
                    </mxGeometry>
                </mxCell>
                <mxCell id="qLU_nFHRs87C7MvxwgH0-27" value="" style="endArrow=none;html=1;entryX=1;entryY=0.5;entryDx=0;entryDy=0;exitX=0.5;exitY=1;exitDx=0;exitDy=0;" edge="1" parent="1" source="qLU_nFHRs87C7MvxwgH0-22" target="qLU_nFHRs87C7MvxwgH0-24">
                    <mxGeometry width="50" height="50" relative="1" as="geometry">
                        <mxPoint x="2310" y="520" as="sourcePoint"/>
                        <mxPoint x="2360" y="470" as="targetPoint"/>
                    </mxGeometry>
                </mxCell>
                <mxCell id="qLU_nFHRs87C7MvxwgH0-28" value="" style="endArrow=none;html=1;entryX=0.5;entryY=1;entryDx=0;entryDy=0;exitX=1;exitY=0.5;exitDx=0;exitDy=0;" edge="1" parent="1" source="qLU_nFHRs87C7MvxwgH0-22" target="qLU_nFHRs87C7MvxwgH0-21">
                    <mxGeometry width="50" height="50" relative="1" as="geometry">
                        <mxPoint x="2370" y="390" as="sourcePoint"/>
                        <mxPoint x="2420" y="340" as="targetPoint"/>
                    </mxGeometry>
                </mxCell>
                <mxCell id="qLU_nFHRs87C7MvxwgH0-29" value="" style="endArrow=none;html=1;entryX=0.5;entryY=1;entryDx=0;entryDy=0;exitX=0;exitY=0.5;exitDx=0;exitDy=0;" edge="1" parent="1" source="qLU_nFHRs87C7MvxwgH0-23" target="qLU_nFHRs87C7MvxwgH0-21">
                    <mxGeometry width="50" height="50" relative="1" as="geometry">
                        <mxPoint x="2470" y="420" as="sourcePoint"/>
                        <mxPoint x="2520" y="370" as="targetPoint"/>
                    </mxGeometry>
                </mxCell>
                <mxCell id="qLU_nFHRs87C7MvxwgH0-30" value="" style="endArrow=none;html=1;entryX=0.5;entryY=1;entryDx=0;entryDy=0;exitX=1;exitY=0.5;exitDx=0;exitDy=0;" edge="1" parent="1" source="qLU_nFHRs87C7MvxwgH0-25" target="qLU_nFHRs87C7MvxwgH0-23">
                    <mxGeometry width="50" height="50" relative="1" as="geometry">
                        <mxPoint x="2470" y="420" as="sourcePoint"/>
                        <mxPoint x="2520" y="370" as="targetPoint"/>
                    </mxGeometry>
                </mxCell>
                <mxCell id="qLU_nFHRs87C7MvxwgH0-31" value="" style="endArrow=none;html=1;entryX=0.5;entryY=1;entryDx=0;entryDy=0;exitX=0;exitY=0.5;exitDx=0;exitDy=0;" edge="1" parent="1" target="qLU_nFHRs87C7MvxwgH0-23">
                    <mxGeometry width="50" height="50" relative="1" as="geometry">
                        <mxPoint x="2640" y="420" as="sourcePoint"/>
                        <mxPoint x="2520" y="370" as="targetPoint"/>
                    </mxGeometry>
                </mxCell>
                <mxCell id="qLU_nFHRs87C7MvxwgH0-32" value="*" style="rounded=0;whiteSpace=wrap;html=1;fillColor=#CCFFFF;" vertex="1" parent="1">
                    <mxGeometry x="2440" y="480" width="40" height="40" as="geometry"/>
                </mxCell>
                <mxCell id="qLU_nFHRs87C7MvxwgH0-33" value="/" style="rounded=0;whiteSpace=wrap;html=1;fillColor=#CCFFFF;" vertex="1" parent="1">
                    <mxGeometry x="2320" y="520" width="40" height="40" as="geometry"/>
                </mxCell>
                <mxCell id="qLU_nFHRs87C7MvxwgH0-34" value="1" style="rounded=0;whiteSpace=wrap;html=1;" vertex="1" parent="1">
                    <mxGeometry x="2240" y="560" width="40" height="40" as="geometry"/>
                </mxCell>
                <mxCell id="qLU_nFHRs87C7MvxwgH0-35" value="2" style="rounded=0;whiteSpace=wrap;html=1;" vertex="1" parent="1">
                    <mxGeometry x="2400" y="560" width="40" height="40" as="geometry"/>
                </mxCell>
                <mxCell id="qLU_nFHRs87C7MvxwgH0-36" value="" style="endArrow=none;html=1;entryX=0;entryY=0.5;entryDx=0;entryDy=0;exitX=0.5;exitY=1;exitDx=0;exitDy=0;" edge="1" parent="1" source="qLU_nFHRs87C7MvxwgH0-33" target="qLU_nFHRs87C7MvxwgH0-35">
                    <mxGeometry width="50" height="50" relative="1" as="geometry">
                        <mxPoint x="2290" y="720" as="sourcePoint"/>
                        <mxPoint x="2340" y="670" as="targetPoint"/>
                    </mxGeometry>
                </mxCell>
                <mxCell id="qLU_nFHRs87C7MvxwgH0-37" value="" style="endArrow=none;html=1;entryX=1;entryY=0.5;entryDx=0;entryDy=0;exitX=0.5;exitY=1;exitDx=0;exitDy=0;" edge="1" parent="1" source="qLU_nFHRs87C7MvxwgH0-33" target="qLU_nFHRs87C7MvxwgH0-34">
                    <mxGeometry width="50" height="50" relative="1" as="geometry">
                        <mxPoint x="2310" y="680" as="sourcePoint"/>
                        <mxPoint x="2360" y="630" as="targetPoint"/>
                    </mxGeometry>
                </mxCell>
                <mxCell id="qLU_nFHRs87C7MvxwgH0-38" value="" style="endArrow=none;html=1;entryX=0.5;entryY=1;entryDx=0;entryDy=0;exitX=1;exitY=0.5;exitDx=0;exitDy=0;" edge="1" parent="1" source="qLU_nFHRs87C7MvxwgH0-33" target="qLU_nFHRs87C7MvxwgH0-32">
                    <mxGeometry width="50" height="50" relative="1" as="geometry">
                        <mxPoint x="2370" y="550" as="sourcePoint"/>
                        <mxPoint x="2420" y="500" as="targetPoint"/>
                    </mxGeometry>
                </mxCell>
                <mxCell id="qLU_nFHRs87C7MvxwgH0-39" value="1" style="rounded=0;whiteSpace=wrap;html=1;" vertex="1" parent="1">
                    <mxGeometry x="2520" y="520" width="40" height="40" as="geometry"/>
                </mxCell>
                <mxCell id="qLU_nFHRs87C7MvxwgH0-40" value="" style="endArrow=none;html=1;entryX=0.5;entryY=1;entryDx=0;entryDy=0;exitX=0;exitY=0.5;exitDx=0;exitDy=0;" edge="1" parent="1" source="qLU_nFHRs87C7MvxwgH0-39" target="qLU_nFHRs87C7MvxwgH0-32">
                    <mxGeometry width="50" height="50" relative="1" as="geometry">
                        <mxPoint x="2460" y="580" as="sourcePoint"/>
                        <mxPoint x="2510" y="530" as="targetPoint"/>
                    </mxGeometry>
                </mxCell>
                <mxCell id="qLU_nFHRs87C7MvxwgH0-41" value="/" style="rounded=0;whiteSpace=wrap;html=1;fillColor=#CCFFFF;" vertex="1" parent="1">
                    <mxGeometry x="2440" y="640" width="40" height="40" as="geometry"/>
                </mxCell>
                <mxCell id="qLU_nFHRs87C7MvxwgH0-42" value="1" style="rounded=0;whiteSpace=wrap;html=1;" vertex="1" parent="1">
                    <mxGeometry x="2360" y="680" width="40" height="40" as="geometry"/>
                </mxCell>
                <mxCell id="qLU_nFHRs87C7MvxwgH0-43" value="2" style="rounded=0;whiteSpace=wrap;html=1;" vertex="1" parent="1">
                    <mxGeometry x="2520" y="680" width="40" height="40" as="geometry"/>
                </mxCell>
                <mxCell id="qLU_nFHRs87C7MvxwgH0-44" value="" style="endArrow=none;html=1;entryX=0;entryY=0.5;entryDx=0;entryDy=0;exitX=0.5;exitY=1;exitDx=0;exitDy=0;" edge="1" parent="1" source="qLU_nFHRs87C7MvxwgH0-41" target="qLU_nFHRs87C7MvxwgH0-43">
                    <mxGeometry width="50" height="50" relative="1" as="geometry">
                        <mxPoint x="2410" y="840" as="sourcePoint"/>
                        <mxPoint x="2460" y="790" as="targetPoint"/>
                    </mxGeometry>
                </mxCell>
                <mxCell id="qLU_nFHRs87C7MvxwgH0-45" value="" style="endArrow=none;html=1;entryX=1;entryY=0.5;entryDx=0;entryDy=0;exitX=0.5;exitY=1;exitDx=0;exitDy=0;" edge="1" parent="1" source="qLU_nFHRs87C7MvxwgH0-41" target="qLU_nFHRs87C7MvxwgH0-42">
                    <mxGeometry width="50" height="50" relative="1" as="geometry">
                        <mxPoint x="2430" y="800" as="sourcePoint"/>
                        <mxPoint x="2480" y="750" as="targetPoint"/>
                    </mxGeometry>
                </mxCell>
                <mxCell id="qLU_nFHRs87C7MvxwgH0-46" value="2" style="rounded=0;whiteSpace=wrap;html=1;strokeColor=#0000FF;" vertex="1" parent="1">
                    <mxGeometry x="2400" y="400" width="40" height="40" as="geometry"/>
                </mxCell>
                <mxCell id="qLU_nFHRs87C7MvxwgH0-47" value="1" style="rounded=0;whiteSpace=wrap;html=1;strokeColor=#FF0080;" vertex="1" parent="1">
                    <mxGeometry x="2640" y="400" width="40" height="40" as="geometry"/>
                </mxCell>
                <mxCell id="qLU_nFHRs87C7MvxwgH0-48" value="/" style="rounded=0;whiteSpace=wrap;html=1;fillColor=#CCFFFF;" vertex="1" parent="1">
                    <mxGeometry x="2920" y="160" width="40" height="40" as="geometry"/>
                </mxCell>
                <mxCell id="qLU_nFHRs87C7MvxwgH0-49" value="*" style="rounded=0;whiteSpace=wrap;html=1;fillColor=#CCFFFF;" vertex="1" parent="1">
                    <mxGeometry x="2800" y="200" width="40" height="40" as="geometry"/>
                </mxCell>
                <mxCell id="qLU_nFHRs87C7MvxwgH0-50" value="*" style="rounded=0;whiteSpace=wrap;html=1;fillColor=#CCFFFF;" vertex="1" parent="1">
                    <mxGeometry x="3040" y="200" width="40" height="40" as="geometry"/>
                </mxCell>
                <mxCell id="qLU_nFHRs87C7MvxwgH0-51" value="2" style="rounded=0;whiteSpace=wrap;html=1;" vertex="1" parent="1">
                    <mxGeometry x="2960" y="240" width="40" height="40" as="geometry"/>
                </mxCell>
                <mxCell id="qLU_nFHRs87C7MvxwgH0-52" value="2" style="rounded=0;whiteSpace=wrap;html=1;strokeColor=#0000FF;" vertex="1" parent="1">
                    <mxGeometry x="3120" y="240" width="40" height="40" as="geometry"/>
                </mxCell>
                <mxCell id="qLU_nFHRs87C7MvxwgH0-53" value="" style="endArrow=none;html=1;exitX=0.5;exitY=1;exitDx=0;exitDy=0;entryX=0;entryY=0.5;entryDx=0;entryDy=0;" edge="1" parent="1" source="qLU_nFHRs87C7MvxwgH0-49" target="qLU_nFHRs87C7MvxwgH0-60">
                    <mxGeometry width="50" height="50" relative="1" as="geometry">
                        <mxPoint x="2770" y="400" as="sourcePoint"/>
                        <mxPoint x="2830" y="260" as="targetPoint"/>
                    </mxGeometry>
                </mxCell>
                <mxCell id="qLU_nFHRs87C7MvxwgH0-54" value="" style="endArrow=none;html=1;entryX=1;entryY=0.5;entryDx=0;entryDy=0;exitX=0.5;exitY=1;exitDx=0;exitDy=0;" edge="1" parent="1" source="qLU_nFHRs87C7MvxwgH0-49" target="qLU_nFHRs87C7MvxwgH0-59">
                    <mxGeometry width="50" height="50" relative="1" as="geometry">
                        <mxPoint x="2790" y="360" as="sourcePoint"/>
                        <mxPoint x="2810" y="320" as="targetPoint"/>
                    </mxGeometry>
                </mxCell>
                <mxCell id="qLU_nFHRs87C7MvxwgH0-55" value="" style="endArrow=none;html=1;entryX=0.5;entryY=1;entryDx=0;entryDy=0;exitX=1;exitY=0.5;exitDx=0;exitDy=0;" edge="1" parent="1" source="qLU_nFHRs87C7MvxwgH0-49" target="qLU_nFHRs87C7MvxwgH0-48">
                    <mxGeometry width="50" height="50" relative="1" as="geometry">
                        <mxPoint x="2850" y="230" as="sourcePoint"/>
                        <mxPoint x="2900" y="180" as="targetPoint"/>
                    </mxGeometry>
                </mxCell>
                <mxCell id="qLU_nFHRs87C7MvxwgH0-56" value="" style="endArrow=none;html=1;entryX=0.5;entryY=1;entryDx=0;entryDy=0;exitX=0;exitY=0.5;exitDx=0;exitDy=0;" edge="1" parent="1" source="qLU_nFHRs87C7MvxwgH0-50" target="qLU_nFHRs87C7MvxwgH0-48">
                    <mxGeometry width="50" height="50" relative="1" as="geometry">
                        <mxPoint x="2950" y="260" as="sourcePoint"/>
                        <mxPoint x="3000" y="210" as="targetPoint"/>
                    </mxGeometry>
                </mxCell>
                <mxCell id="qLU_nFHRs87C7MvxwgH0-57" value="" style="endArrow=none;html=1;entryX=0.5;entryY=1;entryDx=0;entryDy=0;exitX=1;exitY=0.5;exitDx=0;exitDy=0;" edge="1" parent="1" source="qLU_nFHRs87C7MvxwgH0-51" target="qLU_nFHRs87C7MvxwgH0-50">
                    <mxGeometry width="50" height="50" relative="1" as="geometry">
                        <mxPoint x="2950" y="260" as="sourcePoint"/>
                        <mxPoint x="3000" y="210" as="targetPoint"/>
                    </mxGeometry>
                </mxCell>
                <mxCell id="qLU_nFHRs87C7MvxwgH0-58" value="" style="endArrow=none;html=1;entryX=0.5;entryY=1;entryDx=0;entryDy=0;exitX=0;exitY=0.5;exitDx=0;exitDy=0;" edge="1" parent="1" source="qLU_nFHRs87C7MvxwgH0-52" target="qLU_nFHRs87C7MvxwgH0-50">
                    <mxGeometry width="50" height="50" relative="1" as="geometry">
                        <mxPoint x="2950" y="260" as="sourcePoint"/>
                        <mxPoint x="3000" y="210" as="targetPoint"/>
                    </mxGeometry>
                </mxCell>
                <mxCell id="qLU_nFHRs87C7MvxwgH0-59" value="1" style="rounded=0;whiteSpace=wrap;html=1;strokeColor=#000000;" vertex="1" parent="1">
                    <mxGeometry x="2720" y="240" width="40" height="40" as="geometry"/>
                </mxCell>
                <mxCell id="qLU_nFHRs87C7MvxwgH0-60" value="2" style="rounded=0;whiteSpace=wrap;html=1;strokeColor=#FF0080;" vertex="1" parent="1">
                    <mxGeometry x="2880" y="240" width="40" height="40" as="geometry"/>
                </mxCell>
                <mxCell id="qLU_nFHRs87C7MvxwgH0-61" value="/" style="rounded=0;whiteSpace=wrap;html=1;fillColor=#CCFFFF;" vertex="1" parent="1">
                    <mxGeometry x="2920" y="320" width="40" height="40" as="geometry"/>
                </mxCell>
                <mxCell id="qLU_nFHRs87C7MvxwgH0-62" value="*" style="rounded=0;whiteSpace=wrap;html=1;fillColor=#CCFFFF;" vertex="1" parent="1">
                    <mxGeometry x="2800" y="360" width="40" height="40" as="geometry"/>
                </mxCell>
                <mxCell id="qLU_nFHRs87C7MvxwgH0-63" value="*" style="rounded=0;whiteSpace=wrap;html=1;fillColor=#CCFFFF;" vertex="1" parent="1">
                    <mxGeometry x="3040" y="360" width="40" height="40" as="geometry"/>
                </mxCell>
                <mxCell id="qLU_nFHRs87C7MvxwgH0-64" value="2" style="rounded=0;whiteSpace=wrap;html=1;" vertex="1" parent="1">
                    <mxGeometry x="2960" y="400" width="40" height="40" as="geometry"/>
                </mxCell>
                <mxCell id="qLU_nFHRs87C7MvxwgH0-65" value="2" style="rounded=0;whiteSpace=wrap;html=1;strokeColor=#0000FF;" vertex="1" parent="1">
                    <mxGeometry x="3120" y="400" width="40" height="40" as="geometry"/>
                </mxCell>
                <mxCell id="qLU_nFHRs87C7MvxwgH0-66" value="" style="endArrow=none;html=1;exitX=0.5;exitY=1;exitDx=0;exitDy=0;entryX=0;entryY=0.5;entryDx=0;entryDy=0;" edge="1" parent="1" source="qLU_nFHRs87C7MvxwgH0-62" target="qLU_nFHRs87C7MvxwgH0-73">
                    <mxGeometry width="50" height="50" relative="1" as="geometry">
                        <mxPoint x="2770" y="560" as="sourcePoint"/>
                        <mxPoint x="2830" y="420" as="targetPoint"/>
                    </mxGeometry>
                </mxCell>
                <mxCell id="qLU_nFHRs87C7MvxwgH0-67" value="" style="endArrow=none;html=1;entryX=1;entryY=0.5;entryDx=0;entryDy=0;exitX=0.5;exitY=1;exitDx=0;exitDy=0;" edge="1" parent="1" source="qLU_nFHRs87C7MvxwgH0-62" target="qLU_nFHRs87C7MvxwgH0-72">
                    <mxGeometry width="50" height="50" relative="1" as="geometry">
                        <mxPoint x="2790" y="520" as="sourcePoint"/>
                        <mxPoint x="2810" y="480" as="targetPoint"/>
                    </mxGeometry>
                </mxCell>
                <mxCell id="qLU_nFHRs87C7MvxwgH0-68" value="" style="endArrow=none;html=1;entryX=0.5;entryY=1;entryDx=0;entryDy=0;exitX=1;exitY=0.5;exitDx=0;exitDy=0;" edge="1" parent="1" source="qLU_nFHRs87C7MvxwgH0-62" target="qLU_nFHRs87C7MvxwgH0-61">
                    <mxGeometry width="50" height="50" relative="1" as="geometry">
                        <mxPoint x="2850" y="390" as="sourcePoint"/>
                        <mxPoint x="2900" y="340" as="targetPoint"/>
                    </mxGeometry>
                </mxCell>
                <mxCell id="qLU_nFHRs87C7MvxwgH0-69" value="" style="endArrow=none;html=1;entryX=0.5;entryY=1;entryDx=0;entryDy=0;exitX=0;exitY=0.5;exitDx=0;exitDy=0;" edge="1" parent="1" source="qLU_nFHRs87C7MvxwgH0-63" target="qLU_nFHRs87C7MvxwgH0-61">
                    <mxGeometry width="50" height="50" relative="1" as="geometry">
                        <mxPoint x="2950" y="420" as="sourcePoint"/>
                        <mxPoint x="3000" y="370" as="targetPoint"/>
                    </mxGeometry>
                </mxCell>
                <mxCell id="qLU_nFHRs87C7MvxwgH0-70" value="" style="endArrow=none;html=1;entryX=0.5;entryY=1;entryDx=0;entryDy=0;exitX=1;exitY=0.5;exitDx=0;exitDy=0;" edge="1" parent="1" source="qLU_nFHRs87C7MvxwgH0-64" target="qLU_nFHRs87C7MvxwgH0-63">
                    <mxGeometry width="50" height="50" relative="1" as="geometry">
                        <mxPoint x="2950" y="420" as="sourcePoint"/>
                        <mxPoint x="3000" y="370" as="targetPoint"/>
                    </mxGeometry>
                </mxCell>
                <mxCell id="qLU_nFHRs87C7MvxwgH0-71" value="" style="endArrow=none;html=1;entryX=0.5;entryY=1;entryDx=0;entryDy=0;exitX=0;exitY=0.5;exitDx=0;exitDy=0;" edge="1" parent="1" source="qLU_nFHRs87C7MvxwgH0-65" target="qLU_nFHRs87C7MvxwgH0-63">
                    <mxGeometry width="50" height="50" relative="1" as="geometry">
                        <mxPoint x="2950" y="420" as="sourcePoint"/>
                        <mxPoint x="3000" y="370" as="targetPoint"/>
                    </mxGeometry>
                </mxCell>
                <mxCell id="qLU_nFHRs87C7MvxwgH0-72" value="1" style="rounded=0;whiteSpace=wrap;html=1;strokeColor=#000000;" vertex="1" parent="1">
                    <mxGeometry x="2720" y="400" width="40" height="40" as="geometry"/>
                </mxCell>
                <mxCell id="qLU_nFHRs87C7MvxwgH0-73" value="2" style="rounded=0;whiteSpace=wrap;html=1;strokeColor=#FF0080;" vertex="1" parent="1">
                    <mxGeometry x="2880" y="400" width="40" height="40" as="geometry"/>
                </mxCell>
                <mxCell id="qLU_nFHRs87C7MvxwgH0-74" value="&lt;font style=&quot;font-size: 40px;&quot;&gt;?&lt;/font&gt;" style="rounded=0;whiteSpace=wrap;html=1;" vertex="1" parent="1">
                    <mxGeometry x="2840" y="480" width="200" height="200" as="geometry"/>
                </mxCell>
                <mxCell id="qLU_nFHRs87C7MvxwgH0-75" value="4" style="rounded=0;whiteSpace=wrap;html=1;" vertex="1" parent="1">
                    <mxGeometry x="1880" y="80" width="40" height="40" as="geometry"/>
                </mxCell>
                <mxCell id="qLU_nFHRs87C7MvxwgH0-76" value="^" style="rounded=0;whiteSpace=wrap;html=1;fillColor=#FFCCFF;" vertex="1" parent="1">
                    <mxGeometry x="1960" y="40" width="40" height="40" as="geometry"/>
                </mxCell>
                <mxCell id="qLU_nFHRs87C7MvxwgH0-77" value="" style="endArrow=none;html=1;fontSize=40;entryX=0.5;entryY=1;entryDx=0;entryDy=0;exitX=1;exitY=0.5;exitDx=0;exitDy=0;" edge="1" parent="1" source="qLU_nFHRs87C7MvxwgH0-75" target="qLU_nFHRs87C7MvxwgH0-76">
                    <mxGeometry width="50" height="50" relative="1" as="geometry">
                        <mxPoint x="1930" y="170" as="sourcePoint"/>
                        <mxPoint x="1980" y="120" as="targetPoint"/>
                    </mxGeometry>
                </mxCell>
                <mxCell id="qLU_nFHRs87C7MvxwgH0-78" value="/" style="rounded=0;whiteSpace=wrap;html=1;fillColor=#CCFFFF;" vertex="1" parent="1">
                    <mxGeometry x="2080" y="80" width="40" height="40" as="geometry"/>
                </mxCell>
                <mxCell id="qLU_nFHRs87C7MvxwgH0-79" value="1" style="rounded=0;whiteSpace=wrap;html=1;" vertex="1" parent="1">
                    <mxGeometry x="2000" y="120" width="40" height="40" as="geometry"/>
                </mxCell>
                <mxCell id="qLU_nFHRs87C7MvxwgH0-80" value="2" style="rounded=0;whiteSpace=wrap;html=1;" vertex="1" parent="1">
                    <mxGeometry x="2160" y="120" width="40" height="40" as="geometry"/>
                </mxCell>
                <mxCell id="qLU_nFHRs87C7MvxwgH0-81" value="" style="endArrow=none;html=1;fontSize=40;entryX=0.5;entryY=1;entryDx=0;entryDy=0;exitX=0;exitY=0.5;exitDx=0;exitDy=0;" edge="1" parent="1" source="qLU_nFHRs87C7MvxwgH0-78" target="qLU_nFHRs87C7MvxwgH0-76">
                    <mxGeometry width="50" height="50" relative="1" as="geometry">
                        <mxPoint x="1790" y="180" as="sourcePoint"/>
                        <mxPoint x="1840" y="130" as="targetPoint"/>
                    </mxGeometry>
                </mxCell>
                <mxCell id="qLU_nFHRs87C7MvxwgH0-82" value="" style="endArrow=none;html=1;fontSize=40;entryX=0.5;entryY=1;entryDx=0;entryDy=0;exitX=1;exitY=0.5;exitDx=0;exitDy=0;" edge="1" parent="1" source="qLU_nFHRs87C7MvxwgH0-79" target="qLU_nFHRs87C7MvxwgH0-78">
                    <mxGeometry width="50" height="50" relative="1" as="geometry">
                        <mxPoint x="1790" y="180" as="sourcePoint"/>
                        <mxPoint x="1840" y="130" as="targetPoint"/>
                    </mxGeometry>
                </mxCell>
                <mxCell id="qLU_nFHRs87C7MvxwgH0-83" value="" style="endArrow=none;html=1;fontSize=40;entryX=0.5;entryY=1;entryDx=0;entryDy=0;exitX=0;exitY=0.5;exitDx=0;exitDy=0;" edge="1" parent="1" source="qLU_nFHRs87C7MvxwgH0-80" target="qLU_nFHRs87C7MvxwgH0-78">
                    <mxGeometry width="50" height="50" relative="1" as="geometry">
                        <mxPoint x="1790" y="180" as="sourcePoint"/>
                        <mxPoint x="1840" y="130" as="targetPoint"/>
                    </mxGeometry>
                </mxCell>
                <mxCell id="qLU_nFHRs87C7MvxwgH0-84" value="^" style="rounded=0;whiteSpace=wrap;html=1;fillColor=#FFCCFF;" vertex="1" parent="1">
                    <mxGeometry x="1960" y="200" width="40" height="40" as="geometry"/>
                </mxCell>
                <mxCell id="qLU_nFHRs87C7MvxwgH0-85" value="/" style="rounded=0;whiteSpace=wrap;html=1;fillColor=#CCFFFF;" vertex="1" parent="1">
                    <mxGeometry x="2080" y="240" width="40" height="40" as="geometry"/>
                </mxCell>
                <mxCell id="qLU_nFHRs87C7MvxwgH0-86" value="1" style="rounded=0;whiteSpace=wrap;html=1;" vertex="1" parent="1">
                    <mxGeometry x="2000" y="280" width="40" height="40" as="geometry"/>
                </mxCell>
                <mxCell id="qLU_nFHRs87C7MvxwgH0-87" value="2" style="rounded=0;whiteSpace=wrap;html=1;strokeColor=#CC0066;" vertex="1" parent="1">
                    <mxGeometry x="2160" y="280" width="40" height="40" as="geometry"/>
                </mxCell>
                <mxCell id="qLU_nFHRs87C7MvxwgH0-88" value="" style="endArrow=none;html=1;fontSize=40;entryX=0.5;entryY=1;entryDx=0;entryDy=0;exitX=0;exitY=0.5;exitDx=0;exitDy=0;" edge="1" parent="1" source="qLU_nFHRs87C7MvxwgH0-85" target="qLU_nFHRs87C7MvxwgH0-84">
                    <mxGeometry width="50" height="50" relative="1" as="geometry">
                        <mxPoint x="1790" y="340" as="sourcePoint"/>
                        <mxPoint x="1840" y="290" as="targetPoint"/>
                    </mxGeometry>
                </mxCell>
                <mxCell id="qLU_nFHRs87C7MvxwgH0-89" value="" style="endArrow=none;html=1;fontSize=40;entryX=0.5;entryY=1;entryDx=0;entryDy=0;exitX=1;exitY=0.5;exitDx=0;exitDy=0;" edge="1" parent="1" source="qLU_nFHRs87C7MvxwgH0-86" target="qLU_nFHRs87C7MvxwgH0-85">
                    <mxGeometry width="50" height="50" relative="1" as="geometry">
                        <mxPoint x="1790" y="340" as="sourcePoint"/>
                        <mxPoint x="1840" y="290" as="targetPoint"/>
                    </mxGeometry>
                </mxCell>
                <mxCell id="qLU_nFHRs87C7MvxwgH0-90" value="" style="endArrow=none;html=1;fontSize=40;entryX=0.5;entryY=1;entryDx=0;entryDy=0;exitX=0;exitY=0.5;exitDx=0;exitDy=0;" edge="1" parent="1" source="qLU_nFHRs87C7MvxwgH0-87" target="qLU_nFHRs87C7MvxwgH0-85">
                    <mxGeometry width="50" height="50" relative="1" as="geometry">
                        <mxPoint x="1790" y="340" as="sourcePoint"/>
                        <mxPoint x="1840" y="290" as="targetPoint"/>
                    </mxGeometry>
                </mxCell>
                <mxCell id="qLU_nFHRs87C7MvxwgH0-91" value="*" style="rounded=0;whiteSpace=wrap;html=1;fillColor=#CCFFFF;" vertex="1" parent="1">
                    <mxGeometry x="1840" y="240" width="40" height="40" as="geometry"/>
                </mxCell>
                <mxCell id="qLU_nFHRs87C7MvxwgH0-92" value="" style="endArrow=none;html=1;fontSize=40;entryX=0.5;entryY=1;entryDx=0;entryDy=0;exitX=1;exitY=0.5;exitDx=0;exitDy=0;" edge="1" parent="1" source="qLU_nFHRs87C7MvxwgH0-91" target="qLU_nFHRs87C7MvxwgH0-84">
                    <mxGeometry width="50" height="50" relative="1" as="geometry">
                        <mxPoint x="1690" y="310" as="sourcePoint"/>
                        <mxPoint x="1740" y="260" as="targetPoint"/>
                    </mxGeometry>
                </mxCell>
                <mxCell id="qLU_nFHRs87C7MvxwgH0-93" value="2" style="rounded=0;whiteSpace=wrap;html=1;" vertex="1" parent="1">
                    <mxGeometry x="1760" y="280" width="40" height="40" as="geometry"/>
                </mxCell>
                <mxCell id="qLU_nFHRs87C7MvxwgH0-94" value="2" style="rounded=0;whiteSpace=wrap;html=1;" vertex="1" parent="1">
                    <mxGeometry x="1920" y="280" width="40" height="40" as="geometry"/>
                </mxCell>
                <mxCell id="qLU_nFHRs87C7MvxwgH0-95" value="" style="endArrow=none;html=1;fontSize=40;entryX=0.5;entryY=1;entryDx=0;entryDy=0;exitX=1;exitY=0.5;exitDx=0;exitDy=0;" edge="1" parent="1" source="qLU_nFHRs87C7MvxwgH0-93" target="qLU_nFHRs87C7MvxwgH0-91">
                    <mxGeometry width="50" height="50" relative="1" as="geometry">
                        <mxPoint x="1690" y="310" as="sourcePoint"/>
                        <mxPoint x="1740" y="260" as="targetPoint"/>
                    </mxGeometry>
                </mxCell>
                <mxCell id="qLU_nFHRs87C7MvxwgH0-96" value="" style="endArrow=none;html=1;fontSize=40;entryX=0.5;entryY=1;entryDx=0;entryDy=0;exitX=0;exitY=0.5;exitDx=0;exitDy=0;" edge="1" parent="1" source="qLU_nFHRs87C7MvxwgH0-94" target="qLU_nFHRs87C7MvxwgH0-91">
                    <mxGeometry width="50" height="50" relative="1" as="geometry">
                        <mxPoint x="1690" y="310" as="sourcePoint"/>
                        <mxPoint x="1740" y="260" as="targetPoint"/>
                    </mxGeometry>
                </mxCell>
                <mxCell id="qLU_nFHRs87C7MvxwgH0-97" value="^" style="rounded=0;whiteSpace=wrap;html=1;fillColor=#FFCCFF;" vertex="1" parent="1">
                    <mxGeometry x="1960" y="360" width="40" height="40" as="geometry"/>
                </mxCell>
                <mxCell id="qLU_nFHRs87C7MvxwgH0-98" value="1" style="rounded=0;whiteSpace=wrap;html=1;" vertex="1" parent="1">
                    <mxGeometry x="2080" y="400" width="40" height="40" as="geometry"/>
                </mxCell>
                <mxCell id="qLU_nFHRs87C7MvxwgH0-99" value="" style="endArrow=none;html=1;fontSize=40;entryX=0.5;entryY=1;entryDx=0;entryDy=0;exitX=0;exitY=0.5;exitDx=0;exitDy=0;" edge="1" parent="1" source="qLU_nFHRs87C7MvxwgH0-98" target="qLU_nFHRs87C7MvxwgH0-97">
                    <mxGeometry width="50" height="50" relative="1" as="geometry">
                        <mxPoint x="2080" y="420" as="sourcePoint"/>
                        <mxPoint x="1850" y="300" as="targetPoint"/>
                    </mxGeometry>
                </mxCell>
                <mxCell id="qLU_nFHRs87C7MvxwgH0-100" value="*" style="rounded=0;whiteSpace=wrap;html=1;fillColor=#CCFFFF;" vertex="1" parent="1">
                    <mxGeometry x="1720" y="400" width="40" height="40" as="geometry"/>
                </mxCell>
                <mxCell id="qLU_nFHRs87C7MvxwgH0-101" value="" style="endArrow=none;html=1;fontSize=40;entryX=0.5;entryY=1;entryDx=0;entryDy=0;exitX=1;exitY=0.5;exitDx=0;exitDy=0;" edge="1" parent="1" source="qLU_nFHRs87C7MvxwgH0-100" target="qLU_nFHRs87C7MvxwgH0-97">
                    <mxGeometry width="50" height="50" relative="1" as="geometry">
                        <mxPoint x="1700" y="320" as="sourcePoint"/>
                        <mxPoint x="1750" y="270" as="targetPoint"/>
                    </mxGeometry>
                </mxCell>
                <mxCell id="qLU_nFHRs87C7MvxwgH0-102" value="2" style="rounded=0;whiteSpace=wrap;html=1;" vertex="1" parent="1">
                    <mxGeometry x="1640" y="440" width="40" height="40" as="geometry"/>
                </mxCell>
                <mxCell id="qLU_nFHRs87C7MvxwgH0-103" value="" style="endArrow=none;html=1;fontSize=40;entryX=0.5;entryY=1;entryDx=0;entryDy=0;exitX=1;exitY=0.5;exitDx=0;exitDy=0;" edge="1" parent="1" source="qLU_nFHRs87C7MvxwgH0-102" target="qLU_nFHRs87C7MvxwgH0-100">
                    <mxGeometry width="50" height="50" relative="1" as="geometry">
                        <mxPoint x="1700" y="320" as="sourcePoint"/>
                        <mxPoint x="1750" y="270" as="targetPoint"/>
                    </mxGeometry>
                </mxCell>
                <mxCell id="qLU_nFHRs87C7MvxwgH0-104" value="/" style="rounded=0;whiteSpace=wrap;html=1;fillColor=#CCFFFF;" vertex="1" parent="1">
                    <mxGeometry x="1840" y="440" width="40" height="40" as="geometry"/>
                </mxCell>
                <mxCell id="qLU_nFHRs87C7MvxwgH0-105" value="" style="endArrow=none;html=1;fontSize=40;entryX=0.5;entryY=1;entryDx=0;entryDy=0;exitX=0;exitY=0.5;exitDx=0;exitDy=0;" edge="1" parent="1" source="qLU_nFHRs87C7MvxwgH0-104" target="qLU_nFHRs87C7MvxwgH0-100">
                    <mxGeometry width="50" height="50" relative="1" as="geometry">
                        <mxPoint x="1780" y="390" as="sourcePoint"/>
                        <mxPoint x="1830" y="340" as="targetPoint"/>
                    </mxGeometry>
                </mxCell>
                <mxCell id="qLU_nFHRs87C7MvxwgH0-106" value="2" style="rounded=0;whiteSpace=wrap;html=1;" vertex="1" parent="1">
                    <mxGeometry x="1760" y="480" width="40" height="40" as="geometry"/>
                </mxCell>
                <mxCell id="qLU_nFHRs87C7MvxwgH0-107" value="2" style="rounded=0;whiteSpace=wrap;html=1;strokeColor=#CC0066;" vertex="1" parent="1">
                    <mxGeometry x="1920" y="480" width="40" height="40" as="geometry"/>
                </mxCell>
                <mxCell id="qLU_nFHRs87C7MvxwgH0-108" value="" style="endArrow=none;html=1;fontSize=40;entryX=0.5;entryY=1;entryDx=0;entryDy=0;exitX=1;exitY=0.5;exitDx=0;exitDy=0;" edge="1" parent="1" source="qLU_nFHRs87C7MvxwgH0-106" target="qLU_nFHRs87C7MvxwgH0-104">
                    <mxGeometry width="50" height="50" relative="1" as="geometry">
                        <mxPoint x="1800" y="560" as="sourcePoint"/>
                        <mxPoint x="1850" y="510" as="targetPoint"/>
                    </mxGeometry>
                </mxCell>
                <mxCell id="qLU_nFHRs87C7MvxwgH0-109" value="" style="endArrow=none;html=1;fontSize=40;entryX=0;entryY=0.5;entryDx=0;entryDy=0;exitX=0.5;exitY=1;exitDx=0;exitDy=0;" edge="1" parent="1" source="qLU_nFHRs87C7MvxwgH0-104" target="qLU_nFHRs87C7MvxwgH0-107">
                    <mxGeometry width="50" height="50" relative="1" as="geometry">
                        <mxPoint x="1860" y="510" as="sourcePoint"/>
                        <mxPoint x="1710" y="340" as="targetPoint"/>
                    </mxGeometry>
                </mxCell>
                <mxCell id="qLU_nFHRs87C7MvxwgH0-110" value="*" style="rounded=0;whiteSpace=wrap;html=1;fillColor=#CCFFFF;" vertex="1" parent="1">
                    <mxGeometry x="1960" y="560" width="40" height="40" as="geometry"/>
                </mxCell>
                <mxCell id="qLU_nFHRs87C7MvxwgH0-111" value="2" style="rounded=0;whiteSpace=wrap;html=1;" vertex="1" parent="1">
                    <mxGeometry x="1880" y="600" width="40" height="40" as="geometry"/>
                </mxCell>
                <mxCell id="qLU_nFHRs87C7MvxwgH0-112" value="" style="endArrow=none;html=1;fontSize=40;entryX=0.5;entryY=1;entryDx=0;entryDy=0;exitX=1;exitY=0.5;exitDx=0;exitDy=0;" edge="1" parent="1" source="qLU_nFHRs87C7MvxwgH0-111" target="qLU_nFHRs87C7MvxwgH0-110">
                    <mxGeometry width="50" height="50" relative="1" as="geometry">
                        <mxPoint x="1940" y="480" as="sourcePoint"/>
                        <mxPoint x="1990" y="430" as="targetPoint"/>
                    </mxGeometry>
                </mxCell>
                <mxCell id="qLU_nFHRs87C7MvxwgH0-113" value="" style="endArrow=none;html=1;fontSize=40;entryX=0.5;entryY=1;entryDx=0;entryDy=0;exitX=0;exitY=0.5;exitDx=0;exitDy=0;" edge="1" parent="1" source="qLU_nFHRs87C7MvxwgH0-114" target="qLU_nFHRs87C7MvxwgH0-110">
                    <mxGeometry width="50" height="50" relative="1" as="geometry">
                        <mxPoint x="2080" y="620" as="sourcePoint"/>
                        <mxPoint x="2070" y="500" as="targetPoint"/>
                    </mxGeometry>
                </mxCell>
                <mxCell id="qLU_nFHRs87C7MvxwgH0-114" value="1" style="rounded=0;whiteSpace=wrap;html=1;" vertex="1" parent="1">
                    <mxGeometry x="2040" y="600" width="40" height="40" as="geometry"/>
                </mxCell>
                <mxCell id="qLU_nFHRs87C7MvxwgH0-115" value="2" style="rounded=0;whiteSpace=wrap;html=1;" vertex="1" parent="1">
                    <mxGeometry x="1960" y="680" width="40" height="40" as="geometry"/>
                </mxCell>
            </root>
        </mxGraphModel>
    </diagram>
</mxfile>